<?xml version="1.0" encoding="UTF-8" standalone="no"?><!DOCTYPE svg PUBLIC "-//W3C//DTD SVG 1.1//EN" "http://www.w3.org/Graphics/SVG/1.1/DTD/svg11.dtd"><svg width="100%" height="100%" viewBox="0 0 8000 4500" version="1.1" xmlns="http://www.w3.org/2000/svg" xmlns:xlink="http://www.w3.org/1999/xlink" xml:space="preserve" xmlns:serif="http://www.serif.com/" style="fill-rule:evenodd;clip-rule:evenodd;stroke-linecap:round;stroke-linejoin:round;stroke-miterlimit:1.5;"><path d="M901.48,1386.33c24.669,-13.695 72.62,-29.341 107.609,-28.446c90.015,2.3 107.179,-17.896 -19.235,47.531c-294.867,152.611 105.21,221.091 108.391,390.583c3.477,185.18 -65.568,326.554 -302.585,362.577c-632.821,96.179 -631.499,-198.02 -609.371,-381.906c29.086,-241.704 551.916,-299.692 715.191,-390.339Z" style="fill:#e6d46b;"/><path d="M3274.94,2709.87c7.285,-133.695 52.861,-398.246 391.58,-352.234c260.443,35.38 485.025,-56.822 411.986,-19.02c-294.868,152.612 105.209,221.091 108.391,390.583c3.476,185.181 -65.568,326.554 -302.585,362.577c-632.821,96.18 -619.448,-196.967 -609.372,-381.906Z" style="fill:#d84e38;"/><path d="M2719.12,849.843c385.227,144.267 482.775,-137.781 473.802,-48.524c-11.278,112.183 -128.387,214.984 -56.254,330.006c89.338,142.456 -187.663,386.902 -402.846,419.606c-574.524,87.32 -551.317,-272.545 -551.317,-440.697c0,-168.151 332.786,-336.725 536.615,-260.391Z" style="fill:#ffbe00;"/><path d="M709.739,2320.47c474.211,175.709 526.346,-194.117 466.983,56.209c-24.058,101.447 -118.723,198.801 -52.02,305.165c82.613,131.732 -209.356,270.179 -372.521,388.02c-505.744,365.257 -681.348,-451.128 -681.348,-606.621c0,-155.494 364.028,-244.624 638.906,-142.773Z" style="fill:#e198ff;"/><path d="M2266.87,2084.42c237.393,-116.594 306.217,132.403 294.287,26.205c-14.996,-133.475 -170.708,-102.086 -74.797,-238.94c118.786,-169.495 -249.523,-460.338 -535.636,-499.251c-763.905,-103.893 -795.751,332.306 -733.048,524.345c237.901,728.606 795.496,312.243 1049.19,187.641Z" style="fill:#74b068;"/><path d="M1796.83,3594.13c150.341,-229.38 280.681,-16.769 198.272,-142.765c-70.609,-107.955 -89.659,-38.168 -151.396,-187.026c-73.568,-177.384 -188.569,-211.048 -636.984,-153.67c-824.707,105.526 -582.54,376.188 -553.83,603.056c49.108,388.044 784.598,123.447 1022.67,32.09c115.088,-44.164 78.771,-86.838 121.273,-151.685Z" style="fill:#ecd148;"/><path d="M1528.05,609.945c-153.941,-79.702 -508.486,20.107 -410.09,27.102c330.632,23.504 46.551,170.812 118.59,403.205c54.748,176.614 290.109,267.938 525.226,223.173c627.746,-119.519 388.353,-461.706 310.874,-629.596c-104.817,-227.128 -502.101,-1.881 -544.6,-23.884Z" style="fill:#4faaa1;"/><path d="M2362.1,3171.84c-195.595,101.268 -646.078,-25.549 -521.057,-34.437c420.1,-29.863 59.148,-217.031 150.68,-512.308c31.023,-100.079 61.394,-271.195 163.321,-322.441c126.621,-63.661 338.519,7.367 504.027,38.879c797.608,151.861 493.438,586.64 394.993,799.959c-133.18,288.587 -637.965,2.39 -691.964,30.348Z" style="fill:#d08383;"/><path d="M3448.98,2245.25c-247.919,23.378 -357.034,0.55 -320.988,-16.163c424.101,-196.636 -191.712,-262.956 -90.115,-590.701c34.434,-111.084 97.558,-286.309 210.692,-343.19c140.544,-70.661 401.479,-131.534 585.186,-96.557c885.313,168.559 558.726,603.35 449.456,840.126c-147.824,320.319 -767.035,200.149 -834.231,206.485Z" style="fill:#d3b075;"/><path d="M3656.88,1110.65c-161.34,54.528 -340.375,70.989 -316.917,60.113c275.996,-127.967 -124.762,-171.126 -58.645,-384.416c22.409,-72.29 63.488,-186.323 137.114,-223.34c91.463,-45.985 252.964,14.116 372.516,36.878c576.143,109.695 371.917,292.932 300.807,447.02c-96.201,208.457 -393.263,49.681 -434.875,63.745Z" style="fill:#efa72c;"/><path d="M308.307,1086.88c-175.803,-86.344 -226.771,98.052 -217.936,19.407c11.105,-98.847 126.418,-75.601 55.391,-176.949c-87.967,-125.521 184.786,-340.906 396.669,-369.723c565.714,-76.939 589.298,246.091 542.862,388.306c-176.179,539.574 -589.109,231.233 -776.986,138.959Z" style="fill:#d2c2dc;"/><path d="M2370.64,4122.1c-50.959,-66.849 -187.604,-13.592 -232.9,28.014c-119.599,109.855 -121.233,191.954 -102.798,-10.308c12.508,-137.225 113.944,-215.926 109.399,-235.941c-131.504,-579.134 429.792,-593.619 727.495,-594.749c1004.5,-3.814 576.034,413.302 580.548,620.492c12.927,593.294 -970.511,338.409 -1081.74,192.492Z" style="fill:#ff9d66;"/><path d="M5639.27,1848.85c242.668,90.878 304.117,-86.793 298.464,-30.567c-7.104,70.667 -80.875,135.425 -35.436,207.882c56.277,89.738 -118.215,243.722 -253.766,264.324c-361.913,55.006 -347.294,-171.686 -347.294,-277.61c0,-105.924 209.634,-212.114 338.032,-164.029Z" style="fill:#96b34c;"/><g transform="matrix(1.23888,-0.204517,0.204517,1.23888,4985.56,1576.17)"><text x="236.312px" y="404.977px" style="font-family:'Arial-BoldMT', 'Arial', sans-serif;font-weight:700;font-size:34.854px;fill:#fff;">BYL<tspan x="305.391px 315.074px " y="404.977px 404.977px "> J</tspan>SEM SCHOPEN</text><text x="269.269px" y="453.115px" style="font-family:'Arial-BoldMT', 'Arial', sans-serif;font-weight:700;font-size:34.854px;fill:#fff;">ŘÍCI, CO MI V<tspan x="489.369px 514.54px " y="453.115px 453.115px ">AD</tspan>Í,</text><text x="199.867px" y="501.253px" style="font-family:'Arial-BoldMT', 'Arial', sans-serif;font-weight:700;font-size:34.854px;fill:#fff;">MÍST<tspan x="282.492px 309.603px 319.286px 339.947px 367.057px " y="501.253px 501.253px 501.253px 501.253px 501.253px ">O TOH</tspan>O,  <tspan x="447.095px 472.266px " y="501.253px 501.253px ">AB</tspan>YCH T<tspan x="601.368px " y="501.253px ">O</tspan></text><text x="285.709px" y="549.391px" style="font-family:'Arial-BoldMT', 'Arial', sans-serif;font-weight:700;font-size:34.854px;fill:#fff;">DRŽEL<tspan x="401.247px 410.931px " y="549.391px 549.391px "> V</tspan> SOBĚ</text></g><path d="M6453.26,2148.45c-92.215,-47.744 -304.598,12.045 -245.656,16.235c198.059,14.08 27.886,102.321 71.039,241.531c32.795,105.797 173.784,160.503 314.625,133.687c376.038,-71.595 232.635,-276.575 186.223,-377.145c-62.789,-136.057 -300.773,-1.127 -326.231,-14.308Z" style="fill:#a279b4;"/><g transform="matrix(2.24093,-0.342595,0.342595,2.24093,5797.14,1451.93)"><text x="194.587px" y="400px" style="font-family:'Arial-BoldMT', 'Arial', sans-serif;font-weight:700;font-size:21px;fill:#fff;">POMOHL<tspan x="286.37px 292.204px " y="400px 400px "> J</tspan>SEM</text><text x="185.271px" y="431.404px" style="font-family:'Arial-BoldMT', 'Arial', sans-serif;font-weight:700;font-size:21px;fill:#fff;">OST<tspan x="226.882px 240.489px 253.316px " y="431.404px 431.404px 431.404px ">ATN</tspan>ÍM <tspan x="296.865px 311.251px 317.085px " y="431.404px 431.404px 431.404px ">A B</tspan>YL</text><text x="200.221px" y="462.808px" style="font-family:'Arial-BoldMT', 'Arial', sans-serif;font-weight:700;font-size:21px;fill:#fff;">JSEM PRO NĚ</text><text x="220.657px" y="494.212px" style="font-family:'Arial-BoldMT', 'Arial', sans-serif;font-weight:700;font-size:21px;fill:#fff;">DŮLEŽITÝ</text></g><path d="M5024.99,226.534c18.719,-10.392 55.105,-22.264 81.654,-21.586c68.305,1.746 81.329,-13.579 -14.595,36.068c-223.747,115.802 79.834,167.765 82.248,296.377c2.638,140.516 -49.754,247.791 -229.604,275.126c-480.189,72.982 -479.186,-150.259 -462.395,-289.794c22.07,-183.406 418.798,-227.408 542.692,-296.191Z" style="fill:#74b068;"/><g transform="matrix(2.37674,-0.280817,0.280817,2.37674,3840.27,-363.838)"><text x="272.353px" y="400.045px" style="font-family:'Arial-BoldMT', 'Arial', sans-serif;font-weight:700;font-size:21px;fill:#fff;">ODHALIL<tspan x="365.294px 371.129px " y="400.045px 400.045px "> J</tspan>SEM O</text><text x="237.941px" y="431.449px" style="font-family:'Arial-BoldMT', 'Arial', sans-serif;font-weight:700;font-size:21px;fill:#fff;">SOBĚ PROBLEMA<tspan x="421.896px 434.723px " y="431.449px 431.449px ">TI</tspan>CKÉ</text><text x="225.677px" y="462.853px" style="font-family:'Arial-BoldMT', 'Arial', sans-serif;font-weight:700;font-size:21px;fill:#fff;">VĚCI <tspan x="279.746px 294.132px 299.967px " y="462.853px 462.853px 462.853px ">A D</tspan>RUZÍ VE SKUPINĚ</text><text x="269.835px" y="494.256px" style="font-family:'Arial-BoldMT', 'Arial', sans-serif;font-weight:700;font-size:21px;fill:#fff;">MĚ POŘÁD BRALI</text></g><path d="M5772,1578.14c-149.309,-73.332 -192.596,83.275 -185.092,16.482c9.431,-83.95 107.367,-64.208 47.043,-150.282c-74.71,-106.605 156.938,-289.531 336.89,-314.005c480.459,-65.344 500.489,209.004 461.051,329.787c-149.628,458.259 -500.328,196.386 -659.892,118.018Z" style="fill:#d3b075;"/><g transform="matrix(2.06339,-0.287592,0.287592,2.06339,4691.57,303.542)"><text x="459.409px" y="554px" style="font-family:'Arial-BoldMT', 'Arial', sans-serif;font-weight:700;font-size:21px;fill:#fff;">POMOHLO MI, ŽE JSEM</text><text x="408.073px" y="585.404px" style="font-family:'Arial-BoldMT', 'Arial', sans-serif;font-weight:700;font-size:21px;fill:#fff;">MOHL<tspan x="469.514px 475.348px " y="585.404px 585.404px "> J</tspan>AKO OST<tspan x="581.138px 594.745px 607.573px " y="585.404px 585.404px 585.404px ">ATN</tspan>Í OTEVŘENĚ</text><text x="422.079px" y="616.808px" style="font-family:'Arial-BoldMT', 'Arial', sans-serif;font-weight:700;font-size:21px;fill:#fff;">HOVOŘIT O ZNEKLIDŇUJÍCÍCH</text><text x="438.024px" y="648.212px" style="font-family:'Arial-BoldMT', 'Arial', sans-serif;font-weight:700;font-size:21px;fill:#fff;">OSOBNÍCH PROBLÉMECH <tspan x="711.424px " y="648.212px ">A</tspan></text><text x="452.61px" y="679.616px" style="font-family:'Arial-BoldMT', 'Arial', sans-serif;font-weight:700;font-size:21px;fill:#fff;">DĚLA<tspan x="508.217px 521.045px " y="679.616px 679.616px ">T </tspan>I DALŠÍ PRO MNE</text><text x="486.823px" y="711.02px" style="font-family:'Arial-BoldMT', 'Arial', sans-serif;font-weight:700;font-size:21px;fill:#fff;">OHROŽUJÍCÍ VĚCI</text></g><path d="M6954.18,1894.82c-141.647,73.337 -467.881,-18.502 -377.342,-24.938c304.23,-21.627 42.834,-157.172 109.12,-371.007c22.466,-72.476 44.461,-196.396 118.275,-233.508c91.697,-46.102 245.151,5.336 365.009,28.156c577.618,109.975 357.342,424.837 286.05,579.32c-96.447,208.991 -462.006,1.731 -501.112,21.977Z" style="fill:#4faaa1;"/><g transform="matrix(2.3626,0.415107,-0.415107,2.3626,4728.53,-111.213)"><text x="995.87px" y="468px" style="font-family:'Arial-BoldMT', 'Arial', sans-serif;font-weight:700;font-size:21px;fill:#fff;">PRÁCE VE SKUPINĚ</text><text x="935.802px" y="499.404px" style="font-family:'Arial-BoldMT', 'Arial', sans-serif;font-weight:700;font-size:21px;fill:#fff;">MI SVÝM ZPŮSOBEM POMOHLA</text><text x="980.13px" y="530.808px" style="font-family:'Arial-BoldMT', 'Arial', sans-serif;font-weight:700;font-size:21px;fill:#fff;">POCHOPIT PROBLÉMY<tspan x="1212.32px " y="530.808px ">,</tspan></text><text x="944.928px" y="562.212px" style="font-family:'Arial-BoldMT', 'Arial', sans-serif;font-weight:700;font-size:21px;fill:#fff;">KTERÉ JSEM MÍV<tspan x="1120.73px 1135.9px 1148.35px 1154.18px " y="562.212px 562.212px 562.212px 562.212px ">AL S</tspan> RODIČI,</text><text x="957.961px" y="593.616px" style="font-family:'Arial-BoldMT', 'Arial', sans-serif;font-weight:700;font-size:21px;fill:#fff;">SOUROZENCI NEBO JINÝMI</text><text x="1004.65px" y="625.02px" style="font-family:'Arial-BoldMT', 'Arial', sans-serif;font-weight:700;font-size:21px;fill:#fff;">DŮLEŽITÝMI LIDMI</text></g><path d="M7129.34,2660.81c-136.864,-65.061 -186.778,-111.004 -162.729,-108.503c282.953,29.423 -18.234,-197.195 137.028,-336.825c52.623,-47.325 140.235,-119.232 217.096,-113.696c95.482,6.878 250.836,56.398 335.95,131.942c410.174,364.06 103.952,489.506 -26.964,579.199c-177.108,121.339 -463.286,-134.483 -500.381,-152.117Z" style="fill:#ffbe00;"/><g transform="matrix(1.73125,1.0325,-1.0325,1.73125,5310.35,832.402)"><text x="1189.42px" y="75px" style="font-family:'Arial-BoldMT', 'Arial', sans-serif;font-weight:700;font-size:21px;fill:#fff;">ZJISTIL<tspan x="1264.88px 1270.71px " y="75px 75px "> J</tspan>SEM, ŽE JSOU MI</text><text x="1152.88px" y="106.404px" style="font-family:'Arial-BoldMT', 'Arial', sans-serif;font-weight:700;font-size:21px;fill:#fff;">NĚKTEŘÍ LIDÉ SYMP<tspan x="1362.51px 1376.12px 1388.95px " y="106.404px 106.404px 106.404px ">ATI</tspan>ČTÍ NEBO</text><text x="1186.72px" y="137.808px" style="font-family:'Arial-BoldMT', 'Arial', sans-serif;font-weight:700;font-size:21px;fill:#fff;">NESYMP<tspan x="1273.85px 1287.45px 1300.28px " y="137.808px 137.808px 137.808px ">ATI</tspan>ČTÍ Z DŮVODŮ,</text><text x="1157.72px" y="169.212px" style="font-family:'Arial-BoldMT', 'Arial', sans-serif;font-weight:700;font-size:21px;fill:#fff;">TERÉ SE VŮBEC NETÝKAJÍ JICH</text><text x="1156.93px" y="200.616px" style="font-family:'Arial-BoldMT', 'Arial', sans-serif;font-weight:700;font-size:21px;fill:#fff;">SAMÝCH,  <tspan x="1264.66px 1279.83px " y="200.616px 200.616px ">AL</tspan>E SOUVISEJÍ SPÍŠE</text><text x="1176.59px" y="232.02px" style="font-family:'Arial-BoldMT', 'Arial', sans-serif;font-weight:700;font-size:21px;fill:#fff;">S MÝMI PROBLÉMY<tspan x="1375.72px 1381.56px " y="232.02px 232.02px "> S</tspan> JINÝMI</text><text x="1224.84px" y="263.423px" style="font-family:'Arial-BoldMT', 'Arial', sans-serif;font-weight:700;font-size:21px;fill:#fff;">LIDMI V MINULOSTI</text></g><path d="M4888.25,2033.61c255.768,172.572 340.025,-39.143 268.722,100.688c-28.897,56.669 -99.059,100.724 -74.861,173.4c29.969,90.01 -163.084,129.962 -276.809,176.281c-352.501,143.568 -338.828,-365.724 -316.396,-457.901c22.432,-92.178 251.088,-92.5 399.344,7.532Z" style="fill:#9adab0;"/><g transform="matrix(1.84002,0.835705,-0.835705,1.84002,3321.59,-90.3435)"><text x="987.428px" y="726.2px" style="font-family:'Arial-BoldMT', 'Arial', sans-serif;font-weight:700;font-size:21px;fill:#fff;">ZJISTIL<tspan x="1062.89px 1068.72px " y="726.2px 726.2px "> J</tspan>SEM, ŽE OST<tspan x="1211.86px 1225.46px 1238.29px " y="726.2px 726.2px 726.2px ">ATN</tspan>Í</text><text x="1000.06px" y="757.604px" style="font-family:'Arial-BoldMT', 'Arial', sans-serif;font-weight:700;font-size:21px;fill:#fff;">MAJÍ STEJNĚ „ŠP<tspan x="1180.55px 1194.16px 1206.99px " y="757.604px 757.604px 757.604px ">ATN</tspan>É“</text><text x="1016.78px" y="789.008px" style="font-family:'Arial-BoldMT', 'Arial', sans-serif;font-weight:700;font-size:21px;fill:#fff;">MYŠLENKY<tspan x="1133.08px 1138.91px " y="789.008px 789.008px "> J</tspan>AKO JÁ</text></g><path d="M5333.66,1517.75c75.359,-46.899 137.152,87.473 118.267,-4.127c-16.181,-78.486 -101.848,-60.907 -44.626,-142.558c70.871,-101.125 -152.574,-258.62 -319.573,-297.865c-370.721,-87.12 -399.428,175.996 -437.354,312.837c-82.285,296.896 326.986,344.564 534.787,262.459c88.033,-34.784 65.012,-78.788 148.499,-130.746Z" style="fill:#d08383;"/><g transform="matrix(2.01425,-0.255192,0.255192,2.01425,4359.22,-232.222)"><text x="102.3px" y="795.789px" style="font-family:'Arial-BoldMT', 'Arial', sans-serif;font-weight:700;font-size:21px;fill:#fff;">OBJEVIL<tspan x="191.776px 197.61px " y="795.789px 795.789px "> J</tspan>SEM <tspan x="259.852px 274.238px 280.072px 291.341px 306.507px " y="795.789px 795.789px 795.789px 795.789px 795.789px ">A TAK</tspan>É</text><text x="64.504px" y="827.193px" style="font-family:'Arial-BoldMT', 'Arial', sans-serif;font-weight:700;font-size:21px;fill:#fff;">PŘĲAL<tspan x="137.769px 143.603px " y="827.193px 827.193px "> N</tspan>ĚKTERÉ SVÉ DOSUD</text><text x="52.271px" y="858.597px" style="font-family:'Arial-BoldMT', 'Arial', sans-serif;font-weight:700;font-size:21px;fill:#fff;">NEZNÁMÉ NEBO NEPŘĲA<tspan x="316.874px 329.701px " y="858.597px 858.597px ">TE</tspan>LNÉ</text><text x="152.488px" y="890.001px" style="font-family:'Arial-BoldMT', 'Arial', sans-serif;font-weight:700;font-size:21px;fill:#fff;">VLASTNOSTI</text></g><path d="M5448.33,645.397c5.867,-107.677 42.574,-320.746 315.377,-283.688c209.761,28.495 390.639,-45.764 331.813,-15.318c-237.486,122.913 84.735,178.066 87.298,314.574c2.8,149.144 -52.809,263.006 -243.702,292.019c-509.672,77.463 -498.901,-158.637 -490.786,-307.587Z" style="fill:#ff9d66;"/><g transform="matrix(2.63733,0.402,-0.402,2.63733,3095.33,-1925.83)"><text x="1044px" y="768px" style="font-family:'Arial-BoldMT', 'Arial', sans-serif;font-weight:700;font-size:21px;fill:#fff;">POVZBUDILO MNE,</text><text x="1045.15px" y="799.404px" style="font-family:'Arial-BoldMT', 'Arial', sans-serif;font-weight:700;font-size:21px;fill:#fff;">KDYŽ JSEM VIDĚL,</text><text x="1064.22px" y="830.808px" style="font-family:'Arial-BoldMT', 'Arial', sans-serif;font-weight:700;font-size:21px;fill:#fff;">ŽE OST<tspan x="1138.5px 1152.11px 1164.93px " y="830.808px 830.808px 830.808px ">ATN</tspan>Í SE</text><text x="1091.82px" y="862.212px" style="font-family:'Arial-BoldMT', 'Arial', sans-serif;font-weight:700;font-size:21px;fill:#fff;">ZLEPŠUJÍ</text></g><path d="M6690.48,1083.77c-33.418,-44.059 -123.026,-8.958 -152.731,18.464c-78.43,72.403 -79.502,126.513 -67.412,-6.795c8.203,-90.442 74.722,-142.313 71.741,-155.504c-86.237,-381.697 281.847,-391.244 477.074,-391.989c658.727,-2.514 377.749,272.4 380.71,408.955c8.477,391.03 -636.438,223.04 -709.382,126.869Z" style="fill:#d2c2dc;"/><g transform="matrix(3.21953,-0.271757,0.271757,3.21953,1848.46,-177.189)"><text x="1466.86px" y="420.756px" style="font-family:'Arial-BoldMT', 'Arial', sans-serif;font-weight:700;font-size:21px;fill:#fff;">SKUPINA<tspan x="1560.6px 1566.43px " y="420.756px 420.756px "> M</tspan>I DALA</text><text x="1462px" y="452.16px" style="font-family:'Arial-BoldMT', 'Arial', sans-serif;font-weight:700;font-size:21px;fill:#fff;">MOŽNOST  ZJISTIT<tspan x="1652.17px " y="452.16px ">,</tspan></text><text x="1462.57px" y="483.564px" style="font-family:'Arial-BoldMT', 'Arial', sans-serif;font-weight:700;font-size:21px;fill:#fff;">JAK SE K DRUHÝM</text><text x="1509.84px" y="514.967px" style="font-family:'Arial-BoldMT', 'Arial', sans-serif;font-weight:700;font-size:21px;fill:#fff;">PŘIBLÍŽIT</text></g><path d="M6733.38,3185.22c-130.385,44.067 -275.07,57.37 -256.112,48.58c223.042,-103.415 -100.825,-138.293 -47.394,-310.66c18.11,-58.421 51.308,-150.576 110.808,-180.49c73.914,-37.162 204.429,11.407 301.044,29.802c465.603,88.649 300.56,236.73 243.093,361.254c-77.744,168.462 -317.811,40.149 -351.439,51.514Z" style="fill:#e6d46b;"/><g transform="matrix(2.63483,0.472535,-0.472535,2.63483,3633.97,377.655)"><text x="1270.9px" y="704px" style="font-family:'Arial-BoldMT', 'Arial', sans-serif;font-weight:700;font-size:21px;fill:#fff;">OST<tspan x="1312.51px 1326.11px 1338.94px " y="704px 704px 704px ">ATN</tspan>Í MI</text><text x="1234.9px" y="735.404px" style="font-family:'Arial-BoldMT', 'Arial', sans-serif;font-weight:700;font-size:21px;fill:#fff;">OTEVŘENĚ ŘEKLI,</text><text x="1264.08px" y="766.808px" style="font-family:'Arial-BoldMT', 'Arial', sans-serif;font-weight:700;font-size:21px;fill:#fff;">CO SI O MNĚ</text><text x="1297.92px" y="798.212px" style="font-family:'Arial-BoldMT', 'Arial', sans-serif;font-weight:700;font-size:21px;fill:#fff;">MYSLÍ</text></g><path d="M5203.14,3947.62c-158.739,289.488 -483.912,325.515 -410.734,294.712c359.476,-151.313 -244.353,-357.683 -377.253,-801.6c-45.044,-150.458 -86.327,-394.367 70.28,-499.526c176.365,-118.427 427.379,-273.769 659.659,-372.89c1119.39,-477.683 1104.3,317.543 1160.1,665.257c75.485,470.403 -1058.23,634.126 -1102.05,714.047Z" style="fill:none;stroke:#000;stroke-width:4.08px;"/></svg>