<?xml version="1.0" encoding="UTF-8" standalone="no"?><!DOCTYPE svg PUBLIC "-//W3C//DTD SVG 1.1//EN" "http://www.w3.org/Graphics/SVG/1.1/DTD/svg11.dtd"><svg width="100%" height="100%" viewBox="0 0 8000 4500" version="1.1" xmlns="http://www.w3.org/2000/svg" xmlns:xlink="http://www.w3.org/1999/xlink" xml:space="preserve" xmlns:serif="http://www.serif.com/" style="fill-rule:evenodd;clip-rule:evenodd;stroke-linecap:round;stroke-linejoin:round;stroke-miterlimit:1.5;"><g><rect x="5546.71" y="224.784" width="387.092" height="84.638"/><path d="M5488.26,243.609l-32.242,-25.988l-30.765,25.988l0,53.313l22.396,0l-0.117,-21.726l17.311,0l0.367,21.726l23.05,0l0,-53.313Z" style="stroke:#000;stroke-width:4.17px;"/><text x="6416.38px" y="290.625px" style="font-family:'ArialMT', 'Arial', sans-serif;font-size:65.63px;">KONT<tspan x="6593.82px 6637.59px " y="290.625px 290.625px ">AK</tspan>TY</text><text x="5600.84px" y="290.609px" style="font-family:'ArialMT', 'Arial', sans-serif;font-size:65.63px;fill:#fff;">TERAPIE</text><rect x="6816.97" y="237.284" width="3.001" height="59.638"/><text x="6867.58px" y="290.609px" style="font-family:'ArialMT', 'Arial', sans-serif;font-size:65.63px;">PRA<tspan x="6997.65px 7041.43px " y="290.609px 290.609px ">VI</tspan>DLA</text><rect x="6365.1" y="237.284" width="3.001" height="59.638"/><text x="5984.93px" y="290.192px" style="font-family:'ArialMT', 'Arial', sans-serif;font-size:65.63px;">TERAPEUT</text><rect x="5930.8" y="237.284" width="3.001" height="59.638"/><text x="7289.6px" y="290.609px" style="font-family:'ArialMT', 'Arial', sans-serif;font-size:65.63px;">LADÍLNA</text><rect x="7238.74" y="237.284" width="3.001" height="59.638"/><rect x="7615.94" y="237.284" width="3.001" height="59.638"/><rect x="5546.71" y="237.284" width="3.001" height="59.638"/></g><path d="M4881.71,1658.59c-288.877,-645.655 -1046.46,-934.88 -1692.12,-646.004c-645.655,288.877 -934.88,1046.46 -646.004,1692.12l2338.12,-1046.11Z" style="fill:#e1c2c2;"/><path d="M2692.53,2635.67c288.876,645.654 1046.46,934.879 1692.12,646.003c645.654,-288.877 934.88,-1046.46 646.003,-1692.12l-2338.12,1046.12Z" style="fill:#ebdb71;"/><circle cx="5072" cy="3143.25" r="475.891" style="stroke:#000;stroke-width:5.21px;"/><path d="M4972.4,2677.82l-1.502,0l0,-171.101l98.736,-83.405l103.474,83.405l0,171.101l-1.502,0c-23.613,-5.037 -47.873,-8.32 -72.636,-9.706l-1.013,-60.022l-55.558,0l0.322,60.157c-23.96,1.457 -47.444,4.691 -70.321,9.571Z" style="stroke:#000;stroke-width:5.21px;"/><text x="4794.83px" y="3239.04px" style="font-family:'ArialMT', 'Arial', sans-serif;font-size:291.916px;fill:#fff;">terapi</text><text x="5525.05px" y="3239.04px" style="font-family:'ArialMT', 'Arial', sans-serif;font-size:291.916px;">e</text><path d="M5701.32,3114.44c232.418,-58.055 464.837,-116.11 697.255,-174.165" style="fill:none;stroke:#000;stroke-width:5.21px;"/><path d="M5701.32,3219.03c232.418,73.214 464.837,146.428 697.255,219.642" style="fill:none;stroke:#000;stroke-width:5.21px;"/><g transform="matrix(3.61159,0,0,3.61159,4162.31,2749.03)"><text x="187.275px" y="269px" style="font-family:'Arial-BoldMT', 'Arial', sans-serif;font-weight:700;font-size:8.972px;">Mgr<tspan x="203.226px " y="269px ">.</tspan></text><text x="207.9px" y="269px" style="font-family:'Arial-BoldMT', 'Arial', sans-serif;font-weight:700;font-size:15.357px;">Jana Eismanová</text></g><g transform="matrix(0.91419,-0.405286,0.405286,0.91419,-760.841,797.323)"><text x="2513.56px" y="2774.08px" style="font-family:'ArialMT', 'Arial', sans-serif;font-size:295.179px;fill:#fff;">INDIVIDUÁLNÍ</text></g><g transform="matrix(0.911036,-0.412328,0.412328,0.911036,-1010.53,1083.3)"><text x="3130.95px" y="3462.1px" style="font-family:'ArialMT', 'Arial', sans-serif;font-size:295.179px;fill:#fff;">SKUPINOVÁ</text></g><path d="M2367.19,2782.86l2833.64,-1267.15" style="fill:none;stroke:#000;stroke-width:4.01px;"/></svg>