<?xml version="1.0" encoding="UTF-8" standalone="no"?>
<!-- Created with Inkscape (http://www.inkscape.org/) -->

<svg
   xmlns:dc="http://purl.org/dc/elements/1.1/"
   xmlns:cc="http://creativecommons.org/ns#"
   xmlns:rdf="http://www.w3.org/1999/02/22-rdf-syntax-ns#"
   xmlns:svg="http://www.w3.org/2000/svg"
   xmlns="http://www.w3.org/2000/svg"
   xmlns:sodipodi="http://sodipodi.sourceforge.net/DTD/sodipodi-0.dtd"
   xmlns:inkscape="http://www.inkscape.org/namespaces/inkscape"
   width="160.20241mm"
   height="203.96031mm"
   viewBox="0 0 160.20241 203.96031"
   version="1.1"
   id="svg8"
   inkscape:version="0.92.3 (2405546, 2018-03-11)"
   sodipodi:docname="b-ladilna.svg">
  <defs
     id="defs2">
    <clipPath
       id="_clip1">
      <path
         id="path4"
         d="M 6848.39,632.592 5419.77,466.667 5208.334,2287.137 6636.954,2453.063 6848.39,632.593 Z"
         inkscape:connector-curvature="0" />
    </clipPath>
  </defs>
  <sodipodi:namedview
     id="base"
     pagecolor="#ffffff"
     bordercolor="#666666"
     borderopacity="1.0"
     inkscape:pageopacity="0.0"
     inkscape:pageshadow="2"
     inkscape:zoom="0.35"
     inkscape:cx="302.7447"
     inkscape:cy="385.4368"
     inkscape:document-units="mm"
     inkscape:current-layer="layer1"
     showgrid="false"
     fit-margin-top="0"
     fit-margin-left="0"
     fit-margin-right="0"
     fit-margin-bottom="0"
     inkscape:window-width="1680"
     inkscape:window-height="1016"
     inkscape:window-x="1920"
     inkscape:window-y="0"
     inkscape:window-maximized="1" />
  <metadata
     id="metadata5">
    <rdf:RDF>
      <cc:Work
         rdf:about="">
        <dc:format>image/svg+xml</dc:format>
        <dc:type
           rdf:resource="http://purl.org/dc/dcmitype/StillImage" />
        <dc:title></dc:title>
      </cc:Work>
    </rdf:RDF>
  </metadata>
  <g
     inkscape:label="Layer 1"
     inkscape:groupmode="layer"
     id="layer1"
     transform="translate(130.37203,-48.365085)">
    <g
       transform="translate(-121.50757,26.313231)"
       id="layer1-5"
       inkscape:label="Layer 1">
      <path
         inkscape:connector-curvature="0"
         id="path864"
         d="m -8.565745,22.057016 a 0.22644598,0.22644598 0 0 0 -0.18085,0.221444 l -0.11787,203.41691 a 0.22644598,0.22644598 0 0 0 0.2266,0.22548 l 159.632235,0.0913 a 0.22644598,0.22644598 0 0 0 0.22569,-0.22465 l 0.11788,-203.416914 a 0.22644598,0.22644598 0 0 0 -0.003,-0.02522 0.22644598,0.22644598 0 0 0 -0.22368,-0.200256 L -8.521115,22.05186 a 0.22644598,0.22644598 0 0 0 -0.0446,0.0052 z"
         style="color:#000000;font-style:normal;font-variant:normal;font-weight:normal;font-stretch:normal;font-size:medium;line-height:normal;font-family:sans-serif;font-variant-ligatures:normal;font-variant-position:normal;font-variant-caps:normal;font-variant-numeric:normal;font-variant-alternates:normal;font-feature-settings:normal;text-indent:0;text-align:start;text-decoration:none;text-decoration-line:none;text-decoration-style:solid;text-decoration-color:#000000;letter-spacing:normal;word-spacing:normal;text-transform:none;writing-mode:lr-tb;direction:ltr;text-orientation:mixed;dominant-baseline:auto;baseline-shift:baseline;text-anchor:start;white-space:normal;shape-padding:0;clip-rule:evenodd;display:inline;overflow:visible;visibility:visible;opacity:1;isolation:auto;mix-blend-mode:normal;color-interpolation:sRGB;color-interpolation-filters:linearRGB;solid-color:#000000;solid-opacity:1;vector-effect:none;fill:#ffffff;fill-opacity:1;fill-rule:evenodd;stroke:none;stroke-width:0.45284668px;stroke-linecap:round;stroke-linejoin:round;stroke-miterlimit:1.5;stroke-dasharray:none;stroke-dashoffset:0;stroke-opacity:1;color-rendering:auto;image-rendering:auto;shape-rendering:auto;text-rendering:auto;enable-background:accumulate" />
      <path
         inkscape:connector-curvature="0"
         id="path2"
         style="clip-rule:evenodd;fill:none;fill-rule:evenodd;stroke-width:0.11099183;stroke-linecap:round;stroke-linejoin:round;stroke-miterlimit:1.5"
         d="M 151.11069,22.370085 -8.520308,22.278324 -8.637243,225.69382 150.99374,225.78569 151.11071,22.370196 Z" />
      <g
         transform="matrix(0.11025806,-0.01274154,0.01274154,0.11025806,-612.03969,40.548335)"
         id="g43"
         clip-path="url(#_clip1)"
         style="clip-rule:evenodd;fill-rule:evenodd;stroke-linecap:round;stroke-linejoin:round;stroke-miterlimit:1.5">
        <path
           inkscape:connector-curvature="0"
           id="path7"
           style="fill:none;stroke:#000000;stroke-width:4.17000008px"
           d="m 6724.31,759.629 -1212.88,-140.868 -177.613,1529.26 1212.88,140.868 z" />
        <path
           inkscape:connector-curvature="0"
           id="path9"
           style="fill:none;stroke:#000000;stroke-width:4.17000008px"
           d="m 5494.05,586.872 -184.232,1586.24 1254.49,145.701 184.232,-1586.24 -1254.49,-145.7 z" />
        <path
           inkscape:connector-curvature="0"
           id="path11"
           style="fill:none;stroke:#000000;stroke-width:4.17000008px"
           d="m 5419.77,466.667 c 24.76,40.068 49.52,80.137 74.281,120.205" />
        <path
           inkscape:connector-curvature="0"
           id="path13"
           style="fill:none;stroke:#000000;stroke-width:4.17000008px"
           d="m 6848.39,632.592 c -33.391,33.314 -66.781,66.629 -100.171,99.944" />
        <path
           inkscape:connector-curvature="0"
           id="path15"
           style="fill:none;stroke:#000000;stroke-width:4.17000008px"
           d="m 6638.59,2439.02 c -24.856,-40.169 -49.711,-80.337 -74.567,-120.506" />
        <path
           inkscape:connector-curvature="0"
           id="path17"
           style="fill:none;stroke:#000000;stroke-width:4.17000008px"
           d="m 5209.96,2273.09 c 33.295,-33.415 66.59,-66.83 99.885,-100.245" />
        <path
           inkscape:connector-curvature="0"
           id="path19"
           d="m 5469.83,484.723 0.154,0.019 0.153,0.031 0.15,0.043 29.407,9.518 0.146,0.053 0.142,0.064 0.137,0.075 0.131,0.085 0.124,0.094 0.116,0.103 0.109,0.112 0.1,0.119 0.091,0.127 0.081,0.133 0.071,0.139 0.06,0.144 0.049,0.147 0.039,0.151 0.026,0.154 0.016,0.155 v 0.156 l -0.01,0.155 -0.019,0.155 -0.031,0.152 -0.043,0.15 -0.053,0.147 -0.064,0.142 -0.075,0.136 -0.085,0.131 -0.094,0.124 -0.103,0.117 -0.112,0.108 -0.119,0.1 -0.127,0.091 -0.133,0.081 -0.139,0.071 -0.143,0.06 -0.148,0.05 -0.151,0.038 -0.154,0.027 -0.155,0.015 -0.156,0.004 -0.155,-0.008 -0.155,-0.02 -0.152,-0.031 -0.15,-0.042 -29.407,-9.518 -0.146,-0.053 -0.142,-0.065 -0.137,-0.074 -0.131,-0.085 -0.124,-0.094 -0.117,-0.104 -0.108,-0.111 -0.1,-0.12 -0.091,-0.126 -0.081,-0.133 -0.071,-0.139 -0.06,-0.144 -0.05,-0.148 -0.038,-0.151 -0.027,-0.153 -0.015,-0.155 v -0.156 l 0.01,-0.155 0.02,-0.155 0.031,-0.153 0.042,-0.15 0.054,-0.146 0.064,-0.142 0.075,-0.137 0.084,-0.13 0.095,-0.124 0.103,-0.117 0.112,-0.109 0.119,-0.1 0.127,-0.09 0.133,-0.082 0.139,-0.07 0.143,-0.061 0.148,-0.049 0.151,-0.038 0.153,-0.027 0.155,-0.016 0.156,-0.003 z" />
        <path
           inkscape:connector-curvature="0"
           id="path21"
           d="m 5496.76,515.313 0.216,0.027 3.928,0.713 3.874,0.711 3.822,0.708 3.778,0.702 3.741,0.694 3.71,0.684 3.686,0.671 1.835,0.329 1.833,0.326 1.829,0.322 1.828,0.317 1.826,0.312 1.827,0.308 1.827,0.301 1.829,0.297 1.831,0.29 1.834,0.284 1.839,0.277 1.843,0.271 1.849,0.264 1.856,0.256 1.863,0.249 1.872,0.241 1.881,0.233 1.896,0.225 0.215,0.037 0.21,0.059 0.202,0.081 0.193,0.102 0.181,0.121 0.168,0.14 0.152,0.156 0.135,0.171 0.116,0.185 0.097,0.195 0.075,0.205 0.054,0.211 0.031,0.216 0.01,0.218 -0.014,0.218 -0.037,0.215 -0.059,0.209 -0.081,0.203 -0.102,0.193 -0.121,0.181 -0.14,0.168 -0.156,0.152 -0.171,0.135 -0.185,0.116 -0.195,0.096 -0.205,0.076 -0.211,0.053 -0.216,0.032 -0.218,0.008 -0.217,-0.014 -1.907,-0.227 -1.901,-0.235 -1.892,-0.244 -1.882,-0.251 -1.874,-0.259 -1.867,-0.266 -1.86,-0.273 -1.855,-0.28 -1.849,-0.287 -1.845,-0.292 -1.842,-0.299 -1.84,-0.303 -1.838,-0.31 -1.838,-0.314 -1.837,-0.318 -1.838,-0.324 -1.84,-0.327 -1.844,-0.331 -3.695,-0.673 -3.716,-0.685 -3.744,-0.694 -3.778,-0.702 -3.818,-0.707 -3.866,-0.71 -3.923,-0.712 -0.213,-0.05 -0.205,-0.072 -0.198,-0.093 -0.186,-0.113 -0.173,-0.133 -0.159,-0.149 -0.142,-0.165 -0.125,-0.18 -0.104,-0.191 -0.085,-0.201 -0.062,-0.209 -0.041,-0.214 -0.018,-0.217 0.01,-0.218 0.028,-0.217 0.05,-0.212 0.072,-0.206 0.093,-0.197 0.113,-0.186 0.132,-0.174 0.15,-0.159 0.165,-0.142 0.179,-0.124 0.191,-0.105 0.202,-0.084 0.208,-0.063 0.215,-0.04 0.217,-0.018 z" />
        <path
           inkscape:connector-curvature="0"
           id="path23"
           d="m 5525.89,555.313 7.695,1.381 7.686,1.372 7.68,1.362 7.673,1.352 7.667,1.342 7.662,1.331 7.658,1.32 7.654,1.309 7.651,1.296 7.649,1.284 3.823,0.638 3.824,0.634 3.823,0.631 3.822,0.627 3.823,0.624 3.823,0.621 3.823,0.617 3.823,0.614 3.823,0.61 3.824,0.607 3.824,0.603 3.824,0.599 3.825,0.595 3.826,0.592 3.826,0.587 3.828,0.584 3.828,0.58 3.829,0.576 3.831,0.571 3.831,0.568 3.833,0.563 3.834,0.56 3.835,0.555 3.837,0.55 3.838,0.546 3.84,0.542 3.842,0.538 3.844,0.533 3.845,0.528 3.848,0.524 3.849,0.519 3.852,0.514 3.854,0.51 3.856,0.504 3.859,0.5 3.861,0.495 3.864,0.49 3.866,0.485 3.87,0.48 3.872,0.475 3.874,0.47 3.878,0.464 3.881,0.46 3.886,0.454 0.425,0.095 0.395,0.182 0.35,0.26 0.287,0.327 0.214,0.38 0.129,0.416 0.041,0.433 -0.051,0.433 -0.139,0.413 -0.222,0.374 -0.295,0.32 -0.356,0.252 -0.4,0.173 -0.427,0.085 -0.435,-0.005 -3.889,-0.454 -3.886,-0.46 -3.884,-0.465 -3.881,-0.471 -3.877,-0.475 -3.875,-0.481 -3.873,-0.486 -3.869,-0.491 -3.866,-0.495 -3.865,-0.501 -3.862,-0.505 -3.859,-0.511 -3.857,-0.515 -3.855,-0.519 -3.852,-0.525 -3.851,-0.529 -3.849,-0.533 -3.846,-0.539 -3.845,-0.542 -3.844,-0.547 -3.842,-0.551 -3.839,-0.556 -3.839,-0.56 -3.837,-0.564 -3.836,-0.568 -3.835,-0.573 -3.834,-0.576 -3.832,-0.581 -3.832,-0.584 -3.83,-0.588 -3.83,-0.592 -3.829,-0.596 -3.829,-0.6 -3.828,-0.604 -3.827,-0.607 -3.828,-0.611 -3.826,-0.614 -3.827,-0.618 -3.826,-0.621 -3.827,-0.625 -3.826,-0.628 -3.826,-0.631 -3.827,-0.635 -3.828,-0.638 -7.654,-1.285 -7.657,-1.298 -7.66,-1.309 -7.664,-1.321 -7.667,-1.332 -7.672,-1.343 -7.678,-1.353 -7.684,-1.363 -7.69,-1.372 -7.697,-1.382 -0.418,-0.121 -0.384,-0.206 -0.333,-0.281 -0.267,-0.344 -0.19,-0.392 -0.104,-0.422 -0.014,-0.436 0.077,-0.428 0.165,-0.404 0.244,-0.36 0.314,-0.302 0.37,-0.229 0.41,-0.148 0.432,-0.059 z" />
        <path
           inkscape:connector-curvature="0"
           id="path25"
           d="m 5265.97,2056.84 0.254,0.034 0.285,0.049 0.284,0.058 0.281,0.067 0.277,0.077 0.274,0.086 0.27,0.096 0.268,0.104 0.263,0.113 0.259,0.122 0.254,0.13 0.251,0.138 0.245,0.145 0.241,0.153 0.237,0.16 0.233,0.168 0.229,0.175 0.223,0.181 0.219,0.187 0.216,0.195 0.21,0.2 0.206,0.205 0.204,0.213 0.197,0.217 0.194,0.221 0.192,0.23 0.188,0.235 0.182,0.238 0.181,0.243 0.176,0.25 0.174,0.254 0.171,0.261 0.166,0.263 0.163,0.267 0.162,0.276 0.158,0.279 0.154,0.281 0.153,0.289 0.149,0.292 0.146,0.296 0.144,0.3 0.142,0.306 0.14,0.311 0.136,0.314 0.134,0.318 0.132,0.323 0.13,0.329 0.126,0.329 0.126,0.335 0.123,0.341 0.12,0.343 0.12,0.353 0.229,0.702 0.223,0.722 0.214,0.739 0.207,0.753 0.2,0.768 0.192,0.783 0.184,0.795 0.178,0.809 0.171,0.823 0.165,0.837 0.157,0.848 0.151,0.86 0.145,0.872 0.139,0.883 0.132,0.894 0.127,0.905 0.121,0.915 0.115,0.925 0.11,0.934 0.104,0.943 0.098,0.952 0.094,0.959 0.088,0.967 0.083,0.974 0.078,0.982 0.073,0.988 0.068,0.994 0.064,0.999 0.059,1.005 0.055,1.01 0.05,1.013 0.046,1.018 0.042,1.021 0.038,1.024 0.033,1.027 0.03,1.029 0.026,1.031 0.022,1.032 0.019,1.033 0.015,1.034 0.011,1.034 0.01,1.034 v 1.032 1.032 l -0.01,2.055 -0.017,2.048 -0.028,2.033 -0.038,2.016 -0.047,1.995 -0.056,1.972 -0.064,1.943 -0.071,1.913 -0.077,1.878 -0.082,1.84 -0.088,1.799 -0.092,1.753 -0.095,1.704 -0.098,1.654 -0.1,1.597 -0.101,1.538 -0.102,1.475 -0.101,1.41 -0.101,1.34 -0.098,1.267 -0.096,1.19 -0.094,1.111 -0.089,1.029 -0.164,1.789 -0.14,1.415 -0.06,0.563 -0.05,0.452 -0.048,0.269 -0.083,0.259 -0.115,0.247 -0.147,0.229 -0.176,0.209 -0.201,0.183 -0.224,0.156 -0.242,0.125 -0.256,0.093 -0.267,0.058 -0.271,0.023 -0.272,-0.012 -0.269,-0.048 -0.259,-0.083 -0.247,-0.115 -0.229,-0.147 -0.209,-0.176 -0.183,-0.201 -0.156,-0.224 -0.125,-0.242 -0.093,-0.256 -0.058,-0.266 -0.023,-0.272 0.012,-0.272 0.049,-0.439 0.057,-0.537 0.137,-1.386 0.162,-1.765 0.088,-1.013 0.092,-1.098 0.095,-1.178 0.098,-1.255 0.1,-1.327 0.1,-1.397 0.1,-1.463 0.101,-1.525 0.099,-1.584 0.097,-1.638 0.094,-1.691 0.091,-1.739 0.088,-1.783 0.082,-1.824 0.076,-1.862 0.07,-1.895 0.063,-1.926 0.055,-1.952 0.047,-1.976 0.038,-1.995 0.027,-2.011 0.017,-2.024 0.01,-2.035 v -1.017 l -0.01,-1.02 -0.01,-1.019 -0.012,-1.02 -0.015,-1.02 -0.018,-1.018 -0.022,-1.018 -0.025,-1.015 -0.03,-1.014 -0.032,-1.01 -0.038,-1.007 -0.041,-1.004 -0.045,-0.999 -0.049,-0.996 -0.054,-0.99 -0.058,-0.985 -0.062,-0.979 -0.067,-0.972 -0.071,-0.966 -0.077,-0.958 -0.081,-0.951 -0.086,-0.942 -0.091,-0.935 -0.095,-0.924 -0.101,-0.915 -0.106,-0.905 -0.112,-0.895 -0.116,-0.883 -0.123,-0.872 -0.127,-0.86 -0.133,-0.847 -0.139,-0.835 -0.144,-0.821 -0.15,-0.807 -0.156,-0.793 -0.161,-0.777 -0.168,-0.763 -0.173,-0.747 -0.179,-0.729 -0.185,-0.712 -0.191,-0.696 -0.197,-0.676 -0.203,-0.659 -0.21,-0.644 -0.104,-0.308 -0.108,-0.307 -0.109,-0.301 -0.111,-0.297 -0.113,-0.294 -0.113,-0.285 -0.114,-0.28 -0.117,-0.277 -0.117,-0.271 -0.119,-0.263 -0.119,-0.258 -0.122,-0.254 -0.123,-0.249 -0.123,-0.241 -0.125,-0.235 -0.126,-0.231 -0.126,-0.223 -0.127,-0.215 -0.13,-0.213 -0.13,-0.207 -0.129,-0.197 -0.132,-0.192 -0.131,-0.186 -0.133,-0.18 -0.135,-0.175 -0.132,-0.166 -0.133,-0.159 -0.136,-0.155 -0.135,-0.148 -0.134,-0.14 -0.136,-0.136 -0.135,-0.128 -0.134,-0.121 -0.137,-0.117 -0.135,-0.11 -0.134,-0.102 -0.134,-0.097 -0.136,-0.091 -0.135,-0.086 -0.136,-0.081 -0.134,-0.074 -0.135,-0.068 -0.136,-0.064 -0.135,-0.059 -0.136,-0.053 -0.138,-0.048 -0.139,-0.044 -0.139,-0.039 -0.141,-0.034 -0.144,-0.029 -0.144,-0.024 -0.182,-0.025 -0.267,-0.053 -0.258,-0.088 -0.244,-0.121 -0.227,-0.152 -0.204,-0.18 -0.179,-0.206 -0.151,-0.227 -0.12,-0.244 -0.088,-0.258 -0.052,-0.268 -0.017,-0.272 0.018,-0.272 0.054,-0.267 0.088,-0.258 0.121,-0.244 0.152,-0.226 0.18,-0.205 0.205,-0.179 0.227,-0.151 0.244,-0.12 0.259,-0.087 0.267,-0.053 0.272,-0.017 z" />
        <path
           inkscape:connector-curvature="0"
           id="path27"
           d="m 5237.83,2114.6 0.239,0.038 0.233,0.065 0.225,0.092 0.211,0.118 0.197,0.141 0.179,0.163 0.159,0.183 0.267,0.346 0.276,0.375 0.269,0.385 0.263,0.394 0.256,0.403 0.251,0.411 0.245,0.421 0.239,0.429 0.233,0.436 0.228,0.445 0.222,0.453 0.217,0.461 0.212,0.469 0.207,0.476 0.203,0.483 0.197,0.491 0.193,0.497 0.188,0.505 0.184,0.511 0.18,0.52 0.175,0.525 0.17,0.531 0.167,0.537 0.163,0.544 0.159,0.55 0.155,0.556 0.151,0.562 0.147,0.567 0.144,0.573 0.14,0.578 0.136,0.583 0.133,0.589 0.13,0.594 0.126,0.598 0.122,0.602 0.12,0.608 0.116,0.612 0.114,0.615 0.11,0.621 0.107,0.624 0.104,0.627 0.101,0.631 0.098,0.636 0.096,0.641 0.182,1.282 0.172,1.298 0.161,1.307 0.152,1.317 0.142,1.324 0.133,1.331 0.124,1.337 0.116,1.34 0.107,1.343 0.101,1.345 0.092,1.346 0.086,1.345 0.079,1.342 0.074,1.339 0.067,1.335 0.062,1.328 0.057,1.321 0.053,1.313 0.048,1.303 0.044,1.293 0.077,2.544 0.066,2.486 0.057,2.416 0.1,4.58 0.048,2.142 0.051,2.03 0.057,1.909 0.031,0.902 0.033,0.868 0.037,0.831 0.039,0.793 0.043,0.754 0.047,0.722 10e-4,0.242 -0.026,0.241 -0.055,0.236 -0.081,0.228 -0.107,0.217 -0.132,0.204 -0.155,0.186 -0.175,0.168 -0.193,0.146 -0.209,0.122 -0.222,0.097 -0.232,0.071 -0.238,0.044 -0.242,0.016 -0.242,-0.013 -0.239,-0.04 -0.232,-0.068 -0.223,-0.095 -0.211,-0.12 -0.195,-0.143 -0.177,-0.165 -0.157,-0.185 -0.135,-0.201 -0.11,-0.216 -0.084,-0.227 -0.058,-0.236 -0.029,-0.24 -0.048,-0.739 -0.045,-0.784 -0.041,-0.82 -0.037,-0.854 -0.034,-0.888 -0.032,-0.921 -0.057,-1.927 -0.052,-2.046 -0.048,-2.149 -0.1,-4.577 -0.057,-2.407 -0.065,-2.471 -0.077,-2.529 -0.043,-1.28 -0.048,-1.291 -0.052,-1.299 -0.056,-1.307 -0.061,-1.313 -0.067,-1.318 -0.072,-1.321 -0.078,-1.324 -0.085,-1.324 -0.091,-1.324 -0.099,-1.321 -0.106,-1.319 -0.113,-1.315 -0.121,-1.308 -0.13,-1.302 -0.139,-1.293 -0.148,-1.283 -0.157,-1.273 -0.167,-1.259 -0.177,-1.249 -0.092,-0.615 -0.095,-0.613 -0.098,-0.609 -0.1,-0.606 -0.103,-0.6 -0.105,-0.596 -0.109,-0.591 -0.111,-0.585 -0.115,-0.581 -0.117,-0.576 -0.12,-0.57 -0.123,-0.564 -0.127,-0.558 -0.129,-0.552 -0.132,-0.546 -0.135,-0.54 -0.139,-0.533 -0.141,-0.526 -0.145,-0.519 -0.148,-0.512 -0.151,-0.504 -0.154,-0.497 -0.157,-0.49 -0.161,-0.482 -0.163,-0.472 -0.168,-0.465 -0.17,-0.457 -0.174,-0.448 -0.176,-0.439 -0.18,-0.43 -0.183,-0.421 -0.186,-0.411 -0.19,-0.402 -0.192,-0.392 -0.196,-0.382 -0.199,-0.372 -0.201,-0.362 -0.204,-0.351 -0.208,-0.34 -0.21,-0.331 -0.212,-0.318 -0.216,-0.308 -0.218,-0.297 -0.236,-0.306 -0.136,-0.2 -0.113,-0.214 -0.087,-0.226 -0.06,-0.235 -0.032,-0.24 v -0.243 l 0.024,-0.241 0.051,-0.236 0.079,-0.229 0.105,-0.219 0.13,-0.204 0.152,-0.189 0.173,-0.169 0.192,-0.148 0.208,-0.125 0.221,-0.1 0.23,-0.073 0.238,-0.047 0.242,-0.018 z" />
        <path
           inkscape:connector-curvature="0"
           id="path29"
           d="m 5277.28,2250.39 3.78,0.922 3.776,0.912 3.774,0.904 3.771,0.896 3.77,0.888 3.768,0.879 3.765,0.871 3.765,0.863 3.763,0.855 3.761,0.847 3.759,0.839 3.759,0.831 3.758,0.823 3.756,0.815 3.756,0.807 3.755,0.799 3.754,0.791 3.754,0.783 3.753,0.776 3.754,0.767 3.752,0.76 3.753,0.752 3.753,0.744 3.753,0.737 3.754,0.729 3.753,0.721 3.755,0.714 3.755,0.706 3.756,0.699 3.756,0.691 3.758,0.683 3.758,0.676 3.76,0.669 3.762,0.661 3.762,0.654 3.764,0.647 3.766,0.639 3.768,0.631 3.77,0.625 3.771,0.617 3.774,0.61 3.776,0.603 3.779,0.596 3.781,0.588 3.783,0.581 3.787,0.575 3.789,0.567 3.792,0.56 3.795,0.553 3.798,0.546 3.802,0.54 3.805,0.532 3.808,0.525 3.812,0.519 3.816,0.511 3.82,0.505 3.824,0.498 3.828,0.492 3.832,0.484 3.836,0.478 3.841,0.471 3.846,0.465 3.85,0.458 3.857,0.451 0.425,0.096 0.396,0.182 0.349,0.26 0.288,0.327 0.213,0.38 0.13,0.415 0.04,0.434 -0.051,0.433 -0.139,0.412 -0.222,0.375 -0.296,0.32 -0.355,0.252 -0.4,0.172 -0.427,0.086 h -0.435 l -3.861,-0.452 -3.858,-0.459 -3.853,-0.466 -3.849,-0.472 -3.844,-0.479 -3.84,-0.485 -3.836,-0.492 -3.831,-0.499 -3.828,-0.506 -3.824,-0.513 -3.819,-0.52 -3.817,-0.526 -3.812,-0.534 -3.81,-0.54 -3.806,-0.547 -3.803,-0.554 -3.8,-0.562 -3.797,-0.568 -3.795,-0.576 -3.791,-0.582 -3.789,-0.59 -3.786,-0.597 -3.784,-0.604 -3.782,-0.611 -3.78,-0.619 -3.778,-0.626 -3.776,-0.633 -3.774,-0.64 -3.772,-0.648 -3.771,-0.655 -3.769,-0.663 -3.768,-0.67 -3.767,-0.677 -3.766,-0.685 -3.764,-0.693 -3.764,-0.7 -3.763,-0.708 -3.763,-0.715 -3.761,-0.723 -3.762,-0.73 -3.762,-0.739 -3.76,-0.746 -3.761,-0.753 -3.761,-0.762 -3.762,-0.769 -3.761,-0.777 -3.762,-0.785 -3.762,-0.793 -3.763,-0.801 -3.764,-0.808 -3.764,-0.817 -3.766,-0.824 -3.767,-0.833 -3.768,-0.841 -3.769,-0.849 -3.771,-0.856 -3.772,-0.865 -3.773,-0.873 -3.776,-0.882 -3.778,-0.889 -3.779,-0.898 -3.782,-0.906 -3.783,-0.914 -3.784,-0.922 -0.41,-0.147 -0.371,-0.229 -0.315,-0.301 -0.245,-0.36 -0.166,-0.403 -0.078,-0.428 0.013,-0.435 0.104,-0.424 0.188,-0.392 0.267,-0.345 0.332,-0.281 0.383,-0.207 0.418,-0.122 0.435,-0.033 z" />
        <path
           inkscape:connector-curvature="0"
           id="path31"
           d="m 5320.72,2218.84 2.415,0.725 2.417,0.732 2.42,0.737 2.419,0.744 2.421,0.748 2.421,0.754 2.422,0.759 2.423,0.763 2.424,0.766 2.425,0.771 4.851,1.551 4.855,1.562 4.859,1.571 9.725,3.155 4.868,1.58 4.87,1.578 4.874,1.573 4.876,1.565 4.88,1.556 2.44,0.773 2.441,0.77 2.442,0.766 2.443,0.762 2.444,0.757 2.444,0.752 2.445,0.748 2.446,0.742 2.446,0.736 2.447,0.73 2.448,0.724 2.448,0.717 2.449,0.71 2.449,0.703 2.451,0.694 2.451,0.687 2.451,0.679 2.452,0.67 2.453,0.66 2.453,0.652 2.454,0.641 2.455,0.632 2.455,0.622 2.455,0.61 2.456,0.6 2.458,0.589 2.457,0.577 2.458,0.565 2.46,0.553 1.228,0.271 1.229,0.268 1.23,0.266 1.23,0.262 1.23,0.258 1.23,0.256 1.23,0.252 1.231,0.248 1.231,0.245 1.23,0.242 1.226,0.237 1.226,0.234 2.456,0.459 2.454,0.447 2.455,0.436 2.456,0.425 2.456,0.415 2.456,0.405 2.457,0.396 2.456,0.389 2.457,0.38 2.457,0.374 2.457,0.367 2.457,0.361 2.456,0.356 2.456,0.351 2.456,0.347 4.912,0.685 4.909,0.676 9.81,1.345 4.899,0.679 2.449,0.343 2.447,0.346 2.446,0.351 2.445,0.354 2.444,0.36 2.442,0.366 2.441,0.372 2.438,0.379 2.438,0.387 2.436,0.395 2.434,0.404 2.433,0.413 2.43,0.423 2.429,0.434 2.427,0.445 2.423,0.457 1.212,0.234 1.211,0.236 1.21,0.24 1.211,0.243 1.208,0.247 1.209,0.25 1.209,0.253 1.207,0.258 1.207,0.261 1.206,0.265 1.206,0.269 1.204,0.272 1.205,0.277 1.203,0.281 1.203,0.286 1.202,0.289 1.202,0.294 1.201,0.299 1.2,0.302 1.2,0.308 1.199,0.312 1.197,0.317 1.198,0.322 1.196,0.326 1.197,0.332 1.194,0.337 1.194,0.342 1.194,0.347 1.193,0.352 1.192,0.358 1.19,0.364 1.191,0.368 1.189,0.375 1.188,0.38 1.188,0.386 1.187,0.392 1.186,0.397 1.185,0.404 1.184,0.409 1.183,0.416 1.182,0.423 1.182,0.428 1.18,0.435 1.174,0.439 0.446,0.232 0.377,0.331 0.288,0.412 0.18,0.469 0.062,0.498 -0.058,0.499 -0.176,0.471 -0.284,0.414 -0.374,0.335 -0.444,0.235 -0.487,0.123 h -0.502 l -0.488,-0.118 -1.164,-0.436 -1.161,-0.427 -1.162,-0.422 -1.162,-0.415 -1.164,-0.409 -1.165,-0.403 -1.166,-0.398 -1.168,-0.391 -1.168,-0.386 -1.169,-0.379 -1.17,-0.375 -1.171,-0.368 -1.173,-0.364 -1.174,-0.358 -1.174,-0.352 -1.176,-0.348 -1.176,-0.342 -1.177,-0.337 -1.179,-0.332 -1.179,-0.327 -1.181,-0.323 -1.181,-0.317 -1.182,-0.313 -1.183,-0.308 -1.185,-0.304 -1.185,-0.299 -1.186,-0.295 -1.187,-0.29 -1.188,-0.286 -1.189,-0.282 -1.19,-0.278 -1.191,-0.273 -1.191,-0.27 -1.192,-0.266 -1.194,-0.262 -1.194,-0.259 -1.195,-0.254 -1.196,-0.251 -1.197,-0.248 -1.197,-0.244 -1.199,-0.241 -1.198,-0.237 -1.201,-0.235 -1.199,-0.231 -2.405,-0.453 -2.408,-0.442 -2.41,-0.43 -2.413,-0.421 -2.415,-0.41 -2.419,-0.401 -2.421,-0.393 -2.425,-0.384 -2.426,-0.378 -2.43,-0.37 -2.432,-0.364 -2.434,-0.359 -2.436,-0.353 -2.439,-0.35 -2.441,-0.345 -2.443,-0.343 -4.893,-0.678 -9.808,-1.344 -4.914,-0.677 -4.919,-0.686 -2.463,-0.348 -2.464,-0.352 -2.464,-0.357 -2.466,-0.363 -2.467,-0.368 -2.468,-0.376 -2.469,-0.382 -2.47,-0.39 -2.47,-0.399 -2.471,-0.408 -2.473,-0.417 -2.472,-0.428 -2.473,-0.439 -2.474,-0.451 -2.472,-0.462 -1.238,-0.236 -1.238,-0.239 -1.242,-0.244 -1.241,-0.248 -1.242,-0.25 -1.241,-0.255 -1.241,-0.257 -1.241,-0.261 -1.24,-0.264 -1.24,-0.268 -1.24,-0.27 -1.241,-0.275 -2.477,-0.556 -2.477,-0.57 -2.476,-0.581 -2.475,-0.593 -2.474,-0.604 -2.472,-0.615 -2.472,-0.626 -2.47,-0.636 -2.469,-0.645 -2.469,-0.655 -2.467,-0.665 -2.466,-0.674 -2.464,-0.682 -2.464,-0.69 -2.462,-0.698 -2.462,-0.706 -2.46,-0.714 -2.459,-0.72 -2.457,-0.727 -2.457,-0.732 -2.456,-0.74 -2.454,-0.744 -2.453,-0.75 -2.452,-0.755 -2.451,-0.76 -2.449,-0.764 -2.449,-0.768 -2.447,-0.771 -2.446,-0.775 -4.888,-1.558 -4.883,-1.568 -4.879,-1.575 -4.874,-1.578 -4.868,-1.58 -9.723,-3.155 -4.854,-1.569 -4.848,-1.56 -4.844,-1.549 -2.419,-0.769 -2.419,-0.765 -2.417,-0.761 -2.416,-0.757 -2.414,-0.751 -2.413,-0.747 -2.412,-0.741 -2.411,-0.735 -2.409,-0.729 -2.41,-0.723 -0.46,-0.201 -0.399,-0.306 -0.314,-0.392 -0.21,-0.455 -0.096,-0.493 0.025,-0.502 0.144,-0.481 0.255,-0.433 0.352,-0.358 0.427,-0.265 0.478,-0.154 0.501,-0.036 z" />
        <path
           inkscape:connector-curvature="0"
           id="path33"
           d="m 6768.91,1017.01 0.399,0.087 0.375,0.164 0.335,0.233 0.283,0.294 0.221,0.344 0.149,0.38 0.072,0.402 -0.01,0.408 -0.179,1.522 -0.181,1.521 -0.185,1.518 -0.187,1.515 -0.383,3.018 -0.394,3.007 -0.404,2.995 -0.414,2.984 -0.423,2.972 -0.433,2.962 -0.442,2.953 -0.451,2.942 -0.459,2.934 -0.466,2.926 -0.474,2.917 -0.481,2.91 -0.488,2.903 -0.494,2.897 -0.5,2.89 -0.506,2.886 -0.511,2.88 -0.516,2.875 -0.521,2.872 -0.524,2.869 -0.529,2.865 -0.532,2.863 -1.073,5.72 -1.083,5.716 -1.089,5.716 -1.093,5.72 -1.093,5.728 -1.093,5.741 -1.086,5.757 -0.541,2.885 -0.538,2.891 -0.536,2.897 -0.533,2.903 -0.529,2.911 -0.525,2.918 -0.522,2.926 -0.517,2.934 -0.512,2.944 -0.507,2.953 -0.501,2.964 -0.495,2.973 -0.489,2.985 -0.484,2.997 -0.475,3.008 -0.468,3.021 -0.461,3.034 -0.452,3.048 -0.445,3.062 -0.435,3.076 -0.426,3.092 -0.417,3.107 -0.407,3.124 -0.2,1.567 -0.197,1.572 -0.194,1.576 -0.192,1.581 -0.189,1.585 -0.186,1.585 -0.026,0.234 -0.023,0.241 -0.046,0.555 -0.043,0.613 -0.041,0.668 -0.079,1.483 -0.085,1.628 -0.047,0.858 -0.053,0.88 -0.059,0.895 -0.067,0.907 -0.075,0.914 -0.087,0.912 -0.048,0.462 -0.052,0.455 -0.054,0.454 -0.059,0.451 -0.061,0.45 -0.067,0.446 -0.07,0.441 -0.075,0.438 -0.081,0.433 -0.085,0.427 -0.091,0.423 -0.096,0.415 -0.102,0.408 -0.11,0.404 -0.116,0.395 -0.124,0.388 -0.132,0.38 -0.142,0.374 -0.15,0.363 -0.162,0.356 -0.17,0.341 -0.098,0.18 -0.094,0.165 -0.099,0.166 -0.106,0.168 -0.108,0.161 -0.11,0.155 -0.117,0.155 -0.124,0.156 -0.13,0.152 -0.133,0.145 -0.139,0.142 -0.144,0.137 -0.153,0.135 -0.161,0.13 -0.165,0.123 -0.173,0.118 -0.18,0.111 -0.187,0.103 -0.194,0.095 -0.199,0.086 -0.205,0.077 -0.209,0.066 -0.213,0.056 -0.217,0.046 -0.22,0.034 -0.222,0.023 -0.223,0.012 h -0.222 l -0.223,-0.01 -0.174,-0.016 -0.401,-0.077 -0.378,-0.154 -0.341,-0.225 -0.291,-0.287 -0.229,-0.338 -0.158,-0.377 -0.082,-0.4 v -0.408 l 0.078,-0.401 0.154,-0.378 0.224,-0.341 0.287,-0.291 0.339,-0.229 0.376,-0.158 0.4,-0.082 h 0.409 l 0.076,0.01 0.024,10e-4 h 0.018 0.016 0.011 l 0.01,-10e-4 h 0.01 0.01 0.01 0.01 0.01 l 0.012,-0.01 0.015,-0.01 0.018,-0.011 0.019,-0.013 0.026,-0.019 0.026,-0.021 0.029,-0.026 0.034,-0.033 0.037,-0.037 0.04,-0.044 0.039,-0.045 0.04,-0.051 0.045,-0.059 0.048,-0.068 0.047,-0.071 0.046,-0.072 0.049,-0.082 0.051,-0.089 0.045,-0.084 0.105,-0.208 0.1,-0.222 0.1,-0.242 0.098,-0.257 0.096,-0.276 0.093,-0.293 0.091,-0.307 0.086,-0.32 0.084,-0.336 0.081,-0.348 0.077,-0.356 0.073,-0.37 0.071,-0.378 0.066,-0.386 0.063,-0.397 0.06,-0.402 0.056,-0.409 0.054,-0.416 0.051,-0.42 0.048,-0.425 0.044,-0.424 0.082,-0.867 0.072,-0.87 0.065,-0.872 0.057,-0.867 0.051,-0.857 0.047,-0.842 0.084,-1.624 0.08,-1.503 0.043,-0.701 0.046,-0.659 0.051,-0.61 0.029,-0.298 0.03,-0.275 0.188,-1.603 0.19,-1.594 0.193,-1.589 0.195,-1.584 0.198,-1.58 0.201,-1.577 0.409,-3.138 0.419,-3.123 0.428,-3.106 0.438,-3.091 0.446,-3.076 0.455,-3.061 0.462,-3.048 0.47,-3.033 0.478,-3.021 0.485,-3.008 0.491,-2.996 0.497,-2.984 0.503,-2.974 0.508,-2.962 0.514,-2.953 0.518,-2.943 0.523,-2.934 0.527,-2.925 0.53,-2.918 0.534,-2.909 0.537,-2.903 0.539,-2.895 0.542,-2.891 1.088,-5.762 1.093,-5.745 1.094,-5.73 1.092,-5.719 1.089,-5.713 1.081,-5.71 1.072,-5.713 0.531,-2.857 0.528,-2.86 0.523,-2.861 0.519,-2.865 0.515,-2.868 0.509,-2.872 0.505,-2.877 0.498,-2.881 0.493,-2.887 0.486,-2.892 0.479,-2.899 0.472,-2.905 0.465,-2.914 0.457,-2.921 0.448,-2.929 0.44,-2.938 0.431,-2.948 0.421,-2.958 0.412,-2.968 0.402,-2.979 0.392,-2.99 0.381,-3.004 0.186,-1.505 0.184,-1.508 0.18,-1.513 0.178,-1.518 0.087,-0.399 0.164,-0.374 0.233,-0.336 0.294,-0.283 0.344,-0.22 0.38,-0.149 0.402,-0.073 z" />
        <path
           inkscape:connector-curvature="0"
           id="path35"
           d="m 6679.04,1528.33 0.398,0.092 0.373,0.167 0.332,0.237 0.28,0.298 0.217,0.346 0.144,0.382 0.068,0.403 0.121,1.776 0.114,1.777 0.108,1.775 0.101,1.773 0.095,1.77 0.088,1.768 0.082,1.766 0.076,1.763 0.07,1.761 0.064,1.76 0.057,1.757 0.052,1.755 0.045,1.752 0.04,1.751 0.034,1.749 0.028,1.747 0.023,1.744 0.017,1.743 0.012,1.74 0.01,1.739 v 1.738 1.735 l -0.011,1.733 -0.015,1.732 -0.02,1.73 -0.025,1.728 -0.03,1.727 -0.036,1.725 -0.04,1.723 -0.045,1.721 -0.05,1.72 -0.054,1.719 -0.06,1.717 -0.063,1.716 -0.068,1.714 -0.073,1.712 -0.076,1.711 -0.082,1.71 -0.085,1.709 -0.089,1.707 -0.094,1.706 -0.097,1.705 -0.102,1.703 -0.105,1.702 -0.109,1.702 -0.114,1.7 -0.116,1.699 -0.121,1.698 -0.124,1.697 -0.127,1.695 -0.131,1.695 -0.134,1.694 -0.138,1.693 -0.141,1.692 -0.143,1.691 -0.147,1.691 -0.304,3.378 -0.314,3.375 -0.326,3.373 -0.336,3.37 -0.347,3.368 -0.356,3.366 -0.365,3.363 -0.374,3.363 -0.381,3.361 -0.39,3.36 -0.395,3.359 -0.403,3.359 -0.408,3.358 -0.413,3.358 -0.419,3.358 -0.423,3.359 -0.426,3.359 -0.43,3.36 -0.868,6.723 -0.874,6.73 -0.877,6.737 -0.876,6.748 -0.87,6.759 -0.432,3.385 -0.429,3.388 -0.425,3.393 -0.422,3.396 -0.416,3.401 -0.412,3.406 -0.406,3.41 -0.4,3.418 -0.087,0.399 -0.164,0.374 -0.233,0.336 -0.294,0.283 -0.343,0.221 -0.381,0.149 -0.401,0.072 -0.409,-0.01 -0.399,-0.087 -0.374,-0.163 -0.336,-0.234 -0.283,-0.294 -0.221,-0.343 -0.149,-0.38 -0.072,-0.402 0.01,-0.409 0.401,-3.422 0.407,-3.418 0.413,-3.412 0.417,-3.408 0.422,-3.402 0.426,-3.397 0.43,-3.393 0.432,-3.389 0.871,-6.765 0.876,-6.75 0.877,-6.738 0.874,-6.727 0.867,-6.719 0.43,-3.356 0.426,-3.355 0.422,-3.353 0.418,-3.353 0.412,-3.352 0.408,-3.351 0.402,-3.351 0.394,-3.351 0.388,-3.352 0.381,-3.351 0.372,-3.352 0.364,-3.354 0.355,-3.354 0.345,-3.355 0.335,-3.358 0.325,-3.359 0.313,-3.361 0.302,-3.364 0.146,-1.682 0.143,-1.683 0.14,-1.684 0.138,-1.686 0.133,-1.685 0.13,-1.686 0.127,-1.688 0.124,-1.687 0.119,-1.689 0.116,-1.69 0.113,-1.691 0.108,-1.691 0.105,-1.693 0.101,-1.694 0.097,-1.695 0.093,-1.696 0.089,-1.697 0.085,-1.698 0.081,-1.7 0.075,-1.7 0.072,-1.702 0.068,-1.703 0.063,-1.705 0.059,-1.706 0.054,-1.707 0.05,-1.708 0.044,-1.71 0.04,-1.712 0.036,-1.713 0.029,-1.714 0.026,-1.716 0.02,-1.718 0.015,-1.719 0.01,-1.721 0.01,-1.722 v -1.724 l -0.01,-1.726 -0.012,-1.728 -0.017,-1.73 -0.022,-1.731 -0.028,-1.733 -0.034,-1.735 -0.039,-1.737 -0.045,-1.739 -0.051,-1.741 -0.057,-1.743 -0.063,-1.744 -0.07,-1.747 -0.075,-1.75 -0.082,-1.751 -0.087,-1.753 -0.094,-1.756 -0.101,-1.758 -0.107,-1.76 -0.113,-1.762 -0.12,-1.769 0.012,-0.408 0.092,-0.398 0.168,-0.372 0.237,-0.333 0.297,-0.28 0.346,-0.216 0.382,-0.145 0.403,-0.067 z" />
        <path
           inkscape:connector-curvature="0"
           id="path37"
           d="m 6646.64,2150.07 0.33,0.096 0.31,0.149 0.282,0.198 0.245,0.242 0.202,0.279 0.153,0.308 0.1,0.329 0.045,0.341 -0.012,0.344 -0.152,1.289 -0.154,1.287 -0.158,1.282 -0.161,1.276 -0.164,1.272 -0.166,1.267 -0.169,1.262 -0.172,1.258 -0.175,1.253 -0.177,1.25 -0.362,2.484 -0.371,2.468 -0.381,2.453 -0.389,2.438 -0.397,2.425 -0.405,2.411 -0.412,2.399 -0.419,2.388 -0.426,2.377 -0.432,2.368 -0.436,2.358 -0.442,2.351 -0.447,2.344 -0.45,2.337 -0.454,2.332 -0.457,2.327 -0.46,2.324 -0.925,4.638 -1.864,9.269 -0.931,4.644 -0.926,4.66 -0.459,2.337 -0.456,2.344 -0.454,2.352 -0.449,2.359 -0.446,2.368 -0.441,2.379 -0.436,2.388 -0.431,2.4 -0.424,2.413 -0.419,2.426 -0.411,2.441 -0.405,2.455 -0.396,2.471 -0.389,2.487 -0.38,2.505 -0.371,2.526 -0.181,1.267 -0.18,1.274 -0.177,1.279 -0.175,1.285 -0.172,1.289 -0.169,1.294 -0.166,1.301 -0.164,1.306 -0.161,1.311 -0.158,1.317 -0.155,1.323 -0.152,1.33 -0.15,1.335 -0.145,1.342 -0.144,1.348 -0.139,1.354 -0.137,1.361 -0.133,1.367 -0.13,1.375 -0.126,1.381 -0.123,1.388 -0.119,1.395 -0.115,1.403 -0.113,1.409 -0.108,1.417 -0.104,1.425 -0.101,1.433 -0.097,1.439 -0.092,1.448 -0.089,1.457 -0.085,1.464 -0.081,1.475 -0.047,0.34 -0.103,0.329 -0.155,0.307 -0.204,0.277 -0.246,0.24 -0.283,0.196 -0.311,0.147 -0.331,0.094 -0.342,0.038 -0.343,-0.019 -0.336,-0.075 -0.319,-0.129 -0.293,-0.18 -0.26,-0.226 -0.219,-0.265 -0.172,-0.298 -0.121,-0.323 -0.066,-0.337 -0.01,-0.344 0.081,-1.482 0.085,-1.477 0.09,-1.468 0.093,-1.461 0.098,-1.453 0.102,-1.445 0.105,-1.437 0.109,-1.43 0.114,-1.423 0.116,-1.414 0.12,-1.408 0.125,-1.4 0.127,-1.394 0.131,-1.386 0.134,-1.38 0.138,-1.372 0.14,-1.367 0.145,-1.36 0.147,-1.353 0.15,-1.347 0.154,-1.34 0.156,-1.334 0.16,-1.329 0.162,-1.323 0.165,-1.316 0.168,-1.311 0.171,-1.306 0.173,-1.3 0.176,-1.294 0.178,-1.289 0.181,-1.284 0.184,-1.28 0.373,-2.542 0.383,-2.524 0.391,-2.505 0.4,-2.488 0.407,-2.472 0.414,-2.455 0.421,-2.441 0.427,-2.426 0.433,-2.414 0.438,-2.401 0.443,-2.389 0.448,-2.378 0.451,-2.369 0.455,-2.36 0.458,-2.35 0.461,-2.345 0.927,-4.668 0.932,-4.649 1.863,-9.267 0.924,-4.632 0.459,-2.318 0.456,-2.321 0.453,-2.324 0.448,-2.329 0.445,-2.335 0.44,-2.34 0.434,-2.347 0.43,-2.356 0.423,-2.363 0.417,-2.374 0.409,-2.384 0.403,-2.395 0.394,-2.408 0.386,-2.421 0.378,-2.434 0.369,-2.449 0.358,-2.467 0.176,-1.237 0.173,-1.242 0.171,-1.247 0.167,-1.252 0.165,-1.256 0.162,-1.261 0.16,-1.266 0.157,-1.27 0.153,-1.275 0.151,-1.284 0.068,-0.337 0.123,-0.322 0.174,-0.297 0.221,-0.264 0.261,-0.224 0.294,-0.178 0.32,-0.127 0.336,-0.073 0.344,-0.017 z" />
        <path
           inkscape:connector-curvature="0"
           id="path39"
           d="m 6614.13,2192.06 0.23,0.04 0.225,0.066 0.215,0.09 0.204,0.113 0.19,0.136 0.174,0.156 0.155,0.175 0.135,0.191 0.112,0.205 0.089,0.216 0.063,0.225 0.039,0.23 0.012,0.234 -0.014,0.233 -7.692,66.234 -0.04,0.23 -0.066,0.224 -0.09,0.216 -0.114,0.204 -0.136,0.19 -0.156,0.173 -0.175,0.155 -0.191,0.135 -0.204,0.112 -0.217,0.089 -0.224,0.064 -0.231,0.038 -0.233,0.013 -0.233,-0.014 -0.23,-0.04 -0.225,-0.066 -0.215,-0.09 -0.204,-0.114 -0.19,-0.135 -0.174,-0.157 -0.155,-0.174 -0.135,-0.191 -0.112,-0.205 -0.089,-0.216 -0.064,-0.225 -0.038,-0.231 -0.012,-0.233 0.014,-0.233 7.692,-66.234 0.04,-0.23 0.066,-0.224 0.09,-0.216 0.114,-0.204 0.135,-0.19 0.157,-0.174 0.174,-0.155 0.191,-0.134 0.205,-0.113 0.216,-0.088 0.225,-0.064 0.231,-0.038 0.233,-0.013 z" />
        <path
           inkscape:connector-curvature="0"
           id="path41"
           d="m 6627.63,1998.36 0.3,0.082 0.285,0.126 0.263,0.167 0.235,0.204 0.202,0.237 0.165,0.264 0.123,0.286 0.079,0.301 0.034,0.31 -0.013,0.311 -0.225,1.912 -0.229,1.914 -0.232,1.914 -0.238,1.914 -0.24,1.913 -0.246,1.913 -0.248,1.912 -0.252,1.912 -0.254,1.912 -0.259,1.913 -0.526,3.822 -0.536,3.823 -0.547,3.823 -0.556,3.823 -0.563,3.823 -0.57,3.825 -0.577,3.825 -0.58,3.827 -0.584,3.829 -1.175,7.663 -1.176,7.675 -0.585,3.841 -0.583,3.845 -0.578,3.848 -0.574,3.853 -0.568,3.857 -0.559,3.861 -0.552,3.867 -0.542,3.871 -0.531,3.878 -0.262,1.94 -0.258,1.942 -0.255,1.943 -0.252,1.945 -0.249,1.947 -0.245,1.948 -0.241,1.95 -0.238,1.952 -0.233,1.953 -0.229,1.957 -0.059,0.306 -0.104,0.293 -0.147,0.275 -0.186,0.25 -0.221,0.219 -0.251,0.184 -0.276,0.144 -0.295,0.102 -0.306,0.056 -0.311,0.01 -0.309,-0.036 -0.301,-0.082 -0.284,-0.125 -0.263,-0.167 -0.236,-0.204 -0.202,-0.237 -0.164,-0.264 -0.124,-0.286 -0.079,-0.301 -0.033,-0.31 0.013,-0.311 0.229,-1.962 0.235,-1.963 0.239,-1.96 0.242,-1.958 0.246,-1.957 0.249,-1.954 0.253,-1.952 0.256,-1.951 0.26,-1.949 0.262,-1.948 0.533,-3.889 0.544,-3.883 0.553,-3.876 0.561,-3.87 0.568,-3.865 0.575,-3.859 0.579,-3.854 0.583,-3.849 0.586,-3.845 1.176,-7.676 1.175,-7.662 0.584,-3.825 0.579,-3.823 0.576,-3.821 0.57,-3.818 0.562,-3.816 0.554,-3.814 0.546,-3.813 0.534,-3.811 0.524,-3.812 0.258,-1.904 0.254,-1.905 0.251,-1.905 0.247,-1.905 0.244,-1.905 0.24,-1.905 0.236,-1.905 0.232,-1.905 0.228,-1.905 0.223,-1.907 0.06,-0.306 0.104,-0.293 0.146,-0.275 0.186,-0.25 0.222,-0.219 0.251,-0.184 0.276,-0.144 0.294,-0.102 0.306,-0.056 0.312,-0.01 z" />
      </g>
      <path
         inkscape:connector-curvature="0"
         id="path45"
         d="m -8.565743,22.05701 a 0.22644598,0.22644598 0 0 0 -0.180854,0.221444 L -8.864462,225.69538 a 0.22644598,0.22644598 0 0 0 0.226602,0.22548 l 159.63222,0.0913 a 0.22644598,0.22644598 0 0 0 0.2257,-0.22465 l 0.11787,-203.41693 a 0.22644598,0.22644598 0 0 0 -0.003,-0.02522 0.22644598,0.22644598 0 0 0 -0.22368,-0.200256 L -8.521119,22.051854 a 0.22644598,0.22644598 0 0 0 -0.04462,0.0052 z m 0.272011,0.4483 159.176262,0.09288 -0.11533,202.96245 -159.178204,-0.0926 z"
         style="color:#000000;font-style:normal;font-variant:normal;font-weight:normal;font-stretch:normal;font-size:medium;line-height:normal;font-family:sans-serif;font-variant-ligatures:normal;font-variant-position:normal;font-variant-caps:normal;font-variant-numeric:normal;font-variant-alternates:normal;font-feature-settings:normal;text-indent:0;text-align:start;text-decoration:none;text-decoration-line:none;text-decoration-style:solid;text-decoration-color:#000000;letter-spacing:normal;word-spacing:normal;text-transform:none;writing-mode:lr-tb;direction:ltr;text-orientation:mixed;dominant-baseline:auto;baseline-shift:baseline;text-anchor:start;white-space:normal;shape-padding:0;clip-rule:evenodd;display:inline;overflow:visible;visibility:visible;opacity:1;isolation:auto;mix-blend-mode:normal;color-interpolation:sRGB;color-interpolation-filters:linearRGB;solid-color:#000000;solid-opacity:1;vector-effect:none;fill:#000000;fill-opacity:1;fill-rule:evenodd;stroke:none;stroke-width:0.45284668px;stroke-linecap:round;stroke-linejoin:round;stroke-miterlimit:1.5;stroke-dasharray:none;stroke-dashoffset:0;stroke-opacity:1;color-rendering:auto;image-rendering:auto;shape-rendering:auto;text-rendering:auto;enable-background:accumulate" />
    </g>
  </g>
</svg>
