<?xml version="1.0" encoding="UTF-8" standalone="no"?>
<svg
   xmlns:dc="http://purl.org/dc/elements/1.1/"
   xmlns:cc="http://creativecommons.org/ns#"
   xmlns:rdf="http://www.w3.org/1999/02/22-rdf-syntax-ns#"
   xmlns:svg="http://www.w3.org/2000/svg"
   xmlns="http://www.w3.org/2000/svg"
   xmlns:sodipodi="http://sodipodi.sourceforge.net/DTD/sodipodi-0.dtd"
   xmlns:inkscape="http://www.inkscape.org/namespaces/inkscape"
   width="573.26025"
   height="536.86163"
   viewBox="0 0 573.26025 536.86164"
   version="1.1"
   xml:space="preserve"
   style="clip-rule:evenodd;fill-rule:evenodd;stroke-linecap:round;stroke-linejoin:round;stroke-miterlimit:1.5"
   id="svg640"
   sodipodi:docname="terapie-skupinova.svg"
   inkscape:version="0.92.2 (5c3e80d, 2017-08-06)"><metadata
     id="metadata646"><rdf:RDF><cc:Work
         rdf:about=""><dc:format>image/svg+xml</dc:format><dc:type
           rdf:resource="http://purl.org/dc/dcmitype/StillImage" /><dc:title /></cc:Work></rdf:RDF></metadata><defs
     id="defs644" /><sodipodi:namedview
     pagecolor="#ffffff"
     bordercolor="#666666"
     borderopacity="1"
     objecttolerance="10"
     gridtolerance="10"
     guidetolerance="10"
     inkscape:pageopacity="0"
     inkscape:pageshadow="2"
     inkscape:window-width="1920"
     inkscape:window-height="1016"
     id="namedview642"
     showgrid="false"
     inkscape:zoom="0.46527626"
     inkscape:cx="253.60668"
     inkscape:cy="-53.255151"
     inkscape:window-x="1920"
     inkscape:window-y="168"
     inkscape:window-maximized="1"
     inkscape:current-layer="svg640" /><g
     id="g562"
     transform="matrix(0.20322321,0,0,0.19607174,-557.78439,-162.54784)"><path
       d="m 3747.37,968.087 c -127.811,14.306 -228.59,51.156 -243.472,156.014 -16.031,75.364 4.24,132.268 58.6,167.566 -28.306,-44.208 -29.534,-91.67 25,-145.834 129.289,-92.925 168.366,-142.554 159.872,-177.746 z"
       style="fill:#deac2d"
       id="path2"
       inkscape:connector-curvature="0" /><path
       d="m 4008.64,1018.87 c -46.96,-47.696 -134.751,-63.767 -260.156,-50.707 -1.524,17.581 38.755,34.775 120.351,51.588 98.057,22.749 139.156,73.329 151.655,137.884 2.307,18.773 2.91,37.608 2.651,56.475 36.916,-77.339 28.348,-141.323 -14.501,-195.24 z"
       style="fill:#deac2d"
       id="path4"
       inkscape:connector-curvature="0" /><g
       id="g548"><path
         d="m 3945.94,2626.37 c 5.609,-0.598 19.01,0.299 23.431,-7.584"
         style="fill:none;stroke:#000000;stroke-width:4.07999992px"
         id="path6"
         inkscape:connector-curvature="0" /><path
         d="m 3945.09,2608.6 c 3.741,-3.359 6.687,-7.194 4.966,-13.824"
         style="fill:none;stroke:#000000;stroke-width:4.07999992px"
         id="path8"
         inkscape:connector-curvature="0" /><g
         id="g546"><g
           id="g90"><path
             d="m 4117.86,1484.38 c 32.417,48.731 87.501,85.72 95.988,107.886 6.733,17.585 -33.012,32.532 -39.05,40.822 -1.835,2.519 5.061,6.742 2.825,8.913 -3.001,2.913 -14.884,5.718 -20.828,8.563 -12.455,5.96 -64.386,37.247 -27.487,58.737 29.554,17.212 34.476,-31.525 44.963,-40.734 5.785,-5.08 13.51,-13.6 17.959,-14.52 4.096,-0.846 5.664,11.836 8.739,9.001 9.994,-9.216 31.887,-31.265 51.227,-64.299 10.87,-18.567 -69.85,-152.218 -97.979,-172.974 -26.477,-19.537 -100.841,-13.326 -129.783,-22.627 -17.454,-5.609 -43.866,-33.181 -43.866,-33.181 -59.101,-99.521 57.543,-105.22 65.599,-235.605 12.142,-196.51 -229.091,-172.456 -319.899,-164.44 -90.807,8.017 -237.631,45.452 -224.948,212.54 18.75,247.002 362.784,36.169 405.246,192.322 3.913,14.392 12.234,31.255 5.254,44.436 -12.17,22.985 -71.328,61.508 -78.275,93.47 -20.169,92.788 -19.702,186.402 -5.765,189.178 33.281,6.63 78.637,14.968 94.391,16.187 2.948,0.229 -2.603,-7.745 0.132,-8.869 3.471,-1.428 13.835,-0.422 20.696,0.307 26.967,2.864 51.211,40.947 73.695,15.88 20.251,-22.578 -9.905,-39.993 -61.605,-33.444 -6.915,0.876 -24.219,4.569 -29.61,2.517 -4.697,-1.787 2.066,-13.348 -2.737,-14.826 -11.775,-3.625 -64.633,0.842 -67.914,-6.923 -10.282,-24.332 42.413,-107.976 46.587,-150.128"
             style="fill:none;stroke:#000000;stroke-width:4.17000008px"
             id="path10"
             inkscape:connector-curvature="0" /><path
             d="m 3889.08,1608.15 c 19.173,-17.301 39.829,-19.454 43.07,-18.769"
             style="fill:none;stroke:#000000;stroke-width:4.17000008px"
             id="path12"
             inkscape:connector-curvature="0" /><path
             d="m 4132.35,1503.83 c 0,0 8.071,18.384 -0.812,54.683 -10.575,43.217 -4.745,113.172 -4.745,113.172"
             style="fill:none;stroke:#000000;stroke-width:4.17000008px"
             id="path14"
             inkscape:connector-curvature="0" /><path
             d="m 3893.6,1553.1 c 0,0 35.743,31.292 48.06,46.957 21.424,27.247 37.004,57.975 45.53,90.947"
             style="fill:none;stroke:#000000;stroke-width:4.17000008px"
             id="path16"
             inkscape:connector-curvature="0" /><path
             d="m 3976.04,1724.71 c 0,0 -60.526,43.999 -54.139,70.226 6.388,26.226 92.467,87.132 92.467,87.132 l -6.265,23.565 c 0,0 -34.078,19.096 5.738,11.914 5.063,-0.913 7.873,-11.842 12.09,-17.564 5.03,-6.825 18.01,-17.969 18.09,-23.389 0.081,-5.421 -17.608,-9.133 -17.608,-9.133 l -46.12,-80.53 c 0,0 61.553,-47.035 89.4,-45.989 38.714,1.454 70.431,36.532 70.431,36.532 l -33.619,73.432 c 0,0 -6.391,2.26 -12.002,11.651 -4.493,7.518 18.334,21.071 26.574,38.838 3.348,7.219 19.443,1.509 23.868,0.355 17.525,-4.57 -14.563,-15.003 -14.563,-15.003 l 0.395,-26.609 c 0,0 53.328,-57.176 53.696,-82.006 0.369,-24.829 -51.485,-66.971 -51.485,-66.971"
             style="fill:none;stroke:#000000;stroke-width:4.17000008px"
             id="path18"
             inkscape:connector-curvature="0" /><path
             d="m 3746.42,968.166 c 18.251,113.774 -285.172,171.262 -180.464,326.288"
             style="fill:none;stroke:#000000;stroke-width:4.17000008px"
             id="path20"
             inkscape:connector-curvature="0" /><path
             d="m 3747.37,968.087 c 11.703,65.762 297.488,13.1 274.27,248.65"
             style="fill:none;stroke:#000000;stroke-width:4.17000008px"
             id="path22"
             inkscape:connector-curvature="0" /><path
             d="m 3709.55,1099.79 c -55.739,-30.203 -107.709,84.161 -107.709,84.161"
             style="fill:none;stroke:#000000;stroke-width:4.17000008px"
             id="path24"
             inkscape:connector-curvature="0" /><path
             d="m 3800.45,1066.42 c 20.301,-60.058 136.198,-11.603 136.198,-11.603"
             style="fill:none;stroke:#000000;stroke-width:4.17000008px"
             id="path26"
             inkscape:connector-curvature="0" /><path
             d="m 3777.62,1096.01 c 29.283,29.193 134.972,20.853 122.064,47.091 -6.595,13.405 -47.475,39.491 -64.276,44.324 -12.69,3.651 -60.387,10.886 -36.529,-15.328"
             style="fill:none;stroke:#000000;stroke-width:4.17000008px"
             id="path28"
             inkscape:connector-curvature="0" /><path
             d="m 3686.67,1146.77 c 7.343,0.109 13.226,5.497 13.129,12.024 -0.097,6.527 -6.137,11.738 -13.48,11.629 -7.343,-0.109 -13.226,-5.497 -13.129,-12.024 0.097,-6.527 6.137,-11.738 13.48,-11.629 z"
             style="fill:#ffffff;stroke:#000000;stroke-width:4.17000008px"
             id="path30"
             inkscape:connector-curvature="0" /><path
             d="m 3868.43,1068.52 c 7.343,0.109 13.226,5.497 13.129,12.024 -0.097,6.527 -6.137,11.738 -13.48,11.629 -7.343,-0.109 -13.226,-5.497 -13.129,-12.024 0.097,-6.527 6.137,-11.738 13.48,-11.629 z"
             style="fill:#ffffff;stroke:#000000;stroke-width:4.17000008px"
             id="path32"
             inkscape:connector-curvature="0" /><path
             d="m 4020.48,1704.11 c 0,0 31.079,7.687 46.689,7.226 38.914,-1.15 49.539,-16.161 49.539,-16.161"
             style="fill:none;stroke:#000000;stroke-width:4.17000008px"
             id="path34"
             inkscape:connector-curvature="0" /><path
             d="m 3726.66,1142.61 c -2.053,-11.074 -26.454,-26.055 -39.633,-19.492 -15.393,7.664 -52.724,65.481 -52.724,65.481 0,0 49.652,8.63 65.045,0.965 15.393,-7.664 29.366,-35.879 27.312,-46.954 z"
             style="fill:none;stroke:#000000;stroke-width:4.17000008px"
             id="path36"
             inkscape:connector-curvature="0" /><path
             d="m 3832.07,1088.14 c -3.219,-9.188 8.643,-30.908 21.346,-31.649 14.838,-0.867 67.678,26.451 67.678,26.451 0,0 -33.527,27.808 -48.365,28.674 -14.837,0.867 -37.441,-14.288 -40.659,-23.476 z"
             style="fill:none;stroke:#000000;stroke-width:4.17000008px"
             id="path38"
             inkscape:connector-curvature="0" /><path
             d="m 3763.36,1260.28 c -6.01,-5.522 65.076,-40.403 83.148,-37.274 6.741,1.167 19.542,6.268 19.542,6.268 0,0 0.972,-9.954 0.22,-14.846 -2.141,-13.936 74.432,-24.688 77.148,-17.737 2.717,6.951 -36.149,50.25 -60.848,59.444 -28.531,10.62 -113.2,9.666 -119.21,4.145 z"
             style="fill:none;stroke:#000000;stroke-width:4.17000008px"
             id="path40"
             inkscape:connector-curvature="0" /><path
             d="m 3943.55,1197.56 c 0,0 -44.17,34.955 -69.576,43.665 -30.092,10.316 -110.976,18.232 -110.976,18.232"
             style="fill:none;stroke:#000000;stroke-width:4.17000008px"
             id="path42"
             inkscape:connector-curvature="0" /><path
             d="m 3816.56,1311.35 c 36.889,-5.46 110.402,1.362 116.303,-1.232 7.147,-3.141 30.33,-34.66 57.88,-49.739"
             style="fill:none;stroke:#000000;stroke-width:4.17000008px"
             id="path44"
             inkscape:connector-curvature="0" /><path
             d="m 3822.42,1578.9 -45.671,-25.653 16.689,-14.539 30.584,27.815 c 0,0 -26.794,-23.171 -25.341,-24.956 11.667,-14.333 33.982,-24.79 33.982,-24.79"
             style="fill:none;stroke:#000000;stroke-width:4.17000008px"
             id="path46"
             inkscape:connector-curvature="0" /><path
             d="m 3791.38,1537.23 c 2.324,2.246 0.693,7.707 -3.638,12.189 -4.332,4.481 -9.735,6.295 -12.059,4.049 -2.323,-2.246 -0.693,-7.707 3.639,-12.189 4.332,-4.481 9.735,-6.295 12.058,-4.049 z"
             style="fill:#ffffff;stroke:#000000;stroke-width:4.17000008px"
             id="path48"
             inkscape:connector-curvature="0" /><path
             d="m 4188.1,1466.27 20.458,-43.25 -17.437,-1.338 -10.332,34.34 c 0,0 10.121,-29.609 8.358,-30.055 -14.157,-3.578 -33.234,0.325 -33.234,0.325"
             style="fill:none;stroke:#000000;stroke-width:4.17000008px"
             id="path50"
             inkscape:connector-curvature="0" /><path
             d="m 4191.73,1419.77 c -0.412,2.519 3.198,5.211 8.058,6.007 4.859,0.796 9.14,-0.604 9.553,-3.123 0.412,-2.52 -3.198,-5.212 -8.058,-6.008 -4.86,-0.796 -9.14,0.604 -9.553,3.124 z"
             style="fill:#ffffff;stroke:#000000;stroke-width:4.17000008px"
             id="path52"
             inkscape:connector-curvature="0" /><path
             d="m 3875.47,1597.82 c 0,0 80.893,60.439 111.725,93.186"
             style="fill:none;stroke:#000000;stroke-width:4.17000008px"
             id="path54"
             inkscape:connector-curvature="0" /><path
             d="m 3979.58,1690.89 c -38.21,-39.476 -106.127,-82.975 -106.127,-82.975"
             style="fill:none;stroke:#000000;stroke-width:4.17000008px"
             id="path56"
             inkscape:connector-curvature="0" /><path
             d="m 4154.4,1528.2 c 0,0 -18.167,24.38 -26.631,51.624"
             style="fill:none;stroke:#000000;stroke-width:4.17000008px"
             id="path58"
             inkscape:connector-curvature="0" /><path
             d="m 4144.07,1517.3 c 0,0 -7.495,23.034 -12.526,41.216"
             style="fill:none;stroke:#000000;stroke-width:4.17000008px"
             id="path60"
             inkscape:connector-curvature="0" /><path
             d="m 4012.92,1764.55 c 0,0 23.124,15.066 65.109,12.002 33.504,-2.445 45.103,-14.104 45.103,-14.104"
             style="fill:none;stroke:#000000;stroke-width:4.17000008px"
             id="path62"
             inkscape:connector-curvature="0" /><path
             d="m 4012.92,1764.55 c 0,0 23.124,15.066 65.109,12.002 33.504,-2.445 45.103,-14.104 45.103,-14.104"
             style="fill:none;stroke:#000000;stroke-width:4.17000008px"
             id="path64"
             inkscape:connector-curvature="0" /><path
             d="m 4006.86,1768.41 c 0,0 29.016,23.038 71.001,19.974 33.504,-2.445 50.596,-21.744 50.596,-21.744"
             style="fill:none;stroke:#000000;stroke-width:4.17000008px"
             id="path66"
             inkscape:connector-curvature="0" /><path
             d="m 4032.14,1781.75 c 0,0 -8.125,49.101 -21.839,57.584"
             style="fill:none;stroke:#000000;stroke-width:4.17000008px"
             id="path68"
             inkscape:connector-curvature="0" /><path
             d="m 4020.07,1776.48 c 0.938,9.182 5.96,23.205 -13.664,53.303 -0.357,0.547 -0.486,1.897 -0.486,1.897"
             style="fill:none;stroke:#000000;stroke-width:4.17000008px"
             id="path70"
             inkscape:connector-curvature="0" /><path
             d="m 3987.54,1862 c 0,0 -8.9,10.472 -14.343,4.677 -2.944,-3.134 7.275,-10.252 7.275,-10.252"
             style="fill:none;stroke:#000000;stroke-width:4.17000008px"
             id="path72"
             inkscape:connector-curvature="0" /><path
             d="m 3927.15,1809.81 c 0,0 -4.375,6.842 -3.502,7.54 4.333,3.466 8.453,-3.024 8.453,-3.024"
             style="fill:none;stroke:#000000;stroke-width:4.17000008px"
             id="path74"
             inkscape:connector-curvature="0" /><path
             d="m 4103.05,1782.81 c 0,0 3.075,25.503 17.031,38.439"
             style="fill:none;stroke:#000000;stroke-width:4.17000008px"
             id="path76"
             inkscape:connector-curvature="0" /><path
             d="m 4111.88,1780.8 c 0,0 -2.424,23.845 12.399,31.275"
             style="fill:none;stroke:#000000;stroke-width:4.17000008px"
             id="path78"
             inkscape:connector-curvature="0" /><path
             d="m 4151.07,1836.43 c 0.922,3.211 9.003,7.655 8.711,10.895 -1.177,13.045 -13.299,-3.126 -13.299,-3.126"
             style="fill:none;stroke:#000000;stroke-width:4.17000008px"
             id="path80"
             inkscape:connector-curvature="0" /><path
             d="m 4021.03,1823.24 c 0,0 13.563,-23.472 43.396,-26.841 33.454,-3.777 47.025,13.232 47.025,13.232 l 3.899,6.259 c 0,0 -6.53,14.434 -6.876,-0.102 -0.136,-5.687 -15.521,-20.35 -44.121,-14.464 -26.945,5.545 -39.425,24.955 -38.826,27.332 3.601,14.275 -10.346,5.76 -10.346,5.76 z"
             style="fill:none;stroke:#000000;stroke-width:4.17000008px"
             id="path82"
             inkscape:connector-curvature="0" /><path
             d="m 4128.43,1768.43 c 0,0 -1.792,13.024 9.021,14.884"
             style="fill:none;stroke:#000000;stroke-width:4.17000008px"
             id="path84"
             inkscape:connector-curvature="0" /><path
             d="m 4176.49,1800.42 c 0,0 7.703,0.638 7.61,2.679 -0.341,7.48 -10.584,2.391 -10.584,2.391"
             style="fill:none;stroke:#000000;stroke-width:4.17000008px"
             id="path86"
             inkscape:connector-curvature="0" /><path
             d="m 4122.47,1771.3 c 0,0 3.336,17.071 10.223,18.302"
             style="fill:none;stroke:#000000;stroke-width:4.17000008px"
             id="path88"
             inkscape:connector-curvature="0" /></g><g
           id="g146"><path
             d="m 4499.11,1679 c -53.501,23.73 -111.108,62 -130.163,76.151 -15.117,11.227 10.404,45.166 11.051,55.4 0.197,3.111 -8.377,3.135 -7.166,6.007 1.647,3.906 13.56,11.841 17.05,17.431 7.312,11.713 36.151,60.742 -6.19,55.21 -29.177,-3.812 -3.319,-39.188 -17.637,-55.981 -4.995,-5.858 -7.977,-12.428 -12.013,-14.333 -3.782,-1.784 -11.13,6.95 -12.204,2.908 -3.489,-13.14 -10.134,-43.493 -8.73,-81.746 0.789,-21.501 162.49,-114.217 197.363,-116.64 32.827,-2.281 66.75,31.719 91.064,37.169 17.89,4.011 36.857,-0.798 54.82,-4.464 140.541,-28.687 7.896,-119.667 71.054,-234.019 95.188,-172.344 285.854,-22.615 358.183,32.872 72.329,55.487 176.145,165.853 75.792,300.05 -148.347,198.379 -325.55,-164.125 -445.164,-55.134 -11.025,10.046 -25.727,19.984 -28.276,34.68 -2.955,17.03 21.835,36.803 10.549,67.503 -32.765,89.123 -139.636,197.232 -152.886,192.097 -31.642,-12.262 -69.705,-40.565 -88.34,-36.984 -2.904,0.558 6.353,-5.14 4.648,-7.556 -2.164,-3.067 -11.449,-7.779 -17.63,-10.845 -24.293,-12.051 -58.988,-2.997 -64.513,-36.214 -4.975,-29.918 23.62,-18.36 63.735,14.906 5.365,4.448 17.986,16.85 23.636,18.011 4.923,1.012 5.418,-12.373 10.265,-11.043 11.882,3.258 54.09,35.389 61.025,30.596 21.732,-15.016 83.747,-89.865 102.841,-127.675"
             style="fill:none;stroke:#000000;stroke-width:4.17000008px"
             id="path92"
             inkscape:connector-curvature="0" /><path
             d="m 4611.57,1898.85 c -6.897,-24.887 -8.974,-30.445 -12.076,-31.606"
             style="fill:none;stroke:#000000;stroke-width:4.17000008px"
             id="path94"
             inkscape:connector-curvature="0" /><path
             d="m 4472.52,1691.74 c 0,0 -16.244,22.267 -24.734,42.475 -10.397,24.747 -56.716,98.049 -56.716,98.049"
             style="fill:none;stroke:#000000;stroke-width:4.17000008px"
             id="path96"
             inkscape:connector-curvature="0" /><path
             d="m 4645.36,1853.67 c 0,0 -40.827,10.865 -59.626,17.475 -32.698,11.499 -62.333,29.07 -87.219,52.32"
             style="fill:none;stroke:#000000;stroke-width:4.17000008px"
             id="path98"
             inkscape:connector-curvature="0" /><path
             d="m 4492.63,1959.1 c 0,0 24.676,68.409 5.214,87.113 -19.462,18.704 -142.021,23.727 -142.021,23.727 l 9.884,23.437 c 0,0 21.03,35.949 -8.716,8.525 -3.783,-3.487 -10.915,-14.236 -15.5,-19.95 -3.902,-4.861 -11.621,-10.6 -12.013,-14.333 -1.468,-13.979 20.919,-11.432 20.919,-11.432 l 102.467,-48.058 c 0,0 -26.707,-72.718 -50.768,-86.776 -33.45,-19.544 -70.649,-20.595 -70.649,-20.595 l -7.584,55.02 -3.444,24.985 c 0,0 4.18,5.336 3.877,16.272 -0.243,8.755 -26.777,7.944 -43.264,18.517 -6.698,4.295 -15.278,-1.023 -18.393,-4.372 -12.337,-13.259 18.4,-12.982 18.4,-12.982 4.693,-7.422 9.33,-15.009 13.944,-22.667 0,0 -14.325,-76.862 -1.314,-98.013 13.011,-21.151 75.905,-14.218 75.905,-14.218"
             style="fill:none;stroke:#000000;stroke-width:4.17000008px"
             id="path100"
             inkscape:connector-curvature="0" /><path
             d="m 4660.64,1904.78 66.103,1.039 -6.283,-21.223 -53.421,9.781 c 0,0 47.731,-7.897 47.463,-10.182 -2.155,-18.354 -15.376,-39.152 -15.376,-39.152"
             style="fill:none;stroke:#000000;stroke-width:4.17000008px"
             id="path102"
             inkscape:connector-curvature="0" /><path
             d="m 4722.99,1884.45 c -3.166,0.649 -4.72,6.133 -3.469,12.238 1.251,6.106 4.837,10.536 8.003,9.888 3.166,-0.649 4.72,-6.133 3.469,-12.239 -1.251,-6.105 -4.837,-10.536 -8.003,-9.887 z"
             style="fill:#ffffff;stroke:#000000;stroke-width:4.17000008px"
             id="path104"
             inkscape:connector-curvature="0" /><path
             d="m 4440.27,1662.53 -7.365,-55.296 17.267,2.773 1.32,44.457 c 0,0 -2.221,-39.807 -0.403,-39.828 14.601,-0.171 45.277,19.882 45.277,19.882"
             style="fill:none;stroke:#000000;stroke-width:4.17000008px"
             id="path106"
             inkscape:connector-curvature="0" /><path
             d="m 4450.03,1608.01 c -0.188,2.547 -4.327,4.321 -9.238,3.959 -4.911,-0.362 -8.746,-2.723 -8.559,-5.27 0.188,-2.546 4.327,-4.32 9.239,-3.958 4.911,0.362 8.746,2.723 8.558,5.269 z"
             style="fill:#ffffff;stroke:#000000;stroke-width:4.17000008px"
             id="path108"
             inkscape:connector-curvature="0" /><path
             d="m 4607.17,1904.21 c 0,0 -65.072,8.163 -108.661,19.255"
             style="fill:none;stroke:#000000;stroke-width:4.17000008px"
             id="path110"
             inkscape:connector-curvature="0" /><path
             d="m 4505,1927.46 c 53.424,-12.812 93.634,-13.102 93.634,-13.102"
             style="fill:none;stroke:#000000;stroke-width:4.17000008px"
             id="path112"
             inkscape:connector-curvature="0" /><path
             d="m 4442.91,1707.79 c 0,0 3.307,17.018 -4.167,44.55"
             style="fill:none;stroke:#000000;stroke-width:4.17000008px"
             id="path114"
             inkscape:connector-curvature="0" /><path
             d="m 4454.23,1701.45 c 0,0 -0.941,14.723 -6.451,32.766"
             style="fill:none;stroke:#000000;stroke-width:4.17000008px"
             id="path116"
             inkscape:connector-curvature="0" /><path
             d="m 4437.33,1971.73 c 0,0 -27.598,0.308 -61.384,-24.804 -26.961,-20.04 -30.494,-36.103 -30.494,-36.103"
             style="fill:none;stroke:#000000;stroke-width:4.17000008px"
             id="path118"
             inkscape:connector-curvature="0" /><path
             d="m 4437.33,1971.73 c 0,0 -27.598,0.308 -61.384,-24.804 -26.961,-20.04 -30.494,-36.103 -30.494,-36.103"
             style="fill:none;stroke:#000000;stroke-width:4.17000008px"
             id="path120"
             inkscape:connector-curvature="0" /><path
             d="m 4440.39,1978.24 c 0,0 -36.847,3.872 -70.633,-21.24 -26.962,-20.04 -31.03,-45.496 -31.03,-45.496"
             style="fill:none;stroke:#000000;stroke-width:4.17000008px"
             id="path122"
             inkscape:connector-curvature="0" /><path
             d="m 4411.89,1975.93 c 0,0 -19.511,42.751 -12.489,57.268"
             style="fill:none;stroke:#000000;stroke-width:4.17000008px"
             id="path124"
             inkscape:connector-curvature="0" /><path
             d="m 4424.91,1977.96 c -5.717,7.246 -17.479,16.384 -17.068,52.312 0.01,0.653 -0.01,-1.027 -0.01,-1.027"
             style="fill:none;stroke:#000000;stroke-width:4.17000008px"
             id="path126"
             inkscape:connector-curvature="0" /><path
             d="m 4406.48,2067.58 c 0,0 1.892,13.612 9.595,11.643 4.166,-1.065 -0.639,-12.555 -0.639,-12.555"
             style="fill:none;stroke:#000000;stroke-width:4.17000008px"
             id="path128"
             inkscape:connector-curvature="0" /><path
             d="m 4485.43,2055.94 c 0,0 0.021,8.121 -1.089,8.241 -5.517,0.6 -5.512,-7.087 -5.512,-7.087"
             style="fill:none;stroke:#000000;stroke-width:4.17000008px"
             id="path130"
             inkscape:connector-curvature="0" /><path
             d="m 4351.48,1938.78 c 0,0 -9.366,16.929 -28.083,20.358"
             style="fill:none;stroke:#000000;stroke-width:4.17000008px"
             id="path132"
             inkscape:connector-curvature="0" /><path
             d="m 4345.11,1932.35 c 0,0 -3.899,18.95 -20.394,17.266"
             style="fill:none;stroke:#000000;stroke-width:4.17000008px"
             id="path134"
             inkscape:connector-curvature="0" /><path
             d="m 4290.27,1956.3 c -2.495,2.219 -11.642,1.667 -13.148,4.55 -7.225,13.829 13.381,9.552 15.345,6.002"
             style="fill:none;stroke:#000000;stroke-width:4.17000008px"
             id="path136"
             inkscape:connector-curvature="0" /><path
             d="m 4399,2016.9 c 0,0 1.149,-27.085 -22.22,-45.934 -26.204,-21.136 -46.782,-14.065 -46.782,-14.065 l -6.648,3.191 c 0,0 -2.235,15.684 5.857,3.603 3.166,-4.727 24.016,-8.845 44.993,11.466 19.763,19.137 19.88,42.213 18.1,43.896 -10.698,10.115 5.639,10.413 5.639,10.413 z"
             style="fill:none;stroke:#000000;stroke-width:4.17000008px"
             id="path138"
             inkscape:connector-curvature="0" /><path
             d="m 4337.78,1913.03 c 0,0 -3.011,9.87 -9.076,7.607"
             style="fill:none;stroke:#000000;stroke-width:4.17000008px"
             id="path140"
             inkscape:connector-curvature="0" /><path
             d="m 4288.22,1912.26 c 0,0 -8.42,-1.031 -9.436,0.741 -3.725,6.495 7.648,7.696 7.648,7.696"
             style="fill:none;stroke:#000000;stroke-width:4.17000008px"
             id="path142"
             inkscape:connector-curvature="0" /><path
             d="m 4341.68,1922.03 c 0,0 -7.738,10.227 -14.21,7.571"
             style="fill:none;stroke:#000000;stroke-width:4.17000008px"
             id="path144"
             inkscape:connector-curvature="0" /></g><g
           id="g238"><path
             d="m 3603.42,2515.79 c 9.142,-56.529 27.413,-105.386 43.189,-131.274 10.605,-17.402 18.061,95.536 22.99,114.521 0.554,2.134 6.142,-2.768 6.583,-0.609 1.475,7.207 -5.123,49.847 2.263,43.851 10.241,-8.316 16.559,49.544 41.776,15.816 17.619,-23.566 2.543,-25.6 -14.314,-39.843 -5.88,-4.968 -18.468,-23.337 -18.727,-30.139 -0.257,-6.734 19.148,-4.227 17.172,-10.67 -7.925,-25.827 -26.476,-145.866 -64.722,-144.29 -21.498,0.885 -88.392,200.825 -92.343,235.559 -6.074,53.387 43.456,83.327 31.263,108.744 -62.043,129.328 -131.847,5.581 -245.914,69.253 -171.914,95.962 -168.269,294.164 6.172,396.509 134.884,79.138 310.07,103.684 345.01,-89.052 44.186,-243.739 -148.354,-237.033 -73.447,-319.895 10.769,-11.912 16.222,-18.37 24.506,-22.189 15.697,-7.238 46.948,15.427 77.596,4.003 88.975,-33.165 179.801,-46.933 179.33,-61.135 -1.231,-37.137 -84.038,-105.366 -80.541,-124.017 0.544,-2.906 -8.645,9.433 -12.558,7.803 -3.914,-1.63 -7.831,-11.414 -10.924,-17.581 -12.161,-24.239 -0.994,-63.169 -39.357,-52.133 -29.146,8.385 -11.858,30.897 8.34,47.037 8.677,6.934 25.208,20.773 27.822,27.968 1.717,4.724 -7.619,4.546 -5.974,7.194 8.844,14.232 59.581,69.787 59.035,78.199 -1.508,23.213 -63.065,3.512 -100.789,22.776"
             style="fill:none;stroke:#000000;stroke-width:4.17000008px"
             id="path148"
             inkscape:connector-curvature="0" /><path
             d="m 3795.6,2630.94 c -23.928,-1.831 -26.699,-8.151 -26.699,-8.151"
             style="fill:none;stroke:#000000;stroke-width:4.17000008px"
             id="path150"
             inkscape:connector-curvature="0" /><path
             d="m 3604.74,2508.01 c 0,0 32.654,-17.109 60.395,-39.661"
             style="fill:none;stroke:#000000;stroke-width:4.17000008px"
             id="path152"
             inkscape:connector-curvature="0" /><path
             d="m 3763.76,2642.72 c 1.734,-22.399 18.719,-58.887 25.246,-77.715"
             style="fill:none;stroke:#000000;stroke-width:4.17000008px"
             id="path154"
             inkscape:connector-curvature="0" /><path
             d="m 3843.44,2488.54 c 0,0 89.99,-42.05 108.606,-61.596 18.617,-19.546 27.429,-123.935 27.429,-123.935 0,0 7.305,-10.227 11.948,-14.387 6.336,-5.677 24.874,0.655 26.066,-19.678 0.302,-5.136 -12.195,-6.368 -32.617,3.533 -7.096,3.439 -28.131,-6.446 -22.604,14.045 1.665,6.174 -0.636,11.7 -3.804,16.288 -16.281,23.584 -38.491,86.62 -38.491,86.62 0,0 -75.465,33.723 -89.631,9.726 -19.695,-33.362 -10.065,-58.701 -10.065,-58.701 0,0 65.933,-43.665 81.739,-58.941 4.538,-4.385 13.879,4.43 18.19,-4.34 3.864,-7.86 -3.173,-16.498 7.325,-33.032 4.265,-6.718 -1.092,-15.273 -4.454,-18.374 -13.315,-12.277 -12.899,18.459 -12.899,18.459 0,0 -4.312,9.739 -11.948,14.387 0,0 -79.242,32.716 -100.334,45.822 -21.093,13.106 -31.195,92.919 -31.195,92.919 0,0 -31.633,33.282 -69.06,52.335"
             style="fill:none;stroke:#000000;stroke-width:4.17000008px"
             id="path156"
             inkscape:connector-curvature="0" /><path
             d="m 3796.21,2690.76 0.033,36.032 -19.09,-5.558 6.868,-27.099 c 0,0 -5.198,21.98 -7.252,21.748 -16.497,-1.862 -32.688,-10.038 -32.688,-10.038"
             style="fill:none;stroke:#000000;stroke-width:4.17000008px"
             id="path158"
             inkscape:connector-curvature="0" /><path
             d="m 3777.03,2723.51 c 0.57,-2.847 5.49,-4.265 10.979,-3.166 5.49,1.099 9.484,4.303 8.914,7.149 -0.57,2.847 -5.489,4.265 -10.979,3.166 -5.49,-1.099 -9.484,-4.303 -8.914,-7.149 z"
             style="fill:#ffffff;stroke:#000000;stroke-width:4.17000008px"
             id="path160"
             inkscape:connector-curvature="0" /><path
             d="m 3581.57,2444.3 -43.693,-5.567 2.487,15.051 38.786,0.977 c 0,0 -34.734,-1.781 -34.745,-0.195 -0.092,12.738 21.903,43.658 21.903,43.658"
             style="fill:none;stroke:#000000;stroke-width:4.17000008px"
             id="path162"
             inkscape:connector-curvature="0" /><path
             d="m 3538.62,2453.66 c 2.221,-0.173 3.752,-3.791 3.417,-8.074 -0.335,-4.283 -2.409,-7.619 -4.63,-7.445 -2.221,0.174 -3.752,3.792 -3.417,8.074 0.335,4.283 2.41,7.619 4.63,7.445 z"
             style="fill:#ffffff;stroke:#000000;stroke-width:4.17000008px"
             id="path164"
             inkscape:connector-curvature="0" /><path
             d="m 3817.91,2547.04 c 0,0 4.082,-7.839 14.977,-51.477"
             style="fill:none;stroke:#000000;stroke-width:4.17000008px"
             id="path166"
             inkscape:connector-curvature="0" /><path
             d="m 3841.86,2489.52 c -11.129,28.912 -17.464,64.563 -17.464,64.563"
             style="fill:none;stroke:#000000;stroke-width:4.17000008px"
             id="path168"
             inkscape:connector-curvature="0" /><path
             d="m 3621.25,2444.73 c 0,0 17.394,0.718 37.86,-2.51"
             style="fill:none;stroke:#000000;stroke-width:4.17000008px"
             id="path170"
             inkscape:connector-curvature="0" /><path
             d="m 3619.34,2455.6 c 0,0 25.284,-2.112 43.302,-7.703"
             style="fill:none;stroke:#000000;stroke-width:4.17000008px"
             id="path172"
             inkscape:connector-curvature="0" /><path
             d="m 3864.71,2406.66 c 0,0 9.918,-9.322 -8.913,-33.764 -20.503,-26.61 -36.796,-21.756 -36.796,-21.756"
             style="fill:none;stroke:#000000;stroke-width:4.17000008px"
             id="path174"
             inkscape:connector-curvature="0" /><path
             d="m 3876.1,2404.39 c 0,0 5.072,-13.745 -10.254,-37.737 -19.733,-30.892 -42.243,-26.153 -42.243,-26.153"
             style="fill:none;stroke:#000000;stroke-width:4.17000008px"
             id="path176"
             inkscape:connector-curvature="0" /><path
             d="m 3926.79,2444.63 c 15.434,-1.573 32.171,6.15 36.462,7.381 23.606,6.774 10.131,16.724 6.045,13.803 -6.417,-4.588 -47.273,-15.607 -67.782,-7.593"
             style="fill:none;stroke:#000000;stroke-width:4.17000008px"
             id="path178"
             inkscape:connector-curvature="0" /><path
             d="m 3965,2396.26 c 0,0 42.011,6.362 23.271,16.161 -3.81,1.993 -16.755,-5.2 -27.097,-3.259"
             style="fill:none;stroke:#000000;stroke-width:4.17000008px"
             id="path180"
             inkscape:connector-curvature="0" /><path
             d="m 3864.63,2272.85 c 0,0 1.296,-14.88 4.175,-16.395 13.81,-7.265 10.763,9.588 7.22,11.564"
             style="fill:none;stroke:#000000;stroke-width:4.17000008px"
             id="path182"
             inkscape:connector-curvature="0" /><path
             d="m 3916.54,2389.24 c 0,0 -27.08,1.27 -46.034,-22.013 -21.254,-26.109 -14.275,-46.719 -14.275,-46.719 l 3.268,-6.729 c 0,0 15.567,-2.238 3.522,5.908 -4.712,3.187 -8.737,24.055 11.669,44.941 19.225,19.677 42.301,19.69 43.977,17.902 10.067,-10.743 2.129,6.07 2.129,6.07 z"
             style="fill:none;stroke:#000000;stroke-width:4.17000008px"
             id="path184"
             inkscape:connector-curvature="0" /><path
             d="m 3822.72,2291.63 c 11.314,-14.195 8.71,-29.539 10.664,-30.133 16.197,-4.92 6.491,22.247 6.491,22.247"
             style="fill:none;stroke:#000000;stroke-width:4.17000008px"
             id="path186"
             inkscape:connector-curvature="0" /><path
             d="m 3830.74,2338.74 c 0,0 30.747,-18.067 28.062,-24.527"
             style="fill:none;stroke:#000000;stroke-width:4.17000008px"
             id="path188"
             inkscape:connector-curvature="0" /><path
             d="m 3798.7,2538.74 c 0,0 16.54,-33.547 44.744,-50.175"
             style="fill:none;stroke:#000000;stroke-width:4.17000008px"
             id="path190"
             inkscape:connector-curvature="0" /><path
             d="m 3793.19,2642.43 c 0,0 7.378,-36.501 13.327,-56.156"
             style="fill:none;stroke:#000000;stroke-width:4.17000008px"
             id="path192"
             inkscape:connector-curvature="0" /><path
             d="m 3802.63,2642.25 c 0.564,-7.555 9.384,-47.441 9.87,-48.712"
             style="fill:none;stroke:#000000;stroke-width:4.17000008px"
             id="path194"
             inkscape:connector-curvature="0" /><path
             d="m 3694.74,2437.24 c 0,0 33.132,-10.912 58.658,-27.158"
             style="fill:none;stroke:#000000;stroke-width:4.17000008px"
             id="path196"
             inkscape:connector-curvature="0" /><path
             d="m 3693.12,2430.52 c 0,0 42.927,-15.08 73.576,-33.335"
             style="fill:none;stroke:#000000;stroke-width:4.17000008px"
             id="path198"
             inkscape:connector-curvature="0" /><path
             d="m 3624.41,2455.09 c 0,0 4.892,22.452 15.524,31.725"
             style="fill:none;stroke:#000000;stroke-width:4.17000008px"
             id="path200"
             inkscape:connector-curvature="0" /><path
             d="m 3876.1,2404.39 c 7.166,-9.36 43.383,-15.589 43.383,-15.589"
             style="fill:none;stroke:#000000;stroke-width:4.17000008px"
             id="path202"
             inkscape:connector-curvature="0" /><path
             d="m 5004.25,1384.91 c -110.25,128.257 22.596,200.578 103.673,249.204"
             style="fill:none;stroke:#000000;stroke-width:4.17000008px"
             id="path204"
             inkscape:connector-curvature="0" /><path
             d="m 4892.08,1343.01 c 0,0 -32.724,132.958 74.238,161.475"
             style="fill:none;stroke:#000000;stroke-width:4.17000008px"
             id="path206"
             inkscape:connector-curvature="0" /><path
             d="m 5123.66,1469.51 c -87.23,44.416 -15.736,164.608 -15.736,164.608"
             style="fill:none;stroke:#000000;stroke-width:4.17000008px"
             id="path208"
             inkscape:connector-curvature="0" /><path
             d="m 5081.55,1559.25 c 28.851,55.087 80.633,51.727 80.633,51.727 0,0 -27.33,-59.707 15.878,-85.508"
             style="fill:none;stroke:#000000;stroke-width:4.17000008px"
             id="path210"
             inkscape:connector-curvature="0" /><path
             d="m 5160.72,1542.65 c 0.909,53.783 61.993,91.72 61.993,91.72"
             style="fill:none;stroke:#000000;stroke-width:4.17000008px"
             id="path212"
             inkscape:connector-curvature="0" /><path
             d="m 5187.07,1603.17 c 0,0 -55.499,78.534 -5.587,151.699"
             style="fill:none;stroke:#000000;stroke-width:4.17000008px"
             id="path214"
             inkscape:connector-curvature="0" /><path
             d="m 4888.82,1411.03 c 0,0 -73.867,45.725 -136.348,2.342"
             style="fill:none;stroke:#000000;stroke-width:4.17000008px"
             id="path216"
             inkscape:connector-curvature="0" /><path
             d="m 4799.07,1480.31 c 0,0 99.152,-49.244 122.372,38.75"
             style="fill:none;stroke:#000000;stroke-width:4.17000008px"
             id="path218"
             inkscape:connector-curvature="0" /><path
             d="m 4980.55,1557.69 c 94.464,28.178 63.75,92.522 63.75,92.522"
             style="fill:none;stroke:#000000;stroke-width:4.17000008px"
             id="path220"
             inkscape:connector-curvature="0" /><path
             d="m 4915.72,1537.15 c 0,0 -81.329,-1.611 -87.763,8.362 -14.213,22.029 30.843,45.949 47.212,51.132 16.368,5.184 39.448,37.996 50.997,-20.033"
             style="fill:none;stroke:#000000;stroke-width:4.17000008px"
             id="path222"
             inkscape:connector-curvature="0" /><path
             d="m 4988.51,1577.82 c 50.196,8.061 24.658,82.336 24.658,82.336 0,0 -49.729,-38.569 -53.839,-52.291 -4.11,-13.723 6.868,-33.628 29.181,-30.045 z"
             style="fill:none;stroke:#000000;stroke-width:4.17000008px"
             id="path224"
             inkscape:connector-curvature="0" /><g
             id="g228"><path
               d="m 4885.62,1498.52 c -29.062,-41.714 -84.874,13.549 -84.874,13.549 0,0 56.34,28.043 70.486,25.785 14.145,-2.258 27.306,-20.792 14.388,-39.334 z"
               style="fill:none;stroke:#000000;stroke-width:4.17000008px"
               id="path226"
               inkscape:connector-curvature="0" /></g><path
             d="m 4861.58,1503.38 c 6.073,1.923 9.604,7.906 7.88,13.351 -1.724,5.445 -8.055,8.305 -14.129,6.382 -6.073,-1.924 -9.604,-7.906 -7.88,-13.351 1.724,-5.446 8.055,-8.305 14.129,-6.382 z"
             style="fill:#ffffff;stroke:#000000;stroke-width:4.17000008px"
             id="path230"
             inkscape:connector-curvature="0" /><path
             d="m 4994.23,1591.91 c 6.074,1.924 9.411,8.518 7.448,14.718 -1.964,6.2 -8.488,9.672 -14.562,7.749 -6.074,-1.923 -9.411,-8.518 -7.447,-14.718 1.963,-6.2 8.488,-9.672 14.561,-7.749 z"
             style="fill:#ffffff;stroke:#000000;stroke-width:4.17000008px"
             id="path232"
             inkscape:connector-curvature="0" /><path
             d="m 4790.54,1589.65 c 1.973,6.829 29.159,41.623 35.345,45.098 6.187,3.474 3.165,-19.159 1.775,-24.252 -1.045,-3.831 -7.843,-3.517 -10.112,-6.303 -2.269,-2.786 -0.278,-8.678 -3.502,-10.414 -4.502,-2.424 -25.479,-10.957 -23.506,-4.129 z"
             style="fill:none;stroke:#000000;stroke-width:4.17000008px"
             id="path234"
             inkscape:connector-curvature="0" /><path
             d="m 4796.87,1600.33 c -1.574,3.961 -4.72,11.882 -2.139,15.259 2.581,3.376 12.609,4.458 17.624,4.999"
             style="fill:none;stroke:#000000;stroke-width:4.17000008px"
             id="path236"
             inkscape:connector-curvature="0" /></g><path
           d="m 3429.18,2989.5 c 21.785,64.413 103.794,73.811 109.274,17.326"
           style="fill:none;stroke:#000000;stroke-width:4.17000008px"
           id="path240"
           inkscape:connector-curvature="0" /><path
           d="m 3655.9,3132.52 c -30,14.378 -88.083,-15.812 -73.449,-49.149 4.771,-10.867 11.244,-23.03 30.586,-18.229 28.4,7.049 14.264,44.74 11.983,30.722 -0.535,-3.286 -13.385,-23.135 -20.767,-12.779 -9.212,12.925 3.484,22.783 9.964,27.306 16.426,11.466 42.84,0.534 39.319,-26.221 -1.213,-9.219 -16.797,-39.679 -51.023,-34.767 -14.067,2.019 -34.197,28.414 -33.4,46.706 1.515,34.772 41.16,60.37 70.112,59.017"
           style="fill:none;stroke:#000000;stroke-width:4.17000008px"
           id="path242"
           inkscape:connector-curvature="0" /><path
           d="m 3210.34,2898.12 c 25.251,-26.831 58.08,-24.676 77.252,-19.776 9.301,2.378 27.103,11.818 22.833,25.841 -1.888,6.201 -11.876,24.03 -29.693,15.41 -21.186,-10.25 4.087,-29.078 1.645,-14.987 -1.859,10.718 13.976,-1.581 13.953,-4.887 -0.08,-11.501 -40.567,-16.262 -39.042,15.552 1.12,23.359 -4.438,72.223 -40.833,87.672"
           style="fill:none;stroke:#000000;stroke-width:4.17000008px"
           id="path244"
           inkscape:connector-curvature="0" /><g
           id="g300"><path
             d="m 3591.17,1786.32 c 58.234,5.861 124.904,24.255 147.421,31.757 17.865,5.953 4.202,46.158 6.779,56.084 0.783,3.017 8.937,0.365 8.682,3.471 -0.346,4.226 -9.19,15.48 -10.762,21.88 -3.295,13.409 -15.404,68.987 23.1,50.525 26.532,-12.722 -9.069,-38.268 -0.702,-58.689 2.918,-7.123 3.702,-14.296 6.943,-17.364 3.037,-2.875 12.743,3.131 12.502,-1.044 -0.783,-13.572 -3.936,-44.484 -17.2,-80.391 -7.456,-20.183 -190.008,-57.841 -223.898,-49.267 -31.9,8.071 -53.527,50.955 -74.929,63.717 -15.746,9.39 -35.267,10.737 -53.478,12.856 -142.478,16.577 -44.824,-111.236 -140.497,-200.185 -144.192,-134.06 -278.648,67.666 -330.064,142.944 -51.416,75.278 -115.631,212.518 21.57,308.723 202.82,142.216 258.123,-257.474 405.763,-191.225 13.609,6.106 30.677,10.963 37.683,24.13 8.118,15.26 -3.429,38.087 11.03,67.427 38.829,78.79 -121.49,241.167 -132.537,236.452 -50.538,-21.568 -125.576,-54.015 -163.28,-90.909 -4.117,-4.028 -14.398,14.273 -14.398,14.273 0,0 -15.76,-2.806 -19.622,-8.853 -3.87,-6.058 -3.596,-27.496 -3.596,-27.496 0,0 -16.351,5.461 -23.839,6.12 -11.474,1.009 -36.827,-0.976 -44.051,-3.435 -50.474,-17.18 -61.076,-36.581 -15.16,17.355 24.511,28.792 58.721,20.627 73.626,27.426 6.277,2.863 15.802,13.368 15.802,13.368 0,0 -16.964,14.06 -11.11,17.712 29.235,18.236 178.916,69.037 202.297,85.924 26.403,19.07 87.832,-58.736 121.88,-98.293 37.616,-43.704 102.328,-164.394 103.814,-163.926"
             style="fill:none;stroke:#000000;stroke-width:4.17000008px"
             id="path246"
             inkscape:connector-curvature="0" /><path
             d="m 3554.6,2034.23 c -5.983,-16.52 -2.679,-35.672 -0.094,-37.742"
             style="fill:none;stroke:#000000;stroke-width:4.17000008px"
             id="path248"
             inkscape:connector-curvature="0" /><path
             d="m 3620.41,1790.14 c 0,0 22.379,16.091 36.747,32.643 17.597,20.27 84.468,75.469 84.468,75.469"
             style="fill:none;stroke:#000000;stroke-width:4.17000008px"
             id="path250"
             inkscape:connector-curvature="0" /><path
             d="m 3511.75,1997.98 c 0,0 36.38,-3.895 57.051,-2.071 34.527,3.048 68.289,8.179 99.185,22.508"
             style="fill:none;stroke:#000000;stroke-width:4.17000008px"
             id="path252"
             inkscape:connector-curvature="0" /><path
             d="m 3667.98,2018.41 c 16.159,11.887 16.7,32.018 16.7,32.018 0,0 -2.109,72.693 22.215,84.394 24.325,11.702 142.337,-21.751 142.337,-21.751 l -2.081,25.351 c 0,0 -8.77,40.714 10.94,5.382 2.507,-4.494 5.931,-16.931 8.505,-23.79 2.191,-5.836 7.735,-13.695 6.944,-17.364 -2.966,-13.74 -23.442,-4.338 -23.442,-4.338 l -112.344,-13.703 c 0,0 2.695,-77.42 21.171,-98.281 25.686,-29.002 60.701,-41.602 60.701,-41.602 l 24.367,49.91 11.064,22.665 c 0,0 -2.307,6.374 1.392,16.669 2.961,8.242 27.919,-0.803 46.881,4.1 7.703,1.991 14.196,-5.737 16.112,-9.891 7.586,-16.445 -21.532,-6.595 -21.532,-6.595 -6.773,-5.588 -13.545,-11.351 -20.317,-17.187 0,0 -10.362,-77.496 -29.321,-93.534 -18.959,-16.038 -76.553,10.165 -76.553,10.165"
             style="fill:none;stroke:#000000;stroke-width:4.17000008px"
             id="path254"
             inkscape:connector-curvature="0" /><path
             d="m 3488.34,2045.55 c 3.211,-0.371 6.398,4.354 7.113,10.545 0.716,6.192 -1.31,11.519 -4.52,11.89 -3.21,0.371 -6.397,-4.354 -7.113,-10.545 -0.715,-6.191 1.31,-11.519 4.52,-11.89 z"
             style="fill:#ffffff;stroke:#000000;stroke-width:4.17000008px"
             id="path256"
             inkscape:connector-curvature="0" /><path
             d="m 3675.97,1757.88 -10.248,-54.835 -15.541,8.021 14.869,44.56 c 0,0 -12.563,-40.424 -14.297,-39.877 -13.926,4.392 -39.075,31.102 -39.075,31.102"
             style="fill:none;stroke:#000000;stroke-width:4.17000008px"
             id="path258"
             inkscape:connector-curvature="0" /><path
             d="m 3649.69,1709.12 c 0.973,2.361 5.459,2.756 10.012,0.88 4.553,-1.875 7.461,-5.315 6.488,-7.676 -0.972,-2.361 -5.459,-2.755 -10.012,-0.879 -4.553,1.875 -7.46,5.315 -6.488,7.675 z"
             style="fill:#ffffff;stroke:#000000;stroke-width:4.17000008px"
             id="path260"
             inkscape:connector-curvature="0" /><path
             d="m 3488.34,2045.55 c 0,0 134.766,-24.078 179.64,-27.134"
             style="fill:none;stroke:#000000;stroke-width:4.17000008px"
             id="path262"
             inkscape:connector-curvature="0" /><path
             d="m 3671.9,2021.72 c -54.756,4.489 -180.961,46.259 -180.961,46.259"
             style="fill:none;stroke:#000000;stroke-width:4.17000008px"
             id="path264"
             inkscape:connector-curvature="0" /><path
             d="m 3689.46,1804.9 c 0,0 22.598,55.233 54.724,92.743"
             style="fill:none;stroke:#000000;stroke-width:4.17000008px"
             id="path266"
             inkscape:connector-curvature="0" /><path
             d="m 3676.89,1802.01 c 0,0 27.522,54.819 53.14,83.657"
             style="fill:none;stroke:#000000;stroke-width:4.17000008px"
             id="path268"
             inkscape:connector-curvature="0" /><path
             d="m 3741.16,2045.19 c 0,0 26.316,-8.315 50.585,-42.712 19.367,-27.449 15.853,-52.431 15.853,-52.431"
             style="fill:none;stroke:#000000;stroke-width:4.17000008px"
             id="path270"
             inkscape:connector-curvature="0" /><path
             d="m 3740.29,2052.32 c 0,0 36.216,-7.813 60.485,-42.21 0.636,-0.902 1.247,-1.801 1.834,-2.698 17.27,-26.396 11.574,-60.578 11.574,-60.578"
             style="fill:none;stroke:#000000;stroke-width:4.17000008px"
             id="path272"
             inkscape:connector-curvature="0" /><path
             d="m 3766.65,2041.25 c 0,0 31.872,34.534 29.728,50.516"
             style="fill:none;stroke:#000000;stroke-width:4.17000008px"
             id="path274"
             inkscape:connector-curvature="0" /><path
             d="m 3754.91,2047.23 c 7.692,5.101 23.636,9.409 34.451,43.674"
             style="fill:none;stroke:#000000;stroke-width:4.17000008px"
             id="path276"
             inkscape:connector-curvature="0" /><path
             d="m 3800.38,2126.64 c 0,0 2.448,13.523 -5.485,14.054 -4.29,0.287 -3.309,-12.128 -3.309,-12.128"
             style="fill:none;stroke:#000000;stroke-width:4.17000008px"
             id="path278"
             inkscape:connector-curvature="0" /><path
             d="m 3720.35,2137.26 c 0,0 3.89,10.658 4.982,10.427 5.429,-1.151 3.026,-8.453 3.026,-8.453"
             style="fill:none;stroke:#000000;stroke-width:4.17000008px"
             id="path280"
             inkscape:connector-curvature="0" /><path
             d="m 3812.45,1987.1 c 0,0 14.178,13.164 33.031,10.584"
             style="fill:none;stroke:#000000;stroke-width:4.17000008px"
             id="path282"
             inkscape:connector-curvature="0" /><path
             d="m 3813.74,1977.39 c 0,0 12.374,18.403 27.521,11.659"
             style="fill:none;stroke:#000000;stroke-width:4.17000008px"
             id="path284"
             inkscape:connector-curvature="0" /><path
             d="m 3876.08,1984.66 c 3.062,1.33 11.58,-2.047 13.911,0.223 11.178,10.886 -9.734,13.249 -12.708,10.488"
             style="fill:none;stroke:#000000;stroke-width:4.17000008px"
             id="path286"
             inkscape:connector-curvature="0" /><path
             d="m 3791.67,2076.16 c 0,0 -9.539,-25.376 6.785,-50.573 18.305,-28.255 40.062,-27.955 40.062,-27.955 l 7.312,0.958 c 0,0 7.014,14.205 -4.442,5.25 -4.482,-3.503 -25.576,-0.913 -39.172,24.927 -12.809,24.346 -5.723,46.308 -3.506,47.352 13.319,6.274 -2.111,11.652 -2.111,11.652 z"
             style="fill:none;stroke:#000000;stroke-width:4.17000008px"
             id="path288"
             inkscape:connector-curvature="0" /><path
             d="m 3815.01,1956.31 c 0,0 8.37,10.495 13.426,6.454"
             style="fill:none;stroke:#000000;stroke-width:4.17000008px"
             id="path290"
             inkscape:connector-curvature="0" /><path
             d="m 3864.29,1942.18 c 0,0 7.678,-3.606 9.196,-2.24 5.566,5.009 -4.866,9.698 -4.866,9.698"
             style="fill:none;stroke:#000000;stroke-width:4.17000008px"
             id="path292"
             inkscape:connector-curvature="0" /><path
             d="m 3816.54,1968.13 c 0,0 10.542,7.304 15.863,2.762"
             style="fill:none;stroke:#000000;stroke-width:4.17000008px"
             id="path294"
             inkscape:connector-curvature="0" /><path
             d="m 3501.02,2043.32 c -5.651,-9.337 -2.559,-25.052 -2.559,-25.052"
             style="fill:none;stroke:#000000;stroke-width:4.17000008px"
             id="path296"
             inkscape:connector-curvature="0" /><path
             d="m 3671.51,1800.03 c 0,0 -12.88,2.187 -20.768,14.136"
             style="fill:none;stroke:#000000;stroke-width:4.17000008px"
             id="path298"
             inkscape:connector-curvature="0" /></g><path
           d="m 3299.72,1880.13 c 10.799,-6.09 32.397,-18.269 39.364,-26.362 4.856,-5.641 3.243,-16.678 2.436,-22.197"
           style="fill:none;stroke:#000000;stroke-width:4.17000008px"
           id="path302"
           inkscape:connector-curvature="0" /><path
           d="m 3275.13,1619.67 c -40.415,-3.664 -121.244,-10.991 -171.531,85.843"
           style="fill:none;stroke:#000000;stroke-width:4.17000008px"
           id="path304"
           inkscape:connector-curvature="0" /><path
           d="m 3192.28,1576.1 c -88.476,36.238 -97.372,230.84 -162.89,263.408"
           style="fill:none;stroke:#000000;stroke-width:4.17000008px"
           id="path306"
           inkscape:connector-curvature="0" /><path
           d="m 3082.64,1607.39 c 19.688,272.498 -138.951,258.577 -178.408,397.75"
           style="fill:none;stroke:#000000;stroke-width:4.17000008px"
           id="path308"
           inkscape:connector-curvature="0" /><g
           id="g366"><path
             d="m 4426.15,2746.9 c 4.17,-58.379 12.006,-135.352 -6.117,-150.679 -11.859,-10.03 -39.38,-26.113 -47.225,-32.748 -1.797,-1.52 2.408,-6.372 0.157,-7.06 -3.527,-1.079 -14.877,-0.806 -21.317,0.592 -13.256,2.877 -68.941,8.022 -45.838,-31.389 12.757,-21.762 41.099,-3.818 57.707,10.714 2.872,2.512 12.639,5.069 16.216,2.4 3.576,-2.669 -0.54,-21.119 5.242,-18.416 11.744,5.49 41.886,22.831 65.222,51.356 13.623,16.653 11.98,218.086 -2.255,250.014 -13.4,30.054 -46.172,31.512 -59.766,47.913 -11.7,14.116 -16.602,32.916 -21.799,50.498 -40.663,137.555 114.091,56.147 173.253,172.617 122.607,241.368 -10.955,291.516 -154.014,332.049 -87.708,24.85 -253.924,-16.701 -267.637,-154.731 -24.488,-246.499 221.709,-160.847 181.644,-317.632 -3.693,-14.451 -5.714,-31.908 -17.342,-41.249 -11.905,-9.563 -33.152,9.003 -54.086,-16.129 -93.312,-112.024 -93.468,-229.748 -77.589,-244.023 25.237,-22.687 64.327,-14.619 64.327,-14.619 0,0 3.391,17.615 3.877,25.232 0.461,7.206 -4.427,17.01 -4.427,17.01 0,0 -40.715,-5.816 -41.9,7.43 -0.82,9.171 -4.248,31.075 0.825,48.999 9.481,33.503 33.049,68.775 48.956,91.323"
             style="fill:none;stroke:#000000;stroke-width:4.17000008px"
             id="path310"
             inkscape:connector-curvature="0" /><path
             d="m 4174.69,2739.64 c 13.37,8.606 25.841,15.179 38.651,18.322"
             style="fill:none;stroke:#000000;stroke-width:4.17000008px"
             id="path312"
             inkscape:connector-curvature="0" /><path
             d="m 4427.99,2720.55 c 0,0 -9.308,-22.021 -23.246,-38.937 -47.159,-57.233 -72.225,-122.678 -72.225,-122.678"
             style="fill:none;stroke:#000000;stroke-width:4.17000008px"
             id="path314"
             inkscape:connector-curvature="0" /><path
             d="m 4206.51,2799.96 c 0,0 24.693,-127.515 7.317,-166.632"
             style="fill:none;stroke:#000000;stroke-width:4.17000008px"
             id="path316"
             inkscape:connector-curvature="0" /><path
             d="m 4213.82,2633.33 c 0,0 -86.063,-42.71 -93.439,-68.676 -7.376,-25.966 -8.586,-115.521 -8.586,-115.521 l -25.334,-2.279 c 0,0 -41.614,1.689 -3.434,-11.698 4.855,-1.703 17.694,-2.953 24.892,-4.318 6.124,-1.162 14.815,-5.283 18.295,-3.877 13.032,5.268 -3.43,16.807 0.271,23.838 22.554,42.841 34.033,106.687 34.033,106.687 0,0 63.825,34.425 100.452,-4.077 26.703,-28.07 44.513,-50.898 44.513,-50.898 0,0 -25.02,-53.615 -24.955,-80.615 0.026,-10.708 -5.403,-31.668 -5.403,-31.668 0,0 -8.784,-9.264 -18.297,-14.667 -7.615,-4.325 18.472,-24.786 22.096,-36.909 2.279,-7.624 13.05,-8.143 17.393,-9.578 28.392,-9.376 -4.67,22.388 -4.67,22.388 -7.109,12.786 -7.063,19.605 -2.469,27.274 0,0 37.823,84.103 50.388,105.522 12.565,21.419 -1.876,34.83 -1.876,34.83"
             style="fill:none;stroke:#000000;stroke-width:4.17000008px"
             id="path318"
             inkscape:connector-curvature="0" /><path
             d="m 4152.79,2751.04 c -14.9,15.668 -32.039,31.422 -49.988,45.996 l 19.449,10.565 33.477,-43.521 c 0,0 -30.897,38.319 -28.98,39.592 24.493,16.253 48.557,19.869 48.557,19.869"
             style="fill:none;stroke:#000000;stroke-width:4.17000008px"
             id="path320"
             inkscape:connector-curvature="0" /><path
             d="m 4120.56,2809.49 c 1.78,-2.697 -0.998,-7.674 -6.2,-11.107 -5.202,-3.433 -10.87,-4.03 -12.65,-1.333 -1.78,2.697 0.998,7.674 6.2,11.107 5.201,3.433 10.87,4.03 12.65,1.333 z"
             style="fill:#ffffff;stroke:#000000;stroke-width:4.17000008px"
             id="path322"
             inkscape:connector-curvature="0" /><path
             d="m 4459.83,2700.34 c 15.043,7.358 33.303,14.299 57.59,20.459 l -10.913,14.619 -46.868,-21.997 c 0,0 43.099,19.13 42.313,20.769 -6.315,13.166 -45.731,37.226 -45.731,37.226"
             style="fill:none;stroke:#000000;stroke-width:4.17000008px"
             id="path324"
             inkscape:connector-curvature="0" /><path
             d="m 4508.36,2736.17 c -2.199,-1.296 -1.956,-5.793 0.544,-10.035 2.5,-4.243 6.316,-6.635 8.515,-5.339 2.2,1.296 1.957,5.793 -0.543,10.036 -2.5,4.243 -6.316,6.635 -8.516,5.338 z"
             style="fill:#ffffff;stroke:#000000;stroke-width:4.17000008px"
             id="path326"
             inkscape:connector-curvature="0" /><path
             d="m 4174.69,2739.64 c 0,0 24.073,-47.423 27.145,-61.553"
             style="fill:none;stroke:#000000;stroke-width:4.17000008px"
             id="path328"
             inkscape:connector-curvature="0" /><path
             d="m 4197.92,2677.37 c -3.708,13.351 -24.271,46.81 -25.394,46.799"
             style="fill:none;stroke:#000000;stroke-width:4.17000008px"
             id="path330"
             inkscape:connector-curvature="0" /><path
             d="m 4429.96,2689.26 c 0,0 -16.176,-4.606 -36.975,-24.133"
             style="fill:none;stroke:#000000;stroke-width:4.17000008px"
             id="path332"
             inkscape:connector-curvature="0" /><path
             d="m 4429.24,2701.33 c 0,0 -11.15,-6.375 -24.493,-19.712"
             style="fill:none;stroke:#000000;stroke-width:4.17000008px"
             id="path334"
             inkscape:connector-curvature="0" /><path
             d="m 4199.96,2569.23 c 0,0 12.671,-32.874 50.707,-50.912 30.352,-14.395 48.69,-8.215 48.69,-8.215"
             style="fill:none;stroke:#000000;stroke-width:4.17000008px"
             id="path336"
             inkscape:connector-curvature="0" /><path
             d="m 4191.38,2566.08 c 0,0 15.642,-39.159 53.303,-57.968 23.847,-11.911 53.99,-5.672 59.078,-3.433"
             style="fill:none;stroke:#000000;stroke-width:4.17000008px"
             id="path338"
             inkscape:connector-curvature="0" /><path
             d="m 4208.18,2536.43 c 0,0 -44.347,-49.4 -64.869,-45.099"
             style="fill:none;stroke:#000000;stroke-width:4.17000008px"
             id="path340"
             inkscape:connector-curvature="0" /><path
             d="m 4200.28,2546.97 c -33.053,-44.358 -53.603,-45.184 -53.603,-45.184"
             style="fill:none;stroke:#000000;stroke-width:4.17000008px"
             id="path342"
             inkscape:connector-curvature="0" /><path
             d="m 4113.75,2497.09 c 0,0 -13.741,-0.233 -12.985,7.681 0.408,4.28 12.502,1.309 12.502,1.309"
             style="fill:none;stroke:#000000;stroke-width:4.17000008px"
             id="path344"
             inkscape:connector-curvature="0" /><path
             d="m 4119.13,2561.97 c 0,0 -8.053,1.045 -8.313,-0.041 -1.292,-5.397 6.335,-6.362 6.335,-6.362"
             style="fill:none;stroke:#000000;stroke-width:4.17000008px"
             id="path346"
             inkscape:connector-curvature="0" /><path
             d="m 4269.35,2500.54 c 0,0 -18.346,-37.313 12.381,-64.323"
             style="fill:none;stroke:#000000;stroke-width:4.17000008px"
             id="path348"
             inkscape:connector-curvature="0" /><path
             d="m 4278.02,2497.93 c 0,0 -18.734,-33.679 5.182,-52.867"
             style="fill:none;stroke:#000000;stroke-width:4.17000008px"
             id="path350"
             inkscape:connector-curvature="0" /><path
             d="m 4310.97,2422.26 c 0.024,-0.892 12.784,-5.392 13.099,-8.451 0.963,-9.357 -12.172,-11.524 -18.191,-1.044"
             style="fill:none;stroke:#000000;stroke-width:4.17000008px"
             id="path352"
             inkscape:connector-curvature="0" /><path
             d="m 4178.06,2505.81 c 0,0 23.374,13.731 50.989,1.95 30.966,-13.211 34.385,-34.701 34.385,-34.701 l 0.304,-7.367 c 0,0 -12.798,-9.338 -5.931,3.479 2.687,5.015 -3.467,25.357 -31.25,34.341 -26.176,8.464 -46.605,-2.268 -47.255,-4.631 -3.908,-14.195 -11.841,0.09 -11.841,0.09 z"
             style="fill:none;stroke:#000000;stroke-width:4.17000008px"
             id="path354"
             inkscape:connector-curvature="0" /><path
             d="m 4192.21,2561.37 c 0,0 -18.211,-10.908 -31.382,-10.395"
             style="fill:none;stroke:#000000;stroke-width:4.17000008px"
             id="path356"
             inkscape:connector-curvature="0" /><path
             d="m 4303.76,2504.68 c 0,0 -12.149,-11.395 -5.104,-17.895"
             style="fill:none;stroke:#000000;stroke-width:4.17000008px"
             id="path358"
             inkscape:connector-curvature="0" /><path
             d="m 4328.93,2459.77 c 0,0 11.645,-7.035 5.683,-11.329 -6.075,-4.376 -10.386,3.139 -10.386,3.139"
             style="fill:none;stroke:#000000;stroke-width:4.17000008px"
             id="path360"
             inkscape:connector-curvature="0" /><path
             d="m 4288.74,2499.75 c 0,0 -7.703,-13.481 4.534,-19.92"
             style="fill:none;stroke:#000000;stroke-width:4.17000008px"
             id="path362"
             inkscape:connector-curvature="0" /><path
             d="m 4120.78,3190.18 c 117.553,0.24 87.039,147.212 176.703,239.035"
             style="fill:none;stroke:#000000;stroke-width:4.17000008px"
             id="path364"
             inkscape:connector-curvature="0" /></g><g
           id="g426"><path
             d="m 4789.95,2152.43 c -54.442,-21.483 -122.127,-35.693 -145.579,-39.346 -18.607,-2.898 -18.052,37.755 -23.524,45.127 -1.858,2.502 -8.111,-3.772 -9.308,-0.894 -1.629,3.914 0.134,17.816 -0.463,24.379 -1.23,13.509 -13.448,68.558 -43.689,34.317 -19.478,-22.055 25.6,-29.855 27.524,-51.839 0.671,-7.669 3.262,-14.404 1.788,-18.616 -1.381,-3.947 -12.459,-2.895 -10.633,-6.657 5.549,-11.435 15.681,-36.121 43.928,-61.954 15.877,-14.521 195.385,35.682 221.575,58.836 24.653,21.795 29.765,68.732 44.046,89.665 10.332,15.146 26.423,25.708 41.638,35.938 119.032,80.038 87.774,-92.005 216.624,-113.522 267.025,-44.591 259.395,156.022 270.589,246.493 11.193,90.471 -40.308,246.825 -176.098,218.518 -242.499,-50.551 -138.73,-269.33 -300.315,-278.121 -14.893,-0.81 -32.289,-4.316 -44.551,4.176 -14.21,9.841 -10.912,41.378 -40.708,54.87 -86.5,39.168 -255.662,16.639 -261.298,3.593 -13.457,-31.152 109.67,-101.47 94.047,-112.239 -2.435,-1.678 30.929,15.28 34.84,12.044 4.037,-3.341 16.026,-13.977 10.126,-20.941 -16.982,-20.05 -25.825,-54.498 -11.276,-62.332 46.65,-25.12 44.83,19.013 30.789,60.788 -2.22,6.606 -12.367,21.86 -11.826,26.146 0.54,4.285 17.482,-4.841 15.071,-0.431 -13.204,24.153 -47.758,30.713 -77.75,50.911 -28.009,18.864 -48.019,34.932 -44.02,35.695 25.946,4.954 122.792,-3.354 163.133,-16.269"
             style="fill:none;stroke:#000000;stroke-width:4.17000008px"
             id="path368"
             inkscape:connector-curvature="0" /><path
             d="m 4718.81,2385.49 c 12.899,-22.373 15.402,-27.753 14.054,-30.778"
             style="fill:none;stroke:#000000;stroke-width:4.17000008px"
             id="path370"
             inkscape:connector-curvature="0" /><path
             d="m 4768.87,2141.11 c 0,0 -27.265,4.044 -47.622,12.168 -24.93,9.95 -109.664,28.36 -109.664,28.36"
             style="fill:none;stroke:#000000;stroke-width:4.17000008px"
             id="path372"
             inkscape:connector-curvature="0" /><path
             d="m 4774.71,2377.89 c 0,0 -49.768,-30.292 -67.688,-39.008"
             style="fill:none;stroke:#000000;stroke-width:4.17000008px"
             id="path374"
             inkscape:connector-curvature="0" /><path
             d="m 4658.72,2325.81 c -15.917,-7.702 -40.785,-4.864 -40.785,-4.864 0,0 -56.943,87.629 -83.925,86.879 -26.983,-0.749 -116.535,-84.571 -116.535,-84.571 l -9.771,23.485 c 0,0 -10.867,40.205 -12.19,-0.232 -0.168,-5.142 2.49,-17.765 3.345,-25.041 0.728,-6.191 -0.597,-15.718 1.788,-18.616 8.933,-10.853 22.822,6.889 22.822,6.889 l 106.13,39.314 c 0,0 33.089,-70.044 26.23,-97.053 -9.536,-37.55 -32.463,-52.488 -32.463,-52.488 l -78.898,10.11 -27.586,10.127 c 0,0 -0.87,6.722 -8.877,14.177 -6.41,5.968 -29.829,-15.572 -40.308,-22.665 -6.589,-4.46 -10.285,-7.692 -13.024,-11.355 -14.618,-19.54 26.315,-2.179 26.315,-2.179 8.474,5.191 20.45,7.253 29.144,5.169 0,0 79.095,-41.045 103.295,-46.61 24.201,-5.564 60.962,31.813 60.962,31.813"
             style="fill:none;stroke:#000000;stroke-width:4.17000008px"
             id="path376"
             inkscape:connector-curvature="0" /><path
             d="m 4711.17,2416.85 c 10.478,18.912 21.13,37.597 29.651,59.09 l 15.911,-15.386 -33.38,-42.841 c 0,0 29.191,38.82 30.979,37.373 22.85,-18.493 33.215,-42.219 33.215,-42.219"
             style="fill:none;stroke:#000000;stroke-width:4.17000008px"
             id="path378"
             inkscape:connector-curvature="0" /><path
             d="m 4758.03,2462.73 c -2.039,-2.507 -7.62,-1.349 -12.455,2.584 -4.835,3.933 -7.104,9.162 -5.065,11.669 2.039,2.507 7.62,1.349 12.455,-2.584 4.835,-3.933 7.104,-9.162 5.065,-11.669 z"
             style="fill:#ffffff;stroke:#000000;stroke-width:4.17000008px"
             id="path380"
             inkscape:connector-curvature="0" /><path
             d="m 4767.07,2097.64 34.241,-44.038 10.136,14.251 -30.757,32.126 c 0,0 26.812,-29.506 28.103,-28.226 10.363,10.286 17.591,46.215 17.591,46.215"
             style="fill:none;stroke:#000000;stroke-width:4.17000008px"
             id="path382"
             inkscape:connector-curvature="0" /><path
             d="m 4812.77,2066.35 c -1.947,1.653 -6.115,-0.053 -9.302,-3.807 -3.187,-3.754 -4.194,-8.143 -2.248,-9.796 1.946,-1.652 6.114,0.054 9.301,3.808 3.188,3.753 4.195,8.143 2.249,9.795 z"
             style="fill:#ffffff;stroke:#000000;stroke-width:4.17000008px"
             id="path384"
             inkscape:connector-curvature="0" /><path
             d="m 4704.66,2386.72 c 0,0 -17.698,-20.585 -30.257,-27.753"
             style="fill:none;stroke:#000000;stroke-width:4.17000008px"
             id="path386"
             inkscape:connector-curvature="0" /><path
             d="m 4667.46,2363.91 c 11.625,7.541 25.102,22.599 24.755,23.667"
             style="fill:none;stroke:#000000;stroke-width:4.17000008px"
             id="path388"
             inkscape:connector-curvature="0" /><path
             d="m 4736.66,2131.28 c 0,0 -9.808,14.295 -34.673,28.281"
             style="fill:none;stroke:#000000;stroke-width:4.17000008px"
             id="path390"
             inkscape:connector-curvature="0" /><path
             d="m 4749.13,2134.89 c 0,0 -11.153,9.657 -27.877,18.387"
             style="fill:none;stroke:#000000;stroke-width:4.17000008px"
             id="path392"
             inkscape:connector-curvature="0" /><path
             d="m 4544.65,2312.45 c 0,0 -19.579,-19.452 -25.382,-61.147 -4.631,-33.273 4.338,-47.058 4.338,-47.058"
             style="fill:none;stroke:#000000;stroke-width:4.17000008px"
             id="path394"
             inkscape:connector-curvature="0" /><path
             d="m 4544.65,2312.45 c 0,0 -19.579,-19.452 -25.382,-61.147 -4.631,-33.273 4.338,-47.058 4.338,-47.058"
             style="fill:none;stroke:#000000;stroke-width:4.17000008px"
             id="path396"
             inkscape:connector-curvature="0" /><path
             d="m 4542.15,2319.19 c 0,0 -28.607,-23.543 -34.411,-65.238 -4.631,-33.272 10.657,-54.029 10.657,-54.029"
             style="fill:none;stroke:#000000;stroke-width:4.17000008px"
             id="path398"
             inkscape:connector-curvature="0" /><path
             d="m 4523.8,2297.26 c 0,0 -44.155,16.084 -49.575,31.272"
             style="fill:none;stroke:#000000;stroke-width:4.17000008px"
             id="path400"
             inkscape:connector-curvature="0" /><path
             d="m 4531.49,2307.96 c -9.174,1.008 -23.938,-0.964 -49.255,24.533 -0.46,0.463 0.728,-0.726 0.728,-0.726"
             style="fill:none;stroke:#000000;stroke-width:4.17000008px"
             id="path402"
             inkscape:connector-curvature="0" /><path
             d="m 4454.69,2357.7 c 0,0 -8.374,10.897 -1.567,15.005 3.681,2.222 8.5,-9.262 8.5,-9.262"
             style="fill:none;stroke:#000000;stroke-width:4.17000008px"
             id="path404"
             inkscape:connector-curvature="0" /><path
             d="m 4518.37,2405.8 c 0,0 -5.773,5.712 -6.638,5.005 -4.298,-3.511 1.185,-8.9 1.185,-8.9"
             style="fill:none;stroke:#000000;stroke-width:4.17000008px"
             id="path406"
             inkscape:connector-curvature="0" /><path
             d="m 4507.91,2228.15 c 0,0 -40.053,0.349 -53.797,-19.766"
             style="fill:none;stroke:#000000;stroke-width:4.17000008px"
             id="path408"
             inkscape:connector-curvature="0" /><path
             d="m 4508.02,2219.09 c 0,0 -28.628,0.316 -38.999,-12.621"
             style="fill:none;stroke:#000000;stroke-width:4.17000008px"
             id="path410"
             inkscape:connector-curvature="0" /><path
             d="m 4452.88,2179.93 c -0.89,-0.055 -4.927,-12.969 -7.973,-13.394 -9.315,-1.3 -11.955,11.748 -1.698,18.141"
             style="fill:none;stroke:#000000;stroke-width:4.17000008px"
             id="path412"
             inkscape:connector-curvature="0" /><path
             d="m 4485.56,2316.82 c 0,0 20.108,-18.182 17.149,-48.059 -3.318,-33.502 -22.794,-43.207 -22.794,-43.207 l -6.937,-2.5 c 0,0 -12.745,9.41 1.541,6.702 5.59,-1.06 23.15,10.911 23.39,40.109 0.226,27.509 -16.138,43.78 -18.587,43.692 -14.714,-0.529 -3.465,11.323 -3.465,11.323 z"
             style="fill:none;stroke:#000000;stroke-width:4.17000008px"
             id="path414"
             inkscape:connector-curvature="0" /><path
             d="m 4516.65,2200.33 c 0,0 -6.288,7.098 -8.929,1.189"
             style="fill:none;stroke:#000000;stroke-width:4.17000008px"
             id="path416"
             inkscape:connector-curvature="0" /><path
             d="m 4484.39,2167.07 c 0,0 -3.22,-13.219 -9.103,-8.819 -5.997,4.483 -0.12,10.849 -0.12,10.849"
             style="fill:none;stroke:#000000;stroke-width:4.17000008px"
             id="path418"
             inkscape:connector-curvature="0" /><path
             d="m 4512.97,2209.41 c 0,0 -12.717,1.659 -15.364,-4.816"
             style="fill:none;stroke:#000000;stroke-width:4.17000008px"
             id="path420"
             inkscape:connector-curvature="0" /><path
             d="m 4643.81,2335.6 c 0,0 -16.688,-11.488 -26.778,-13.874"
             style="fill:none;stroke:#000000;stroke-width:4.17000008px"
             id="path422"
             inkscape:connector-curvature="0" /><path
             d="m 4638.18,2340.88 c 0,0 -12.968,-12.27 -22.539,-16.466"
             style="fill:none;stroke:#000000;stroke-width:4.17000008px"
             id="path424"
             inkscape:connector-curvature="0" /></g><g
           id="g450"><path
             d="m 5322.96,2288.42 c -1.934,10.887 -5.804,32.661 -3.006,48.674 3.86,22.091 25.059,69.42 26.167,83.876"
             style="fill:none;stroke:#000000;stroke-width:4.17000008px"
             id="path428"
             inkscape:connector-curvature="0" /><path
             d="m 5348.99,2309.07 c -0.631,11.352 -1.894,34.055 15.151,55 8.395,10.315 10.708,24.169 11.865,31.096"
             style="fill:none;stroke:#000000;stroke-width:4.17000008px"
             id="path430"
             inkscape:connector-curvature="0" /><path
             d="m 5227.87,2245.9 c 26.33,5.644 78.909,38.444 44.306,85.367"
             style="fill:none;stroke:#000000;stroke-width:4.17000008px"
             id="path432"
             inkscape:connector-curvature="0" /><path
             d="m 5282.98,2365.7 c 47.736,27.119 15.911,80.086 -13.578,91.851"
             style="fill:none;stroke:#000000;stroke-width:4.17000008px"
             id="path434"
             inkscape:connector-curvature="0" /><path
             d="m 5224.25,2316.09 c 6.001,3.89 22.57,9.303 31.029,-8.784 3.373,-7.212 -29.381,-40.32 -34.553,-38.856 -5.171,1.464 -18.421,33.414 3.524,47.64 z"
             style="fill:none;stroke:#000000;stroke-width:4.17000008px"
             id="path436"
             inkscape:connector-curvature="0" /><path
             d="m 5246.89,2389.91 c 4.125,-5.842 17.494,-17.026 32.07,-3.378 5.812,5.441 -12.289,48.352 -17.634,48.915 -5.345,0.563 -29.522,-24.174 -14.436,-45.537 z"
             style="fill:none;stroke:#000000;stroke-width:4.17000008px"
             id="path438"
             inkscape:connector-curvature="0" /><path
             d="m 5240.95,2298.4 c 3.936,1.247 6.151,5.359 4.941,9.178 -1.209,3.819 -5.387,5.907 -9.323,4.661 -3.937,-1.247 -6.151,-5.359 -4.942,-9.178 1.209,-3.819 5.387,-5.907 9.324,-4.661 z"
             style="fill:#ffffff;stroke:#000000;stroke-width:4.17000008px"
             id="path440"
             inkscape:connector-curvature="0" /><path
             d="m 5262.81,2387.52 c 3.936,1.246 6.151,5.359 4.941,9.177 -1.209,3.819 -5.387,5.907 -9.323,4.661 -3.937,-1.247 -6.151,-5.359 -4.942,-9.178 1.209,-3.819 5.387,-5.907 9.324,-4.66 z"
             style="fill:#ffffff;stroke:#000000;stroke-width:4.17000008px"
             id="path442"
             inkscape:connector-curvature="0" /><path
             d="m 5257.68,2351.49 c -16.2,2.193 -39.147,37.624 -53.242,37.419 -14.095,-0.205 -27.975,-29.576 -31.328,-38.65 -2.238,-6.056 7.766,-14.696 11.205,-15.797 3.44,-1.102 10.575,-1.323 9.433,9.19"
             style="fill:none;stroke:#000000;stroke-width:4.17000008px"
             id="path444"
             inkscape:connector-curvature="0" /><path
             d="m 5121.55,2268.2 c 2.751,5.665 -8.439,33.299 -12.335,56.176 -4.852,28.488 -1.977,46.727 -6.328,51.797 -9.011,10.498 -34.9,-38.392 -31.789,-56.388 3.11,-17.995 45.134,-62.54 50.452,-51.585 z"
             style="fill:none;stroke:#000000;stroke-width:4.17000008px"
             id="path446"
             inkscape:connector-curvature="0" /><path
             d="m 5119.46,2284.91 c 4.558,5.625 13.673,16.875 11.336,32.666 -0.474,3.197 -10.794,4.665 -11.273,7.741 -0.48,3.076 9.802,7.348 8.395,10.715 -6.031,14.431 -16.375,19.671 -21.548,22.29"
             style="fill:none;stroke:#000000;stroke-width:4.17000008px"
             id="path448"
             inkscape:connector-curvature="0" /></g><path
           d="m 4223.52,3286 c 21.834,-17.283 18.765,-62.927 18.765,-62.927 0,0 135.403,60 80.044,208.284"
           style="fill:none;stroke:#000000;stroke-width:4.17000008px"
           id="path452"
           inkscape:connector-curvature="0" /><path
           d="m 4335.62,3363.3 c 43.688,-126.535 260.441,-41.59 243.627,-170.89"
           style="fill:none;stroke:#000000;stroke-width:4.17000008px"
           id="path454"
           inkscape:connector-curvature="0" /><path
           d="m 4441.43,3240.62 c 47.178,60.622 97.296,-16.024 85.633,-64.735"
           style="fill:none;stroke:#000000;stroke-width:4.17000008px"
           id="path456"
           inkscape:connector-curvature="0" /><path
           d="m 4355.62,3245.61 c -0.474,40.505 -32.912,44.118 -41.337,41.88"
           style="fill:none;stroke:#000000;stroke-width:4.17000008px"
           id="path458"
           inkscape:connector-curvature="0" /><path
           d="m 4450.36,3212.43 c 4.25,6.515 22.489,25.731 30.852,22.176 8.363,-3.555 23.575,-36.992 19.326,-43.507 -4.25,-6.515 -36.459,0.862 -44.822,4.417 -5.442,2.314 -8.586,11.96 -5.356,16.914 z"
           style="fill:none;stroke:#000000;stroke-width:4.17000008px"
           id="path460"
           inkscape:connector-curvature="0" /><path
           d="m 4294.5,3261.32 c 8.118,3.59 24.353,10.77 31.102,6.21 6.75,-4.559 11.247,-26.003 9.397,-33.569 -1.85,-7.567 -12.722,-13.162 -20.497,-11.828 -9.939,1.705 -29.404,15.272 -39.136,22.055"
           style="fill:none;stroke:#000000;stroke-width:4.17000008px"
           id="path462"
           inkscape:connector-curvature="0" /><path
           d="m 4392.8,3239.23 c -15.479,-39.173 52.524,-61.853 50.262,-109.752 -1.371,-29.034 -58.328,-23.588 -63.327,-23.155 -8.441,0.732 -21.525,3.524 -18.988,16.895 2.846,15.003 23.694,51.945 32.127,10.174"
           style="fill:none;stroke:#000000;stroke-width:4.17000008px"
           id="path464"
           inkscape:connector-curvature="0" /><path
           d="m 4388.03,3037.61 c 12.531,3.968 18.742,19.707 13.859,35.125 -4.882,15.418 -19.02,24.714 -31.551,20.745 -12.531,-3.968 -18.742,-19.707 -13.859,-35.125 4.882,-15.418 19.02,-24.714 31.551,-20.745 z"
           style="fill:#ffffff;stroke:#000000;stroke-width:4.17000008px"
           id="path466"
           inkscape:connector-curvature="0" /><path
           d="m 4390.1,3050.67 c 6.189,4.391 9.563,15.773 7.244,23.097 -2.319,7.323 -13.336,15.099 -19.363,15.175 -15.068,0.191 -15.381,-20.822 -11.392,-27.387 12.956,-21.324 20.631,-12.927 23.511,-10.885 z"
           style="fill:#ffffff;stroke:#000000;stroke-width:4.17000008px"
           id="path468"
           inkscape:connector-curvature="0" /><path
           d="m 4323.34,3225.26 c 4.303,1.362 6.374,6.96 4.622,12.493 -1.752,5.533 -6.668,8.919 -10.971,7.556 -4.303,-1.362 -6.374,-6.961 -4.622,-12.493 1.752,-5.533 6.668,-8.919 10.971,-7.556 z"
           style="fill:#ffffff;stroke:#000000;stroke-width:4.17000008px"
           id="path470"
           inkscape:connector-curvature="0" /><path
           d="m 4455.78,3198.18 c 3.359,-3.014 9.233,-1.955 13.109,2.364 3.876,4.32 4.296,10.274 0.937,13.288 -3.359,3.015 -9.234,1.956 -13.11,-2.364 -3.876,-4.319 -4.296,-10.273 -0.936,-13.288 z"
           style="fill:#ffffff;stroke:#000000;stroke-width:4.17000008px"
           id="path472"
           inkscape:connector-curvature="0" /><path
           d="m 3306.31,1661.13 c -20.302,-14.647 -60.907,-43.939 -142.802,-22.993"
           style="fill:none;stroke:#000000;stroke-width:4.17000008px"
           id="path474"
           inkscape:connector-curvature="0" /><path
           d="m 3320.51,1704.13 c -15.47,-21.236 -46.409,-63.709 -99.015,-73.238"
           style="fill:none;stroke:#000000;stroke-width:4.17000008px"
           id="path476"
           inkscape:connector-curvature="0" /><path
           d="m 3123.17,1765.53 c 38.723,-59.075 76.229,-61.673 94.982,-62.972"
           style="fill:none;stroke:#000000;stroke-width:4.17000008px"
           id="path478"
           inkscape:connector-curvature="0" /><path
           d="m 3058.74,1872.29 c -11.678,39.725 -19.074,76.67 -4.307,110.295"
           style="fill:none;stroke:#000000;stroke-width:4.17000008px"
           id="path480"
           inkscape:connector-curvature="0" /><path
           d="m 3104.87,1823.31 c 35.66,15.354 56.662,58.043 56.662,58.043 0,0 5.329,-36.419 16.451,-51.951"
           style="fill:none;stroke:#000000;stroke-width:4.17000008px"
           id="path482"
           inkscape:connector-curvature="0" /><path
           d="m 3086.57,1881.1 c 7.68,2.432 11.862,10.888 9.334,18.872 -2.529,7.984 -10.816,12.492 -18.495,10.06 -7.68,-2.432 -11.862,-10.888 -9.334,-18.872 2.528,-7.984 10.816,-12.492 18.495,-10.06 z"
           style="fill:#ffffff;stroke:#000000;stroke-width:4.17000008px"
           id="path484"
           inkscape:connector-curvature="0" /><path
           d="m 3156.36,1757.42 c 7.68,2.432 11.94,10.641 9.508,18.321 -2.431,7.679 -10.64,11.94 -18.32,9.508 -7.679,-2.432 -11.94,-10.641 -9.508,-18.321 2.432,-7.679 10.641,-11.939 18.32,-9.508 z"
           style="fill:#ffffff;stroke:#000000;stroke-width:4.17000008px"
           id="path486"
           inkscape:connector-curvature="0" /><path
           d="m 3089.89,1888.36 c 2.818,0.892 4.305,4.143 3.32,7.254 -0.985,3.112 -4.073,4.914 -6.891,4.022 -2.817,-0.893 -4.305,-4.143 -3.32,-7.255 0.986,-3.112 4.073,-4.913 6.891,-4.021 z"
           style="fill:#ffffff;stroke:#000000;stroke-width:4.17000008px"
           id="path488"
           inkscape:connector-curvature="0" /><path
           d="m 3154.18,1772.24 c 2.818,0.892 4.331,4.062 3.377,7.074 -0.953,3.012 -4.015,4.733 -6.833,3.841 -2.818,-0.892 -4.331,-4.062 -3.377,-7.074 0.954,-3.012 4.016,-4.733 6.833,-3.841 z"
           style="fill:#ffffff;stroke:#000000;stroke-width:4.17000008px"
           id="path490"
           inkscape:connector-curvature="0" /><path
           d="m 3254.46,1797.79 c -5.067,-5.223 -23.484,13.758 -27.767,19.122 -2.751,3.444 3.109,9.772 2.067,13.061 -1.041,3.289 -8.369,3.118 -8.316,6.671 0.094,6.233 2.773,28.793 8.88,30.727 6.108,1.934 24.826,-10.524 27.767,-19.122 6.956,-20.336 2.435,-45.237 -2.631,-50.459 z"
           style="fill:none;stroke:#000000;stroke-width:4.17000008px"
           id="path492"
           inkscape:connector-curvature="0" /><path
           d="m 3230.7,1867.57 c 3.475,-2.587 10.427,-7.761 13.325,-17.255 3.258,-10.673 10.052,-35.69 9.024,-53.322"
           style="fill:none;stroke:#000000;stroke-width:4.17000008px"
           id="path494"
           inkscape:connector-curvature="0" /><path
           d="m 3252.06,1800.13 c -3.872,12.228 -11.616,36.683 -15.175,47.923 -2.06,6.505 -4.806,15.18 -6.18,19.517"
           style="fill:none;stroke:#000000;stroke-width:4.17000008px"
           id="path496"
           inkscape:connector-curvature="0" /><path
           d="m 3252.63,2956.6 c 15.562,-34.669 69.07,-33.646 89.362,-5.198 8.661,12.143 13.944,31.71 -7.752,44.07 -6.176,3.518 -27.379,1.209 -25.512,-17.384 1.396,-13.9 14.175,-11.342 12.028,-8.598 -4.343,5.552 -2.507,22.833 11.417,12.921 12.413,-8.838 0.465,-20.411 -4.768,-24.124 -15.397,-10.927 -34.535,15.177 -33.523,27.507 1.846,22.497 14.838,81.73 -30.722,96.193"
           style="fill:none;stroke:#000000;stroke-width:4.17000008px"
           id="path498"
           inkscape:connector-curvature="0" /><path
           d="m 3296.43,3035.72 c 36.405,-34.207 85.421,-26.211 101.757,-16.896 13.241,7.549 25.371,30.888 7.74,44.121 -6.355,4.771 -17.17,10.261 -27.66,-0.803 -8.83,-9.314 -0.661,-22.786 11.468,-16.627 6.181,3.138 -14.826,6.654 -3.54,11.182 8.33,3.341 14.774,-10.744 13.783,-14.142 -0.992,-3.398 -5.931,-10 -19.733,-6.249 -57.489,15.625 5.162,88.226 -46.171,104.086"
           style="fill:none;stroke:#000000;stroke-width:4.17000008px"
           id="path500"
           inkscape:connector-curvature="0" /><path
           d="m 3356.01,3111.39 c 2.722,-30.843 83.978,-50.995 109.111,-29.7 13.066,11.07 16.758,20.542 11.336,42.561 -2.466,10.016 -18.515,23.862 -32.646,14.942 -6.681,-4.217 -19.305,-8.719 -13.35,-26.405 3.692,-10.967 18.393,-7.478 20.742,-6.734 2.349,0.744 -9.844,4.969 -6.647,11.197 1.492,2.907 4.84,10.112 13.202,7.282 9.899,-3.35 14.477,-24.253 -6.061,-29.834 -24.794,-6.737 -37.28,10.306 -36.528,25.836 1.098,22.687 21.015,49.713 -5.826,57.175"
           style="fill:none;stroke:#000000;stroke-width:4.17000008px"
           id="path502"
           inkscape:connector-curvature="0" /><path
           d="m 3422,3168.23 c 13.548,-38.28 83.352,1.107 101.832,-39.182 9.464,-20.633 -7.23,-68.284 30.011,-102.246 18.14,-16.544 53.24,-18.094 72.445,-13.293 27.989,6.996 50.16,30.769 54.692,54.538"
           style="fill:none;stroke:#000000;stroke-width:4.17000008px"
           id="path504"
           inkscape:connector-curvature="0" /><path
           d="m 3252.85,2876.09 c 12.642,-23.411 95.124,10.115 100.369,-48.301 2.844,-31.672 -21.881,-63.481 -67.451,-48.959"
           style="fill:none;stroke:#000000;stroke-width:4.17000008px"
           id="path506"
           inkscape:connector-curvature="0" /><path
           d="m 3250.49,2815.01 c 0.721,39.745 66.37,33.69 71.33,9.043 8.548,-42.465 -36.804,-37.115 -39.964,-15.757 -1.538,10.397 8.773,13.144 11.417,12.921 10.305,-0.873 8.864,-5.647 4.463,-14.095 -10.928,-20.979 43.994,30.832 -15.815,26.008 -7.627,-0.615 -21.625,-8.751 -16.924,-34.811"
           style="fill:none;stroke:#000000;stroke-width:4.17000008px"
           id="path508"
           inkscape:connector-curvature="0" /><path
           d="m 3354.21,2877.73 c -52.641,20.285 -30.061,83.03 34.203,88.371"
           style="fill:none;stroke:#000000;stroke-width:4.17000008px"
           id="path510"
           inkscape:connector-curvature="0" /><path
           d="m 3398.8,2951.15 c -3.462,5.87 -15.634,-5.063 -26.662,-20.309 -6.051,-8.364 -1.772,-48.51 4.556,-51.041 6.327,-2.53 29.783,25.249 33.41,35.858 7.232,21.155 -2.242,20.132 -11.304,35.492 z"
           style="fill:none;stroke:#000000;stroke-width:4.17000008px"
           id="path512"
           inkscape:connector-curvature="0" /><path
           d="m 3449.96,2991.69 c -4.324,5.267 10.122,12.946 28.227,18.072 9.932,2.812 46.172,-14.987 46.376,-21.798 0.205,-6.812 -33.937,-19.308 -45.147,-19.073 -22.352,0.468 -18.139,9.016 -29.456,22.799 z"
           style="fill:none;stroke:#000000;stroke-width:4.17000008px"
           id="path514"
           inkscape:connector-curvature="0" /><path
           d="m 3402.16,2921.09 c 6.739,2.134 10.833,8.218 9.136,13.577 -1.697,5.36 -8.546,7.978 -15.286,5.844 -6.74,-2.134 -10.834,-8.218 -9.137,-13.577 1.697,-5.36 8.547,-7.978 15.287,-5.844 z"
           style="fill:#ffffff;stroke:#000000;stroke-width:4.17000008px"
           id="path516"
           inkscape:connector-curvature="0" /><path
           d="m 3477.44,2972.6 c 7.617,2.412 12.423,8.722 10.726,14.081 -1.697,5.36 -9.259,7.752 -16.876,5.34 -7.617,-2.412 -12.424,-8.721 -10.727,-14.08 1.698,-5.36 9.259,-7.753 16.877,-5.341 z"
           style="fill:#ffffff;stroke:#000000;stroke-width:4.17000008px"
           id="path518"
           inkscape:connector-curvature="0" /><path
           d="m 3454.61,2948.38 c -4.16,-21.837 83.928,-34.983 101.533,-36.585 63.308,-5.763 -44.55,-38.068 -55.9,-59.16 -14.763,-27.436 -63.341,32.511 -13.071,20.674"
           style="fill:none;stroke:#000000;stroke-width:4.17000008px"
           id="path520"
           inkscape:connector-curvature="0" /><path
           d="m 3451.94,2806.32 c -8.199,4.848 29.168,19.162 30.743,3.532 0.396,-3.922 0.561,-11.712 3.571,-11.275 3.01,0.436 2.541,12.641 14.492,13.893 10.574,1.109 24.958,-18.047 18.241,-19.036 -7.248,-1.068 -13.769,-25.906 -36.611,-20.899 -29.974,6.572 -25.082,30.62 -30.436,33.785 z"
           style="fill:none;stroke:#000000;stroke-width:4.17000008px"
           id="path522"
           inkscape:connector-curvature="0" /><path
           d="m 3520.41,2797.13 c -6.645,-3.635 -19.934,-10.907 -30.588,-9.826 -15.9,1.612 -31.293,14.026 -38.989,20.233"
           style="fill:none;stroke:#000000;stroke-width:4.17000008px"
           id="path524"
           inkscape:connector-curvature="0" /><path
           d="m 3505.57,2739.35 c 18.755,-1.894 56.266,-5.682 57.088,12.086 0.517,11.157 24.617,29.653 36.668,38.902"
           style="fill:none;stroke:#000000;stroke-width:4.17000008px"
           id="path526"
           inkscape:connector-curvature="0" /><path
           d="m 4388.85,3005.09 c -12.22,-3.872 -36.66,-11.615 -45.103,-14.283 -5.484,-1.732 -6.611,10.282 -10.712,14.238"
           style="fill:none;stroke:#000000;stroke-width:4.17000008px"
           id="path528"
           inkscape:connector-curvature="0" /><path
           d="m 5016.64,2315.48 c 5.045,-7.225 10.266,-1.402 9.35,-0.141 -0.916,1.26 0.013,14.426 -14.847,7.705 -5.902,-2.67 -3.85,-10.007 -2.338,-13.147 1.511,-3.14 7.159,-5.85 11.406,-5.693 11.086,0.409 13.797,11.606 8.739,21.377"
           style="fill:none;stroke:#000000;stroke-width:4.17000008px"
           id="path530"
           inkscape:connector-curvature="0" /><path
           d="m 5015,2349.08 c -0.521,-15.316 -23.521,-32.433 -23.242,-43.2 0.28,-10.767 20.569,-11.12 24.919,-21.403"
           style="fill:none;stroke:#000000;stroke-width:4.17000008px"
           id="path532"
           inkscape:connector-curvature="0" /><path
           d="m 4751.7,1614.36 c 0.985,4.703 -1.313,12.369 -6.249,19.732 -1.552,2.316 -6.55,1.205 -7.423,3.853 -2.653,8.051 23.34,21.52 36.788,20.954"
           style="fill:none;stroke:#000000;stroke-width:4.17000008px"
           id="path534"
           inkscape:connector-curvature="0" /><path
           d="m 3671.9,2021.72 c 0,0 28.316,1.823 72.154,-71.639"
           style="fill:none;stroke:#000000;stroke-width:4.17000008px"
           id="path536"
           inkscape:connector-curvature="0" /><path
           d="m 3754.56,2409.04 c 0,0 66.125,7.129 87.304,80.485"
           style="fill:none;stroke:#000000;stroke-width:4.17000008px"
           id="path538"
           inkscape:connector-curvature="0" /><path
           d="m 4214.67,2635.4 c 0,0 59.802,-66.96 126.719,-56.028"
           style="fill:none;stroke:#000000;stroke-width:4.17000008px"
           id="path540"
           inkscape:connector-curvature="0" /><path
           d="m 4597.56,2220.36 c 0,0 -18.541,69.38 20.192,100.881"
           style="fill:none;stroke:#000000;stroke-width:4.17000008px"
           id="path542"
           inkscape:connector-curvature="0" /><path
           d="m 4396.89,1822.96 c 0,0 7.518,76.54 101.619,100.51"
           style="fill:none;stroke:#000000;stroke-width:4.17000008px"
           id="path544"
           inkscape:connector-curvature="0" /></g></g><path
       d="m 3756.02,982.614 c 26.124,18.689 171.026,50.288 195.417,1.046"
       style="fill:none;stroke:#000000;stroke-width:4.07999992px"
       id="path550"
       inkscape:connector-curvature="0" /><path
       d="m 3910.25,1033.44 c 86.011,34.508 115.04,33.679 102.246,8.231"
       style="fill:none;stroke:#000000;stroke-width:4.07999992px"
       id="path552"
       inkscape:connector-curvature="0" /><path
       d="m 4005.78,1111.6 c 13.329,30.244 36.565,39.797 40.448,18.273"
       style="fill:none;stroke:#000000;stroke-width:4.07999992px"
       id="path554"
       inkscape:connector-curvature="0" /><path
       d="m 3502.72,1131.31 c 8.029,9.372 17.096,6.387 26.449,0"
       style="fill:none;stroke:#000000;stroke-width:4.07999992px"
       id="path556"
       inkscape:connector-curvature="0" /><path
       d="m 3551.53,1195.43 c -9.56,35.656 -30.643,61.013 -43.612,26.203"
       style="fill:none;stroke:#000000;stroke-width:4.07999992px"
       id="path558"
       inkscape:connector-curvature="0" /><path
       d="m 3529.73,1060.53 c 21.429,20.743 58.168,-3.861 93.796,-23.026"
       style="fill:none;stroke:#000000;stroke-width:4.07999992px"
       id="path560"
       inkscape:connector-curvature="0" /></g></svg>