<?xml version="1.0" encoding="UTF-8" standalone="no"?>
<!-- Generator: Adobe Illustrator 16.0.0, SVG Export Plug-In . SVG Version: 6.00 Build 0)  -->

<svg
   xmlns:dc="http://purl.org/dc/elements/1.1/"
   xmlns:cc="http://creativecommons.org/ns#"
   xmlns:rdf="http://www.w3.org/1999/02/22-rdf-syntax-ns#"
   xmlns:svg="http://www.w3.org/2000/svg"
   xmlns="http://www.w3.org/2000/svg"
   xmlns:sodipodi="http://sodipodi.sourceforge.net/DTD/sodipodi-0.dtd"
   xmlns:inkscape="http://www.inkscape.org/namespaces/inkscape"
   version="1.1"
   id="svg3647"
   sodipodi:docname="logo.svg"
   inkscape:version="0.92.3 (d244b95, 2018-08-02)"
   x="0px"
   y="0px"
   width="514.908px"
   height="372.191px"
   viewBox="0 0 514.908 372.191"
   enable-background="new 0 0 514.908 372.191"
   xml:space="preserve"><metadata
   id="metadata4931"><rdf:RDF><cc:Work
       rdf:about=""><dc:format>image/svg+xml</dc:format><dc:type
         rdf:resource="http://purl.org/dc/dcmitype/StillImage" /></cc:Work></rdf:RDF></metadata><defs
   id="defs4929" /><sodipodi:namedview
   pagecolor="#ffffff"
   bordercolor="#666666"
   borderopacity="1"
   objecttolerance="10"
   gridtolerance="10"
   guidetolerance="10"
   inkscape:pageopacity="0"
   inkscape:pageshadow="2"
   inkscape:window-width="1920"
   inkscape:window-height="1052"
   id="namedview4927"
   showgrid="false"
   inkscape:zoom="0.89672881"
   inkscape:cx="107.40617"
   inkscape:cy="43.001049"
   inkscape:window-x="1920"
   inkscape:window-y="0"
   inkscape:window-maximized="1"
   inkscape:current-layer="svg3647" />
<circle
   id="circle34"
   fill="#2D93AD"
   cx="136.3"
   cy="205.81"
   r="135.553" />
<path
   id="path36"
   inkscape:connector-curvature="0"
   fill="#DA8319"
   d="M107.929,73.236h-0.428V24.499l28.124-23.757l29.474,23.757  v48.737h-0.428c-6.726-1.435-13.636-2.37-20.689-2.765l-0.288-17.097h-15.826l0.092,17.136  C121.135,70.925,114.446,71.846,107.929,73.236L107.929,73.236z" />
<g
   aria-label="terapi"
   style="font-size:83.14980316px;font-family:ArialMT;fill:#ffffff"
   id="text38"><path
     d="m 33.150469,175.50274 v 12.91096 h 15.387586 v 5.80587 H 33.150469 v 24.68509 q 0,5.56227 1.502218,7.14569 1.542819,1.58342 6.211875,1.58342 h 7.673493 v 6.25248 h -7.673493 q -8.647904,0 -11.936544,-3.20744 -3.28864,-3.24804 -3.28864,-11.77415 v -24.68509 h -5.481066 v -5.80587 h 5.481066 v -12.91096 z"
     style="font-size:83.14980316px;font-family:ArialMT;fill:#ffffff"
     id="path65" /><path
     d="m 97.299245,209.28235 v 3.65404 H 62.95123 q 0.487206,7.7141 4.628456,11.77415 4.181851,4.01944 11.61174,4.01944 4.303652,0 8.323101,-1.05561 4.060049,-1.05561 8.038897,-3.16684 v 7.06449 q -4.019449,1.70522 -8.2419,2.59843 -4.222451,0.89321 -8.566703,0.89321 -10.880931,0 -17.255208,-6.33368 -6.333677,-6.33367 -6.333677,-17.1334 0,-11.16514 6.008873,-17.70182 6.049473,-6.57728 16.280796,-6.57728 9.175711,0 14.494375,5.92768 5.359265,5.88707 5.359265,16.03719 z m -7.47049,-2.19243 q -0.0812,-6.13067 -3.451042,-9.78472 -3.32924,-3.65404 -8.850907,-3.65404 -6.252475,0 -10.028321,3.53224 -3.735245,3.53225 -4.303652,9.94712 z"
     style="font-size:83.14980316px;font-family:ArialMT;fill:#ffffff"
     id="path67" /><path
     d="m 135.91031,195.39698 q -1.25862,-0.73081 -2.76084,-1.05561 -1.46162,-0.36541 -3.24804,-0.36541 -6.33367,0 -9.74411,4.14125 -3.36984,4.10065 -3.36984,11.81475 v 23.95429 h -7.5111 V 188.4137 h 7.5111 v 7.06448 q 2.35482,-4.14125 6.13067,-6.13067 3.77584,-2.03003 9.17571,-2.03003 0.77141,0 1.70522,0.12181 0.93381,0.0812 2.07063,0.2842 z"
     style="font-size:83.14980316px;font-family:ArialMT;fill:#ffffff"
     id="path69" /><path
     d="m 164.49305,211.02817 q -9.05391,0 -12.54555,2.07062 -3.49164,2.07063 -3.49164,7.06449 0,3.97885 2.59843,6.33368 2.63903,2.31422 7.14569,2.31422 6.21187,0 9.94712,-4.38485 3.77584,-4.42545 3.77584,-11.73354 v -1.66462 z m 14.90038,-3.08564 v 25.94372 h -7.47049 v -6.90209 q -2.55783,4.14125 -6.37427,6.13068 -3.81645,1.94882 -9.33812,1.94882 -6.98328,0 -11.12453,-3.89765 -4.10065,-3.93824 -4.10065,-10.51552 0,-7.6735 5.11566,-11.57114 5.15626,-3.89765 15.34699,-3.89765 h 10.47492 v -0.73081 q 0,-5.15626 -3.41044,-7.9577 -3.36984,-2.84203 -9.50051,-2.84203 -3.89765,0 -7.5923,0.93381 -3.69464,0.93381 -7.10508,2.80144 v -6.90209 q 4.10065,-1.58342 7.95769,-2.35483 3.85705,-0.81201 7.5111,-0.81201 9.86591,0 14.73797,5.11567 4.87206,5.11566 4.87206,15.50938 z"
     style="font-size:83.14980316px;font-family:ArialMT;fill:#ffffff"
     id="path71" /><path
     d="m 202.04851,227.06536 v 24.11669 h -7.51109 V 188.4137 h 7.51109 v 6.90208 q 2.35483,-4.06005 5.92767,-6.00887 3.61344,-1.98943 8.6073,-1.98943 8.2825,0 13.43876,6.57728 5.19687,6.57728 5.19687,17.29581 0,10.71853 -5.19687,17.29581 -5.15626,6.57728 -13.43876,6.57728 -4.99386,0 -8.6073,-1.94882 -3.57284,-1.98943 -5.92767,-6.04948 z m 25.4159,-15.87479 q 0,-8.2419 -3.41044,-12.91095 -3.36984,-4.70966 -9.29751,-4.70966 -5.92767,0 -9.33811,4.70966 -3.36984,4.66905 -3.36984,12.91095 0,8.2419 3.36984,12.95156 3.41044,4.66905 9.33811,4.66905 5.92767,0 9.29751,-4.66905 3.41044,-4.70966 3.41044,-12.95156 z"
     style="font-size:83.14980316px;font-family:ArialMT;fill:#ffffff"
     id="path73" /><path
     d="m 247.60226,188.4137 h 7.47049 v 45.47255 h -7.47049 z m 0,-17.70182 h 7.47049 v 9.45992 h -7.47049 z"
     style="font-size:83.14980316px;font-family:ArialMT;fill:#ffffff"
     id="path75" /></g>

<g
   aria-label="e"
   transform="matrix(1 0 0 1 265.3489 233.0977)"
   style="font-size:83.14980316px;font-family:ArialMT;fill:#2d93ad"
   id="text40"><path
     d="m 46.731164,-24.603897 v 3.654044 H 12.383149 q 0.487206,7.714093 4.628456,11.7741423 4.181851,4.0194485 11.61174,4.0194485 4.303652,0 8.323101,-1.0556127 4.060049,-1.0556128 8.038897,-3.1668382 v 7.0644852 q -4.019449,1.70522055 -8.2419,2.59843133 -4.222451,0.89321077 -8.566703,0.89321077 -10.880931,0 -17.255208,-6.3336764 -6.3336766,-6.3336768 -6.3336766,-17.1334068 0,-11.165135 6.0088726,-17.701813 6.049473,-6.57728 16.280796,-6.57728 9.175711,0 14.494375,5.927672 5.359265,5.887071 5.359265,16.037193 z m -7.47049,-2.192426 q -0.0812,-6.130674 -3.451042,-9.784718 -3.32924,-3.654044 -8.850907,-3.654044 -6.252475,0 -10.028321,3.532242 -3.735245,3.532243 -4.303652,9.94712 z"
     style="font-size:83.14980316px;font-family:ArialMT;fill:#2d93ad"
     id="path62" /></g>

<rect
   x="411.358"
   y="70.446"
   transform="matrix(0.2425 0.9702 -0.9702 0.2425 481.9113 -271.5761)"
   fill="#2D93AD"
   width="7"
   height="204.71"
   id="rect4916" />
<rect
   x="310.743"
   y="255.18"
   transform="matrix(0.9538 0.3005 -0.3005 0.9538 96.8902 -112.6943)"
   fill="#2D93AD"
   width="208.228"
   height="6.999"
   id="rect4918" />
<g
   id="g52"
   transform="matrix(0.36291311,0,0,0.36291311,-35.879392,35.451689)">
	<g
   aria-label="Mgr"
   transform="matrix(2.7555 0 0 2.7555 166.4341 906.2909)"
   style="font-size:14.04510021px;font-family:Arial-BoldMT;fill:#da8319"
   id="text4920"><path
     d="m 1.3784498,-10.238933 h 2.0642457 l 2.6128824,6.9676865 2.6265983,-6.9676865 H 10.746422 V 0 H 9.395404 V -8.9907844 L 6.7550897,-1.9682343 H 5.362924 L 2.7226098,-8.9907844 V 0 h -1.34416 z"
     style="font-size:14.04510021px;font-family:Arial-BoldMT;fill:#da8319"
     id="path24" /><path
     d="m 18.502773,-3.9296106 q 0,-1.3715918 -0.56921,-2.1259673 -0.562353,-0.7543755 -1.584189,-0.7543755 -1.014978,0 -1.584188,0.7543755 -0.562353,0.7543755 -0.562353,2.1259673 0,1.3647339 0.562353,2.1191094 0.56921,0.7543755 1.584188,0.7543755 1.021836,0 1.584189,-0.7543755 0.56921,-0.7543755 0.56921,-2.1191094 z m 1.261865,2.97635429 q 0,1.96137631 -0.870961,2.91463261 -0.870961,0.9601143 -2.667746,0.9601143 -0.665222,0 -1.255007,-0.1028694 Q 14.38114,2.7226098 13.825645,2.516871 V 1.2892963 q 0.555495,0.3017502 1.097274,0.4457673 0.541778,0.1440172 1.104131,0.1440172 1.241291,0 1.858507,-0.6515061 0.617216,-0.64464818 0.617216,-1.95451836 V -1.3510179 Q 18.11187,-0.67207999 17.501511,-0.33604 16.891153,0 16.040766,0 q -1.41274,0 -2.276843,-1.0766996 -0.864102,-1.0766996 -0.864102,-2.852911 0,-1.7830693 0.864102,-2.8597689 0.864103,-1.0766996 2.276843,-1.0766996 0.850387,0 1.460745,0.33604 0.610359,0.33604 1.001262,1.014978 v -1.1658531 h 1.261865 z"
     style="font-size:14.04510021px;font-family:Arial-BoldMT;fill:#da8319"
     id="path26" /><path
     d="m 26.81462,-6.5013452 q -0.212597,-0.1234433 -0.466341,-0.178307 -0.246887,-0.061722 -0.548637,-0.061722 -1.069842,0 -1.64591,0.6995118 -0.569211,0.6926539 -0.569211,1.9956661 V 0 h -1.268722 v -7.6809142 h 1.268722 v 1.1932849 q 0.397762,-0.6995118 1.035552,-1.0355518 0.63779,-0.342898 1.549899,-0.342898 0.130301,0 0.288034,0.020574 0.157733,0.013716 0.349756,0.048006 z"
     style="font-size:14.04510021px;font-family:Arial-BoldMT;fill:#da8319"
     id="path28" /></g>

	<g
   aria-label="."
   transform="matrix(2.7555 0 0 2.7555 235.2351 906.2909)"
   style="font-size:14.04510021px;font-family:Arial-BoldMT;fill:#da8319"
   id="text4922"><path
     d="M 1.501893,-1.7419216 H 2.9489224 V 0 H 1.501893 Z"
     style="font-size:14.04510021px;font-family:Arial-BoldMT;fill:#da8319"
     id="path31" /></g>

	
		<g
   aria-label="Jana Eismanová"
   transform="matrix(2.7555 0 0 2.7555 255.398 906.2909)"
   style="font-size:24.04039955px;font-family:Arial-BoldMT;fill:#da8319"
   id="text50"><path
     d="M 2.3594337,-17.525545 H 4.730606 v 16.3047435 q 0,3.1693886 -1.2090631,4.6014827 -1.1973246,1.4320941 -3.86195871,1.4320941 H -1.2442785 v -1.995541 h 0.73952402 q 1.57295578,0 2.21857198,-0.8803857 0.6456162,-0.8803857 0.6456162,-3.1576501 z"
     style="font-size:24.04039955px;font-family:Arial-BoldMT;fill:#da8319"
     id="path34" /><path
     d="m 15.33045,-6.6087622 q -2.61768,0 -3.627189,0.5986623 -1.009509,0.5986623 -1.009509,2.0424949 0,1.1503707 0.751262,1.8312023 0.763001,0.6690932 2.065972,0.6690932 1.795987,0 2.875927,-1.2677555 1.091678,-1.2794939 1.091678,-3.3924197 v -0.4812775 z m 4.308021,-0.8921242 V 0 h -2.15988 v -1.995541 q -0.739524,1.19732461 -1.84294,1.77250995 -1.103417,0.56344686 -2.69985,0.56344686 -2.019018,0 -3.2163426,-1.12689373 -1.1855861,-1.13863218 -1.1855861,-3.04026538 0,-2.218572 1.4790477,-3.3454657 1.490787,-1.1268938 4.437144,-1.1268938 h 3.028527 v -0.2112925 q 0,-1.4907867 -0.986032,-2.3007417 -0.974293,-0.821693 -2.746803,-0.821693 -1.126894,0 -2.195095,0.269985 -1.068202,0.269985 -2.0542336,0.809955 v -1.995541 q 1.1855856,-0.457801 2.3007416,-0.680832 1.115155,-0.234769 2.171618,-0.234769 2.85245,0 4.261067,1.479048 1.408617,1.479048 1.408617,4.4840976 z"
     style="font-size:24.04039955px;font-family:Arial-BoldMT;fill:#da8319"
     id="path37" /><path
     d="M 35.027614,-7.93521 V 0 h -2.15988 v -7.8647792 q 0,-1.8664177 -0.727785,-2.7937578 -0.727786,-0.927339 -2.183357,-0.927339 -1.749033,0 -2.758542,1.115155 -1.009509,1.1151554 -1.009509,3.0402655 V 0 h -2.171618 v -13.147094 h 2.171618 v 2.042495 q 0.77474,-1.185586 1.819464,-1.77251 1.056463,-0.586923 2.429865,-0.586923 2.265526,0 3.427635,1.408617 1.162109,1.396878 1.162109,4.120205 z"
     style="font-size:24.04039955px;font-family:Arial-BoldMT;fill:#da8319"
     id="path39" /><path
     d="m 45.333996,-6.6087622 q -2.61768,0 -3.627189,0.5986623 -1.009509,0.5986623 -1.009509,2.0424949 0,1.1503707 0.751263,1.8312023 0.763001,0.6690932 2.065972,0.6690932 1.795986,0 2.875926,-1.2677555 1.091679,-1.2794939 1.091679,-3.3924197 v -0.4812775 z m 4.308021,-0.8921242 V 0 h -2.159879 v -1.995541 q -0.739524,1.19732461 -1.842941,1.77250995 -1.103417,0.56344686 -2.69985,0.56344686 -2.019018,0 -3.216342,-1.12689373 -1.185586,-1.13863218 -1.185586,-3.04026538 0,-2.218572 1.479048,-3.3454657 1.490786,-1.1268938 4.437144,-1.1268938 h 3.028527 v -0.2112925 q 0,-1.4907867 -0.986032,-2.3007417 -0.974294,-0.821693 -2.746804,-0.821693 -1.126894,0 -2.195095,0.269985 -1.068201,0.269985 -2.054233,0.809955 v -1.995541 q 1.185586,-0.457801 2.300741,-0.680832 1.115155,-0.234769 2.171618,-0.234769 2.85245,0 4.261067,1.479048 1.408617,1.479048 1.408617,4.4840976 z"
     style="font-size:24.04039955px;font-family:Arial-BoldMT;fill:#da8319"
     id="path41" /><path
     d="m 61.850034,-17.525545 h 11.081122 v 1.995541 h -8.709949 v 5.188406 h 8.346056 v 1.9955413 h -8.346056 v 6.3505157 h 8.921242 V 0 H 61.850034 Z"
     style="font-size:24.04039955px;font-family:Arial-BoldMT;fill:#da8319"
     id="path43" /><path
     d="m 76.969193,-13.147094 h 2.159879 V 0 h -2.159879 z m 0,-5.117975 h 2.159879 v 2.735065 h -2.159879 z"
     style="font-size:24.04039955px;font-family:Arial-BoldMT;fill:#da8319"
     id="path45" /><path
     d="m 92.017915,-12.759724 v 2.042495 q -0.915601,-0.469539 -1.901633,-0.704308 -0.986032,-0.23477 -2.042495,-0.23477 -1.608172,0 -2.418126,0.493016 -0.798217,0.493016 -0.798217,1.479048 0,0.7512625 0.575185,1.1855861 0.575186,0.4225852 2.31248,0.8099549 l 0.739524,0.1643387 q 2.300742,0.493016 3.263297,1.3968786 0.974293,0.8921243 0.974293,2.5002955 0,1.8312023 -1.455571,2.89940367 -1.443832,1.06820134 -3.979343,1.06820134 -1.056463,0 -2.206834,-0.21129257 -1.138632,-0.1995541 -2.406387,-0.61040077 V -2.711588 q 1.197324,0.6221392 2.359433,0.9390781 1.162109,0.3052004 2.300742,0.3052004 1.526002,0 2.347695,-0.516493 0.821693,-0.5282314 0.821693,-1.479048 0,-0.8803857 -0.598662,-1.3499248 -0.586924,-0.4695391 -2.594203,-0.9038627 l -0.751263,-0.1760771 q -2.007279,-0.4225852 -2.899403,-1.2912324 -0.892125,-0.8803857 -0.892125,-2.4063877 0,-1.8546788 1.31471,-2.8641878 1.314709,-1.009509 3.732835,-1.009509 1.197325,0 2.253788,0.176077 1.056462,0.176077 1.948587,0.528231 z"
     style="font-size:24.04039955px;font-family:Arial-BoldMT;fill:#da8319"
     id="path47" /><path
     d="m 106.40929,-10.623321 q 0.80996,-1.455571 1.93685,-2.148141 1.12689,-0.69257 2.6529,-0.69257 2.05423,0 3.16938,1.443832 1.11516,1.432094 1.11516,4.08499 V 0 h -2.17162 v -7.8647792 q 0,-1.8898946 -0.66909,-2.8054958 -0.66909,-0.915601 -2.0425,-0.915601 -1.6786,0 -2.65289,1.115155 -0.9743,1.1151554 -0.9743,3.0402655 V 0 h -2.17161 v -7.8647792 q 0,-1.9016331 -0.6691,-2.8054958 -0.66909,-0.915601 -2.06597,-0.915601 -1.65512,0 -2.629418,1.126894 -0.974293,1.1151548 -0.974293,3.0285265 V 0 h -2.171618 v -13.147094 h 2.171618 v 2.042495 q 0.739524,-1.209063 1.772511,-1.784248 1.03298,-0.575185 2.45334,-0.575185 1.43209,0 2.42986,0.727785 1.00951,0.727786 1.49079,2.112926 z"
     style="font-size:24.04039955px;font-family:Arial-BoldMT;fill:#da8319"
     id="path49" /><path
     d="m 125.57822,-6.6087622 q -2.61768,0 -3.62719,0.5986623 -1.00951,0.5986623 -1.00951,2.0424949 0,1.1503707 0.75126,1.8312023 0.763,0.6690932 2.06597,0.6690932 1.79599,0 2.87593,-1.2677555 1.09168,-1.2794939 1.09168,-3.3924197 v -0.4812775 z m 4.30802,-0.8921242 V 0 h -2.15988 v -1.995541 q -0.73953,1.19732461 -1.84294,1.77250995 -1.10342,0.56344686 -2.69985,0.56344686 -2.01902,0 -3.21634,-1.12689373 -1.18559,-1.13863218 -1.18559,-3.04026538 0,-2.218572 1.47905,-3.3454657 1.49078,-1.1268938 4.43714,-1.1268938 h 3.02853 v -0.2112925 q 0,-1.4907867 -0.98603,-2.3007417 -0.9743,-0.821693 -2.74681,-0.821693 -1.12689,0 -2.19509,0.269985 -1.0682,0.269985 -2.05424,0.809955 v -1.995541 q 1.18559,-0.457801 2.30075,-0.680832 1.11515,-0.234769 2.17161,-0.234769 2.85245,0 4.26107,1.479048 1.40862,1.479048 1.40862,4.4840976 z"
     style="font-size:24.04039955px;font-family:Arial-BoldMT;fill:#da8319"
     id="path51" /><path
     d="M 145.27538,-7.93521 V 0 h -2.15988 v -7.8647792 q 0,-1.8664177 -0.72779,-2.7937578 -0.72778,-0.927339 -2.18336,-0.927339 -1.74903,0 -2.75854,1.115155 -1.00951,1.1151554 -1.00951,3.0402655 V 0 h -2.17161 v -13.147094 h 2.17161 v 2.042495 q 0.77474,-1.185586 1.81947,-1.77251 1.05646,-0.586923 2.42986,-0.586923 2.26553,0 3.42764,1.408617 1.16211,1.396878 1.16211,4.120205 z"
     style="font-size:24.04039955px;font-family:Arial-BoldMT;fill:#da8319"
     id="path53" /><path
     d="m 154.70138,-11.63283 q -1.7373,0 -2.7468,1.361663 -1.00951,1.349925 -1.00951,3.7093587 0,2.3594338 0.99777,3.721097 1.00951,1.3499248 2.75854,1.3499248 1.72556,0 2.73506,-1.3616633 1.00951,-1.3616632 1.00951,-3.7093585 0,-2.3359568 -1.00951,-3.6976197 -1.0095,-1.373402 -2.73506,-1.373402 z m 0,-1.831202 q 2.81723,0 4.4254,1.831202 1.60818,1.8312023 1.60818,5.0710217 0,3.228081 -1.60818,5.0710218 -1.60817,1.83120231 -4.4254,1.83120231 -2.82897,0 -4.43715,-1.83120231 -1.59643,-1.8429408 -1.59643,-5.0710218 0,-3.2398194 1.59643,-5.0710217 1.60818,-1.831202 4.43715,-1.831202 z"
     style="font-size:24.04039955px;font-family:Arial-BoldMT;fill:#da8319"
     id="path55" /><path
     d="m 162.75398,-13.147094 h 2.289 l 4.10847,11.0341683 4.10847,-11.0341683 h 2.289 L 170.61876,0 h -2.93462 z"
     style="font-size:24.04039955px;font-family:Arial-BoldMT;fill:#da8319"
     id="path57" /><path
     d="m 184.50536,-6.6087622 q -2.61768,0 -3.62719,0.5986623 -1.0095,0.5986623 -1.0095,2.0424949 0,1.1503707 0.75126,1.8312023 0.763,0.6690932 2.06597,0.6690932 1.79599,0 2.87593,-1.2677555 1.09168,-1.2794939 1.09168,-3.3924197 v -0.4812775 z m 4.30802,-0.8921242 V 0 h -2.15987 v -1.995541 q -0.73953,1.19732461 -1.84295,1.77250995 -1.10341,0.56344686 -2.69985,0.56344686 -2.01901,0 -3.21634,-1.12689373 -1.18558,-1.13863218 -1.18558,-3.04026538 0,-2.218572 1.47904,-3.3454657 1.49079,-1.1268938 4.43715,-1.1268938 h 3.02853 v -0.2112925 q 0,-1.4907867 -0.98604,-2.3007417 -0.97429,-0.821693 -2.7468,-0.821693 -1.12689,0 -2.1951,0.269985 -1.0682,0.269985 -2.05423,0.809955 v -1.995541 q 1.18559,-0.457801 2.30074,-0.680832 1.11516,-0.234769 2.17162,-0.234769 2.85245,0 4.26107,1.479048 1.40861,1.479048 1.40861,4.4840976 z m -3.94412,-11.7267376 h 2.33595 l -3.82674,4.413667 h -1.79599 z"
     style="font-size:24.04039955px;font-family:Arial-BoldMT;fill:#da8319"
     id="path59" /></g>

</g>
</svg>